<svg width="64" height="64" viewBox="0 0 64 64" fill="none" xmlns="http://www.w3.org/2000/svg">
<path d="M17.5 11.5L12 11.5C11.7239 11.5 11.5 11.7239 11.5 12L11.5 26C11.5 26.2761 11.7239 26.5 12 26.5H17.5V29.5H12C10.067 29.5 8.5 27.933 8.5 26V12C8.5 10.067 10.067 8.5 12 8.5H17.5V11.5Z" fill="#65B2FF"/>
<path d="M17.5 37.5H12C11.7239 37.5 11.5 37.7239 11.5 38L11.5 52C11.5 52.2761 11.7239 52.5 12 52.5H17.5V55.5H12C10.067 55.5 8.5 53.933 8.5 52V38C8.5 36.067 10.067 34.5 12 34.5H17.5V37.5Z" fill="#65B2FF"/>
<path d="M38 11.5L43.5 11.5V8.5H38C36.067 8.5 34.5 10.067 34.5 12V26C34.5 27.933 36.067 29.5 38 29.5H43.5V26.5H38C37.7239 26.5 37.5 26.2761 37.5 26V12C37.5 11.7239 37.7239 11.5 38 11.5Z" fill="#65B2FF"/>
<path d="M43.5 37.5H38C37.7239 37.5 37.5 37.7239 37.5 38V52C37.5 52.2761 37.7239 52.5 38 52.5H43.5V55.5H38C36.067 55.5 34.5 53.933 34.5 52V38C34.5 36.067 36.067 34.5 38 34.5H43.5V37.5Z" fill="#65B2FF"/>
<path d="M26 37.5H20.5V34.5H26C27.933 34.5 29.5 36.067 29.5 38V52C29.5 53.933 27.933 55.5 26 55.5H20.5V52.5H26C26.2761 52.5 26.5 52.2761 26.5 52V38C26.5 37.7239 26.2761 37.5 26 37.5Z" fill="#65B2FF"/>
<path d="M20.5 11.5L26 11.5C26.2761 11.5 26.5 11.7239 26.5 12V26C26.5 26.2761 26.2761 26.5 26 26.5H20.5V29.5H26C27.933 29.5 29.5 27.933 29.5 26V12C29.5 10.067 27.933 8.5 26 8.5H20.5V11.5Z" fill="#65B2FF"/>
<path d="M52 11.5L46.5 11.5V8.5H52C53.933 8.5 55.5 10.067 55.5 12V26C55.5 27.933 53.933 29.5 52 29.5H46.5V26.5H52C52.2761 26.5 52.5 26.2761 52.5 26V12C52.5 11.7239 52.2761 11.5 52 11.5Z" fill="#65B2FF"/>
<path d="M46.5 37.5H52C52.2761 37.5 52.5 37.7239 52.5 38V52C52.5 52.2761 52.2761 52.5 52 52.5H46.5V55.5H52C53.933 55.5 55.5 53.933 55.5 52V38C55.5 36.067 53.933 34.5 52 34.5H46.5V37.5Z" fill="#65B2FF"/>
<path d="M19 46.5C20.1046 46.5 21 45.6046 21 44.5C21 43.3954 20.1046 42.5 19 42.5C17.8954 42.5 17 43.3954 17 44.5C17 45.6046 17.8954 46.5 19 46.5Z" fill="#65B2FF"/>
</svg>
