<svg width="64" height="64" viewBox="0 0 64 64" fill="none" xmlns="http://www.w3.org/2000/svg">
<path d="M17.5 11.5L12 11.5C11.7239 11.5 11.5 11.7239 11.5 12L11.5 26C11.5 26.2761 11.7239 26.5 12 26.5H17.5V29.5H12C10.067 29.5 8.5 27.933 8.5 26V12C8.5 10.067 10.067 8.5 12 8.5H17.5V11.5Z" fill="#4E39C1"/>
<path d="M12 37.5H17.5V34.5H12C10.067 34.5 8.5 36.067 8.5 38V52C8.5 53.933 10.067 55.5 12 55.5H17.5V52.5H12C11.7239 52.5 11.5 52.2761 11.5 52L11.5 38C11.5 37.7239 11.7239 37.5 12 37.5Z" fill="#4E39C1"/>
<path d="M44.6765 50.5C48.3869 45.8436 55.6131 45.8436 59.3236 50.5H62.9046C58.2213 41.8436 45.7787 41.8436 41.0954 50.5H44.6765Z" fill="#4E39C1"/>
<path d="M44.6765 53.5C48.3869 58.1564 55.6131 58.1564 59.3236 53.5H62.9046C58.2213 62.1564 45.7787 62.1564 41.0954 53.5H44.6765Z" fill="#4E39C1"/>
<path d="M52 55C53.6569 55 55 53.6569 55 52C55 50.3431 53.6569 49 52 49C50.3431 49 49 50.3431 49 52C49 53.6569 50.3431 55 52 55Z" fill="#4E39C1"/>
<path d="M38 37.5H43.5V34.5H38C36.067 34.5 34.5 36.067 34.5 38V52.3929C34.5 54.1089 35.8911 55.5 37.6071 55.5V52.5C37.548 52.5 37.5 52.452 37.5 52.3929L37.5 38C37.5 37.7239 37.7239 37.5 38 37.5Z" fill="#4E39C1"/>
<path d="M43.5 11.5L38 11.5C37.7239 11.5 37.5 11.7239 37.5 12V26C37.5 26.2761 37.7239 26.5 38 26.5H43.5V29.5H38C36.067 29.5 34.5 27.933 34.5 26V12C34.5 10.067 36.067 8.5 38 8.5H43.5V11.5Z" fill="#4E39C1"/>
<path d="M26 37.5H20.5V34.5H26C27.933 34.5 29.5 36.067 29.5 38V52C29.5 53.933 27.933 55.5 26 55.5H20.5V52.5H26C26.2761 52.5 26.5 52.2761 26.5 52V38C26.5 37.7239 26.2761 37.5 26 37.5Z" fill="#4E39C1"/>
<path d="M20.5 11.5L26 11.5C26.2761 11.5 26.5 11.7239 26.5 12V26C26.5 26.2761 26.2761 26.5 26 26.5H20.5V29.5H26C27.933 29.5 29.5 27.933 29.5 26V12C29.5 10.067 27.933 8.5 26 8.5H20.5V11.5Z" fill="#4E39C1"/>
<path d="M52 37.5H46.5V34.5H52C53.933 34.5 55.5 36.067 55.5 38V41H52.5V38C52.5 37.7239 52.2761 37.5 52 37.5Z" fill="#4E39C1"/>
<path d="M46.5 11.5L52 11.5C52.2761 11.5 52.5 11.7239 52.5 12V26C52.5 26.2761 52.2761 26.5 52 26.5H46.5V29.5H52C53.933 29.5 55.5 27.933 55.5 26V12C55.5 10.067 53.933 8.5 52 8.5H46.5V11.5Z" fill="#4E39C1"/>
<path d="M19 46.5C20.1046 46.5 21 45.6046 21 44.5C21 43.3954 20.1046 42.5 19 42.5C17.8954 42.5 17 43.3954 17 44.5C17 45.6046 17.8954 46.5 19 46.5Z" fill="#4E39C1"/>
</svg>
