<svg width="64" height="64" viewBox="0 0 64 64" fill="none" xmlns="http://www.w3.org/2000/svg">
    <path d="M28 11.5L14 11.5C12.6193 11.5 11.5 12.6193 11.5 14L11.5 50C11.5 51.3807 12.6193 52.5 14 52.5H28V55.5H14C10.9624 55.5 8.5 53.0376 8.5 50L8.5 14C8.5 10.9624 10.9624 8.5 14 8.5L28 8.5V11.5Z" fill="#e3f2fd"/>
    <path fill-rule="evenodd" clip-rule="evenodd" d="M20.5 32C20.5 25.6487 25.6487 20.5 32 20.5C38.3513 20.5 43.5 25.6487 43.5 32C43.5 38.3513 38.3513 43.5 32 43.5C25.6487 43.5 20.5 38.3513 20.5 32ZM32 23.5C27.3056 23.5 23.5 27.3056 23.5 32C23.5 36.6944 27.3056 40.5 32 40.5C36.6944 40.5 40.5 36.6944 40.5 32C40.5 27.3056 36.6944 23.5 32 23.5Z" fill="#e3f2fd"/>
    <path d="M50 11.5L36 11.5V8.5L50 8.5C53.0376 8.5 55.5 10.9624 55.5 14L55.5 37H52.5L52.5 14C52.5 12.6193 51.3807 11.5 50 11.5Z" fill="#e3f2fd"/>
    <path fill-rule="evenodd" clip-rule="evenodd" d="M40 48.75C40 43.9175 43.9175 40 48.75 40C53.5825 40 57.5 43.9175 57.5 48.75C57.5 53.5825 53.5825 57.5 48.75 57.5C43.9175 57.5 40 53.5825 40 48.75ZM48.75 43C45.5744 43 43 45.5744 43 48.75C43 51.9256 45.5744 54.5 48.75 54.5C51.9256 54.5 54.5 51.9256 54.5 48.75C54.5 45.5744 51.9256 43 48.75 43Z" fill="#e3f2fd"/>
    <path d="M63.0607 60.9393L57.5607 55.4393L55.4393 57.5606L60.9394 63.0606L63.0607 60.9393Z" fill="#e3f2fd"/>
</svg>
