<svg xmlns="http://www.w3.org/2000/svg" xmlns:xlink="http://www.w3.org/1999/xlink" viewBox="0 0 65 49" fill="#fff" fill-rule="evenodd" stroke="#000" stroke-linecap="round" stroke-linejoin="round"><use xlink:href="#A" x=".5" y=".5"/><symbol id="A" overflow="visible"><g stroke="none" fill-rule="nonzero"><path d="M20.096 29.42l-.085-3.854-4.053-2.523.085 3.855zm5.754 9.636l-.085-3.769-3.543-2.211c-.057-.028-.113-.085-.142-.113l.085 3.798zM13.181 44.13l-9.268-5.753-.227-9.636 4.535-1.956-.085-3.854L.88 26.048c-.567.255-.907.765-.879 1.36l.283 11.564c0 .595.368 1.19.935 1.53l11.11 6.887c.51.312 1.134.397 1.672.255.057-.028.113-.028.17-.057l6.83-2.948-3.713-2.296z" fill="#b31aab"/><path d="M43.139 22.817a2.22 2.22 0 0 0-1.105-1.786L28.542 12.67l-.425.17.085 4.053 10.685 6.632.255 10.827 4.081 2.523.227-.085zM26.984 41.834l-12.556-7.766-.312-13.038 5.725-2.466-.113-4.506-8.871 3.826c-.652.283-1.049.879-1.02 1.587l.369 15.305c0 .709.425 1.389 1.105 1.786l14.71 9.126c.595.368 1.332.482 1.956.283.057-.028.113-.057.17-.057l8.673-3.741-4.308-2.664z" fill="#d163ce"/><path d="M62.27 12.103L43.422.426c-.709-.425-1.53-.538-2.239-.312-.057.028-.142.057-.198.085L22.59 8.135c-.737.312-1.19.992-1.162 1.814l.453 19.613c.028.794.51 1.587 1.275 2.041L42.005 43.28c.68.425 1.531.538 2.239.312.057-.028.142-.057.198-.085l18.394-7.936a1.88 1.88 0 0 0 1.162-1.814l-.454-19.613c-.028-.794-.51-1.559-1.275-2.041M43.11 38.887L26.728 28.74l-.397-17.034 15.985-6.887 16.382 10.147L59.095 32z" fill="#e13eaf"/></g></symbol></svg>