<svg width="64" height="64" viewBox="0 0 64 64" fill="none" xmlns="http://www.w3.org/2000/svg">
<path d="M8.5 12C8.5 10.067 10.067 8.5 12 8.5H52C53.933 8.5 55.5 10.067 55.5 12V20.5H52.5V12C52.5 11.7239 52.2761 11.5 52 11.5H12C11.7239 11.5 11.5 11.7239 11.5 12V20.5H8.5V12Z" fill="#186d33"/>
<path d="M8.5 27C8.5 25.067 10.067 23.5 12 23.5H52C53.933 23.5 55.5 25.067 55.5 27V35.5H52.5V27C52.5 26.7239 52.2761 26.5 52 26.5H12C11.7239 26.5 11.5 26.7239 11.5 27V35.5H8.5V27Z" fill="#186d33"/>
<path d="M 12 38.5 C 10.067 38.5 8.5 40.067 8.5 42 V 50 H 11.5 V 42 C 11.5 41.7239 11.7239 41.5 12 41.5 H 35 C 35 42 36 40 35.161 38.48 H 12 Z" fill="#186d33"/>
<path d="M20 18C20 19.1046 19.1046 20 18 20C16.8954 20 16 19.1046 16 18C16 16.8954 16.8954 16 18 16C19.1046 16 20 16.8954 20 18Z" fill="#186d33"/>
<path d="M18 34C19.1046 34 20 33.1046 20 32C20 30.8954 19.1046 30 18 30C16.8954 30 16 30.8954 16 32C16 33.1046 16.8954 34 18 34Z" fill="#186d33"/>
<path d="M20 48C20 49.1046 19.1046 50 18 50C16.8954 50 16 49.1046 16 48C16 46.8954 16.8954 46 18 46C19.1046 46 20 46.8954 20 48Z" fill="#186d33"/>
<path d="M26 20C27.1046 20 28 19.1046 28 18C28 16.8954 27.1046 16 26 16C24.8954 16 24 16.8954 24 18C24 19.1046 24.8954 20 26 20Z" fill="#186d33"/>
<path d="M28 32C28 33.1046 27.1046 34 26 34C24.8954 34 24 33.1046 24 32C24 30.8954 24.8954 30 26 30C27.1046 30 28 30.8954 28 32Z" fill="#186d33"/>
<path d="M26 50C27.1046 50 28 49.1046 28 48C28 46.8954 27.1046 46 26 46C24.8954 46 24 46.8954 24 48C24 49.1046 24.8954 50 26 50Z" fill="#186d33"/>
<path d="M48 18C48 19.1046 47.1046 20 46 20C44.8954 20 44 19.1046 44 18C44 16.8954 44.8954 16 46 16C47.1046 16 48 16.8954 48 18Z" fill="#186d33"/>
<path d="M46 34C47.1046 34 48 33.1046 48 32C48 30.8954 47.1046 30 46 30C44.8954 30 44 30.8954 44 32C44 33.1046 44.8954 34 46 34Z" fill="#186d33"/>
<path d="M 32 56 C 35 56 35 56 35 53 L 8.5 53 C 8.5 54.6569 9.8431 56 11.5 56 L 32 56 Z" fill="#186d33"/>
<path d="M46 43C45.7239 43 45.5 43.2239 45.5 43.5V48.5H42.5V43.5C42.5 41.567 44.067 40 46 40H58C59.933 40 61.5 41.567 61.5 43.5V48.5H58.5V43.5C58.5 43.2239 58.2761 43 58 43H46Z" fill="#186d33"/>
<path d="M45.5 51.5V52C45.5 54.0459 46.4633 55.9724 48.1 57.2L52 60.125L55.9 57.2C57.5367 55.9724 58.5 54.0459 58.5 52V51.5H61.5V52C61.5 54.9902 60.0922 57.8059 57.7 59.6L52.9 63.2C52.3667 63.6 51.6333 63.6 51.1 63.2L46.3 59.6C43.9078 57.8059 42.5 54.9902 42.5 52V51.5H45.5Z" fill="#186d33"/>
</svg>
