<svg width="64" height="64" viewBox="0 0 64 64" fill="none" xmlns="http://www.w3.org/2000/svg">
<path d="M21.6063 20.5H18.5824C19.3286 13.7501 25.0512 8.5 32 8.5C38.9488 8.5 44.6714 13.7501 45.4176 20.5H42.3937C41.6658 15.4116 37.2897 11.5 32 11.5C26.7103 11.5 22.3342 15.4116 21.6063 20.5Z" fill="#e3f2fd"/>
<path d="M42.4282 23.5C42.1116 26.226 40.7612 28.7464 38.6289 30.5233L37.0397 31.8477C34.83 33.6891 33.1174 36.0031 32 38.58C30.8826 36.0031 29.17 33.6891 26.9603 31.8477L25.3711 30.5233C23.2388 28.7464 21.8884 26.226 21.5718 23.5H18.5561C18.8837 27.1184 20.6336 30.4805 23.4505 32.828L25.0397 34.1523C28.4996 37.0355 30.5 41.3066 30.5 45.8103V49H33.5V45.8103C33.5 41.3066 35.5004 37.0355 38.9603 34.1523L40.5495 32.828C43.3664 30.4805 45.1163 27.1184 45.4439 23.5H42.4282Z" fill="#e3f2fd"/>
<path d="M34 54C34 55.1046 33.1046 56 32 56C30.8954 56 30 55.1046 30 54C30 52.8954 30.8954 52 32 52C33.1046 52 34 52.8954 34 54Z" fill="#e3f2fd"/>
<path d="M12 55.5H27V52.5H12V55.5Z" fill="#e3f2fd"/>
<path d="M52 55.5H37V52.5H52V55.5Z" fill="#e3f2fd"/>
<path d="M32 24C33.1046 24 34 23.1046 34 22C34 20.8954 33.1046 20 32 20C30.8954 20 30 20.8954 30 22C30 23.1046 30.8954 24 32 24Z" fill="#e3f2fd"/>
</svg>
