<svg width="64" height="64" viewBox="0 0 64 64" fill="none" xmlns="http://www.w3.org/2000/svg">
<path d="M32.0001 8C33.1046 8 34.0001 8.89543 34.0001 10C34.0001 11.1046 33.1046 12 32.0001 12C30.8955 12 30.0001 11.1046 30.0001 10C30.0001 8.89543 30.8955 8 32.0001 8Z" fill="#e3f2fd"/>
<path d="M32.0001 30C33.1046 30 34.0001 30.8954 34.0001 32C34.0001 33.1046 33.1046 34 32.0001 34C30.8955 34 30.0001 33.1046 30.0001 32C30.0001 30.8954 30.8955 30 32.0001 30Z" fill="#e3f2fd"/>
<path d="M34.0001 54C34.0001 52.8954 33.1046 52 32.0001 52C30.8955 52 30.0001 52.8954 30.0001 54C30.0001 55.1046 30.8955 56 32.0001 56C33.1046 56 34.0001 55.1046 34.0001 54Z" fill="#e3f2fd"/>
<path d="M30.5001 37.5V48.5H33.5001V37.5H30.5001Z" fill="#e3f2fd"/>
<path d="M30.5001 26.5V15.5H33.5001V26.5H30.5001Z" fill="#e3f2fd"/>
<path d="M52.5001 27H49.5001V37H52.5001V27Z" fill="#e3f2fd"/>
<path d="M11.5001 37L11.5001 27H14.5001L14.5001 37H11.5001Z" fill="#e3f2fd"/>
<path d="M36.4199 14.3445L45.0802 19.3445L46.5802 16.7465L37.9199 11.7465L36.4199 14.3445Z" fill="#e3f2fd"/>
<path d="M26.0802 52.2535L17.4199 47.2535L18.9199 44.6554L27.5802 49.6554L26.0802 52.2535Z" fill="#e3f2fd"/>
<path d="M18.9199 19.3446L27.5802 14.3446L26.0802 11.7465L17.4199 16.7465L18.9199 19.3446Z" fill="#e3f2fd"/>
<path d="M47.0395 25.049L37.5132 30.549L36.0132 27.951L45.5395 22.451L47.0395 25.049Z" fill="#e3f2fd"/>
<path d="M18.4606 41.549L27.5539 36.299L26.0539 33.701L16.9606 38.951L18.4606 41.549Z" fill="#e3f2fd"/>
<path d="M18.4607 22.451L27.9869 27.951L26.4869 30.549L16.9607 25.049L18.4607 22.451Z" fill="#e3f2fd"/>
<path d="M43.2385 36.6944L37.9347 33.6944L36.4577 36.3056L41.7615 39.3056L43.2385 36.6944Z" fill="#e3f2fd"/>
<path d="M13.9475 19.268C12.9909 18.7157 11.7677 19.0434 11.2155 20C10.6632 20.9566 10.9909 22.1798 11.9475 22.7321C12.9041 23.2843 14.1273 22.9566 14.6796 22C15.2318 21.0434 14.9041 19.8202 13.9475 19.268Z" fill="#e3f2fd"/>
<path d="M11.2154 44C10.6631 43.0434 10.9909 41.8202 11.9475 41.268C12.9041 40.7157 14.1272 41.0434 14.6795 42C15.2318 42.9566 14.9041 44.1798 13.9475 44.7321C12.9909 45.2843 11.7677 44.9566 11.2154 44Z" fill="#e3f2fd"/>
<path d="M51.0526 19C49.948 19 49.0526 19.8954 49.0526 21C49.0526 22.1046 49.948 23 51.0526 23C52.1572 23 53.0526 22.1046 53.0526 21C53.0526 19.8954 52.1572 19 51.0526 19Z" fill="#e3f2fd"/>
<path d="M44.6765 50.5C48.387 45.8436 55.6132 45.8436 59.3236 50.5H62.9047C58.2213 41.8436 45.7788 41.8436 41.0955 50.5H44.6765Z" fill="#e3f2fd"/>
<path d="M44.6765 53.5C48.387 58.1564 55.6132 58.1564 59.3236 53.5H62.9047C58.2214 62.1564 45.7788 62.1564 41.0955 53.5H44.6765Z" fill="#e3f2fd"/>
<path d="M52.0001 55C53.6569 55 55.0001 53.6569 55.0001 52C55.0001 50.3431 53.6569 49 52.0001 49C50.3432 49 49.0001 50.3431 49.0001 52C49.0001 53.6569 50.3432 55 52.0001 55Z" fill="#e3f2fd"/>
</svg>
