<?xml version="1.0" standalone="no"?>
<!DOCTYPE svg PUBLIC "-//W3C//DTD SVG 1.1//EN" "http://www.w3.org/Graphics/SVG/1.1/DTD/svg11.dtd" >
<svg xmlns="http://www.w3.org/2000/svg" xmlns:xlink="http://www.w3.org/1999/xlink" version="1.1">
<metadata>Created by EOS Design System</metadata>
<defs>
<font id="eos-icons" horiz-adv-x="512" >
  <font-face 
    font-family="eos-icons"
    font-weight="400"
    font-stretch="normal"
    units-per-em="512"
    panose-1="2 0 5 9 0 0 0 0 0 0"
    ascent="448"
    descent="-64"
    bbox="-0.265625 -64.0769 512 448.379"
    underline-thickness="25"
    underline-position="-76"
    unicode-range="U+0030-F806"
  />
<missing-glyph 
d="M17 0v341h136v-341h-136zM34 17h102v307h-102v-307z" />
    <glyph glyph-name="3d_print" unicode="&#x33;d_print" 
d="M469 405h-426v-426h426v426zM469 448q18 0 30.5 -12.5t12.5 -30.5v-426q0 -18 -12.5 -30.5t-30.5 -12.5h-426q-18 0 -30.5 12.5t-12.5 30.5v426q0 18 12.5 30.5t30.5 12.5h426zM491 341v-42h-448v42h448zM384 85v-42h-256v42h256zM235 -21v64h42v-64h-42zM320 320
q0 -13 -9 -25t-22 -16l-33 -66l-33 66q-13 4 -22 16t-9 25q0 18 12.5 30.5t30.5 12.5h42q18 0 30.5 -12.5t12.5 -30.5zM277 299q9 0 15.5 6t6.5 15t-6.5 15t-15.5 6h-42q-9 0 -15.5 -6t-6.5 -15t6.5 -15t15.5 -6h42zM235 320q0 -9 6 -15t15 -6t15 6t6 15t-6 15t-15 6t-15 -6
t-6 -15z" />
    <glyph glyph-name="abstract" unicode="abstract" 
d="M341 384h1q6 0 13.5 -3t13.5 -8t9 -10l86 -150q6 -10 6 -21t-6 -21l-86 -150q-5 -8 -15.5 -14.5t-20.5 -6.5h-1h-170q-10 0 -21 6.5t-16 14.5l-85 150q-6 10 -6 21t6 21l85 150q5 8 16 14.5t21 6.5h170z" />
    <glyph glyph-name="abstract_incomplete" unicode="abstract_incomplete" 
d="M463 213q6 -10 6 -21v0q0 -11 -6 -21l-85 -149q-5 -9 -16 -15.5t-21 -6.5h-170h-1q-10 0 -20.5 6.5t-15.5 15.5l-33 57l-17 29l-36 63q-5 10 -5 21t5 21l36 63l17 29l33 57q5 9 15.5 15.5t20.5 6.5h1h170q10 0 21 -6.5t16 -15.5zM370 86zM433 192l-88 149h-177l-25 -43
q3 1 6 1q44 0 75.5 -31.5t31.5 -75.5v-2q1 -43 32 -74t74 -31q1 0 8 1z" />
    <glyph glyph-name="abstract_instance" unicode="abstract_instance" 
d="M463 213q6 -10 6 -22q0 -11 -5 -20l-86 -150q-5 -8 -15.5 -14.5t-20.5 -6.5h-1h-170q-10 0 -21 6.5t-16 14.5l-85 150q-6 10 -6 21t6 21l85 150q4 5 10 10t13 8t14 3h170q10 0 21 -6.5t16 -14.5zM256 149q18 0 30.5 12.5t12.5 30.5t-12.5 30.5t-30.5 12.5t-30.5 -12.5
t-12.5 -30.5t12.5 -30.5t30.5 -12.5z" />
    <glyph glyph-name="action_chains" unicode="action_chains" 
d="M363 21.5q0 26.5 18.5 45t45 18.5t45.5 -18.5t19 -45t-19 -45.5t-45.5 -19t-45 19t-18.5 45.5zM384 384q44 0 75.5 -31.5t31.5 -75.5t-31.5 -75t-75.5 -31h-68q-6 -18 -23.5 -30t-36 -12t-36 12t-24.5 30h-68q-26 0 -45 -19t-19 -45.5t19 -45t45 -18.5h128v64l85 -86
l-85 -85v64h-128q-44 0 -75.5 31.5t-31.5 75.5t31.5 75t75.5 31h68q6 18 24 30t36.5 12t36 -12t23.5 -30h68q26 0 45 19t19 45.5t-19 45t-45 18.5h-238q-7 -17 -24.5 -29.5t-36.5 -12.5q-26 0 -45 18.5t-19 45t19 45.5t45 19q19 0 36.5 -12.5t24.5 -30.5h238z" />
    <glyph glyph-name="activate_subscriptions" unicode="activate_subscriptions" 
d="M85 277v43h342v-43h-342zM128 363v42h256v-42h-256zM427 235q8 0 16 -3.5t14 -9.5t9 -13.5t3 -16.5v-171q0 -17 -12.5 -29.5t-29.5 -12.5h-342q-17 0 -29.5 12.5t-12.5 29.5v171q0 5 1 10t3 9t5 7.5t6.5 6.5t8 5t9 3.5t9.5 1.5h342zM320 85v43h-43v43h-42v-43h-43v-43h43
v-42h42v42h43z" />
    <glyph glyph-name="admin" unicode="admin" 
d="M256 427l192 -86v-128q0 -89 -55 -162.5t-137 -93.5q-82 20 -137 93.5t-55 162.5v128zM256 343q-26 0 -45 -18.5t-19 -45t19 -45.5t45 -19t45 19t19 45.5t-19 45t-45 18.5zM256 175q-23 0 -52 -7t-52.5 -23t-23.5 -36q19 -28 56.5 -48t71.5 -20t71.5 20t56.5 48
q0 15 -14 28t-34.5 21t-41.5 12.5t-38 4.5z" />
    <glyph glyph-name="ai" unicode="ai" 
d="M448 213h-43v-42h43v-43h-43v-43q0 -17 -12.5 -29.5t-29.5 -12.5h-43v-43h-43v43h-42v-43h-43v43h-43q-17 0 -29.5 12.5t-12.5 29.5v43h-43v43h43v42h-43v43h43v43q0 17 12.5 29.5t29.5 12.5h43v43h43v-43h42v43h43v-43h43q17 0 29.5 -12.5t12.5 -29.5v-43h43v-43z
M363 85v214h-214v-214h214zM242 277l42 -170h-22l-10 40h-49l-10 -40h-22l43 170h28zM205 164h44l-21 93h-1zM304 107v170h21v-170h-21z" />
    <glyph glyph-name="ai_healing" unicode="ai_healing" 
d="M235 341v22h42v-22h-42zM171 363q0 9 6 15t15 6t15 -6t6 -15q0 -6 -2.5 -11t-7.5 -8t-11 -3q-9 0 -15 6.5t-6 15.5zM299 363q0 9 6 15t15 6t15 -6t6 -15t-6 -15.5t-15 -6.5t-15 6.5t-6 15.5zM384 235q26 0 45 -19t19 -45v-171q0 -26 -19 -45t-45 -19h-256q-26 0 -45 19
t-19 45v171q0 26 19 45t45 19h107v42h-64q-27 0 -45.5 19t-18.5 45v43q0 26 18.5 45t45.5 19h170q27 0 45.5 -19t18.5 -45v-43q0 -26 -18.5 -44.5t-45.5 -18.5l-64 -1v-42h107zM171 320h170q9 0 15.5 6.5t6.5 14.5v43q0 9 -6.5 15t-15.5 6h-170q-9 0 -15.5 -6t-6.5 -15v-43
q0 -8 6.5 -14.5t15.5 -6.5zM265 20q21 20 30 30t17 24t8 26v2q0 10 -4.5 18t-13 13t-17.5 6q-18 -1 -29 -15q-11 14 -29 15q-9 -1 -17.5 -6t-13 -13t-4.5 -18v-2q0 -18 12.5 -34t42.5 -46l9 -9z" />
    <glyph glyph-name="ai_operator" unicode="ai_operator" 
d="M178 341l42 -170h-22l-10 40h-50l-9 -40h-22l43 170h28zM141 228h44l-21 93h-1zM240 171v170h21v-170h-21zM244 149q2 -22 12 -43v-42h-43v43h-42v-43h-43v43h-43q-17 0 -29.5 12.5t-12.5 29.5v43h-43v43h43v42h-43v43h43v43q0 17 12.5 29.5t29.5 12.5h43v43h43v-43h42
v43h43v-43h43q17 0 29.5 -12.5t12.5 -29.5v-43h43v-43q-11 2 -22 2q-34 0 -63 -18v102h-214v-214h159zM288 160q0 31 22 53t53 22t52.5 -22t21.5 -53t-21.5 -53t-52.5 -22t-53 22t-22 53zM362.5 43q27.5 0 61 -8t61 -26t27.5 -41v-32h-299v32q0 23 28 41t61 26t60.5 8z" />
    <glyph glyph-name="api" unicode="api" 
d="M283 203v21h43v-21h-43zM427 363q8 0 16 -3.5t14 -9.5t9 -13.5t3 -16.5v-256q0 -18 -12.5 -30.5t-29.5 -12.5h-342q-17 0 -29.5 12.5t-12.5 30.5v256q0 18 12.5 30.5t29.5 12.5h342zM179 128h34l-46 128h-35l-47 -128h35l9 26h42zM358 203v21v1q0 13 -9.5 22t-22.5 9h-75
v-128h32v43h43q13 0 22.5 9t9.5 22v1zM427 128v128h-32v-128h32zM137 176l13 33l12 -33h-25z" />
    <glyph glyph-name="application" unicode="application" 
d="M21 384q0 18 12.5 30.5t30.5 12.5h384q18 0 30.5 -12.5t12.5 -30.5v-43h-470v43zM85 363q9 0 15.5 6t6.5 15q0 6 -3 11t-8 7.5t-11 2.5q-8 0 -14.5 -6t-6.5 -15q0 -6 3 -11t8 -7.5t10 -2.5zM149.5 363q8.5 0 15 6t6.5 15t-6.5 15t-15 6t-15 -6t-6.5 -15t6.5 -15t15 -6z
M21 320h470v-299q0 -17 -12.5 -29.5t-30.5 -12.5h-384q-18 0 -30.5 12.5t-12.5 29.5v299zM194 122l-28 27l28 28l28 28l-15 15l-15 15l-43 -43l-42 -43l42 -42l43 -43l15 15l15 15zM363 107l42 42l-42 43l-43 43l-15 -15l-15 -15l28 -28l28 -28l-28 -27l-28 -28l15 -15
l15 -15z" />
    <glyph glyph-name="application_incomplete" unicode="application_incomplete" 
d="M21 384q0 18 12.5 30.5t30.5 12.5h384q18 0 30.5 -12.5t12.5 -30.5v-43h-470v43zM85 363q9 0 15.5 6t6.5 15q0 6 -3 11t-8 7.5t-11 2.5q-8 0 -14.5 -6t-6.5 -15q0 -6 3 -11t8 -7.5t10 -2.5zM149.5 363q8.5 0 15 6t6.5 15t-6.5 15t-15 6t-15 -6t-6.5 -15t6.5 -15t15 -6z
M21 320h470v-299q0 -17 -12.5 -29.5t-30.5 -12.5h-384q-18 0 -30.5 12.5t-12.5 29.5v299zM256 43q44 0 75.5 31t31.5 75h-107v107q-44 0 -75.5 -31.5t-31.5 -75.5t31.5 -75t75.5 -31z" />
    <glyph glyph-name="application_instance" unicode="application_instance" 
d="M21 320h470v-299q0 -17 -12.5 -29.5t-30.5 -12.5h-384q-18 0 -30.5 12.5t-12.5 29.5v299zM192 43l149 96l-149 96v-96v-96zM22 384q0 18 12 30.5t30 12.5h384q18 0 30 -12.5t12 -30.5l1 -43h-470zM85 363q5 0 9 1.5t6.5 4.5t4.5 6.5t2 8.5q0 9 -6.5 15t-15 6t-15 -6
t-6.5 -15t6.5 -15t14.5 -6zM149.5 363q8.5 0 15 6t6.5 15t-6.5 15t-15 6t-15 -6t-6.5 -15t6.5 -15t15 -6z" />
    <glyph glyph-name="application_window" unicode="application_window" 
d="M448 427q18 0 30.5 -12.5t12.5 -30.5v-43h-470v43q0 18 12.5 30.5t30.5 12.5h384zM85 363q9 0 15.5 6t6.5 15t-6.5 15t-15 6t-15 -6t-6.5 -15q0 -6 3 -11t8 -7.5t10 -2.5zM149.5 363q8.5 0 15 6t6.5 15t-6.5 15t-15 6t-15 -6t-6.5 -15t6.5 -15t15 -6zM491 235v-214
q0 -17 -12.5 -29.5t-30.5 -12.5h-384q-18 0 -30.5 12.5t-12.5 29.5v299h470v-85z" />
    <glyph glyph-name="augmented_reality" unicode="augmented_reality" 
d="M245 377l-160 -92v-186l160 -92l160 92v186zM245 427l203 -118v-234l-203 -118l-202 118v234zM245.5 341q4.5 0 7.5 -3t3 -7.5t-3 -7.5t-7.5 -3t-7.5 3t-3 7.5t3 7.5t7.5 3zM245.5 267q4.5 0 7.5 -3.5t3 -7.5t-3 -7.5t-7.5 -3.5t-7.5 3.5t-3 7.5t3 7.5t7.5 3.5z
M245.5 192q4.5 0 7.5 -3t3 -7.5t-3 -7.5t-7.5 -3t-7.5 3t-3 7.5t3 7.5t7.5 3zM171 171q6 0 9 -5q1 -3 1 -6q0 -4 -3 -7.5t-7.5 -3.5t-7.5 3.5t-3 7.5t3 7.5t8 3.5zM117 128q6 0 9 -5q2 -3 2 -6q0 -4 -3 -7t-7.5 -3t-7.5 3t-3 7q0 3 1.5 5.5t3.5 4t5 1.5zM320 171q3 0 6 -2
q5 -3 5 -9q0 -4 -3.5 -7.5t-7.5 -3.5q-3 0 -5.5 1.5t-4 4t-1.5 5.5q0 4 3.5 7.5t7.5 3.5zM374 128q3 0 6 -2q5 -3 5 -9q0 -4 -3.5 -7t-7.5 -3t-7.5 3t-3.5 7.5t3.5 7.5t7.5 3zM72 315l150 -86l-21 -37l-150 86zM267 85v-110h-43v110h43z" />
    <glyph glyph-name="autoinstallation" unicode="autoinstallation" 
d="M222 96l67 -66q-27 -8 -54 -8q-80 0 -136 56t-56 136t56 136t136 56q75 0 131.5 -53.5t60.5 -128.5h-95v-128h-110zM182 214q0 -22 15.5 -37.5t37.5 -15.5t37.5 15.5t15.5 37.5t-15.5 37.5t-37.5 15.5t-37.5 -15.5t-15.5 -37.5zM470 64l-85 -85l-85 85h64v128h42v-128h64
z" />
    <glyph glyph-name="background_tasks" unicode="background_tasks" 
d="M128 352v32h192v-32h-192zM64 288v32h32v-32h-32zM64 352v32h32v-32h-32zM64 224v32h32v-32h-32zM96 192v-32h-53q-18 0 -30.5 12.5t-12.5 30.5v202q0 18 12.5 30.5t30.5 12.5h298q18 0 30.5 -12.5t12.5 -30.5v-85h-32v96h-320v-224h64zM469 288q18 0 30.5 -12.5
t12.5 -30.5v-202q0 -18 -12.5 -30.5t-30.5 -12.5h-117v-32h32v-32h-128v31h33v33h-118q-18 0 -30.5 12.5t-12.5 30.5v202q0 18 12.5 30.5t30.5 12.5h298zM480 32v224h-320v-224h320z" />
    <glyph glyph-name="big_data" unicode="big_data" 
d="M490 277q6 -7 11 -18.5t8 -23.5t3 -22q0 -36 -25 -66.5t-60 -37.5v168h-342v-163q-35 13 -60 48t-25 72.5t25 72.5t60 48q14 5 29 7q19 35 60.5 60.5t81.5 25.5q54 0 100 -38t57 -91q19 -2 42 -14t35 -28zM384 -21q0 -12 -17 -22t-46.5 -15.5t-64.5 -5.5
q-53 0 -90.5 12.5t-37.5 30.5v42q0 -17 37.5 -29.5t90.5 -12.5t90.5 12.5t37.5 29.5v-42zM256 92q53 0 90.5 12.5t37.5 30.5v-85q0 -18 -37.5 -30.5t-90.5 -12.5t-90.5 12.5t-37.5 30.5v85q0 -18 37.5 -30.5t90.5 -12.5zM384 192q0 12 -17 21.5t-46.5 15.5t-64.5 6
q-53 0 -90.5 -12.5t-37.5 -30.5v-28q0 -18 37.5 -30.5t90.5 -12.5t90.5 12.5t37.5 30.5v28z" />
    <glyph glyph-name="blockchain" unicode="blockchain" 
d="M256 277l64 -37v-75l-64 -37l-64 37v75zM288 234l-32 19l-33 -19l33 -19zM213 215v-37l32 -19v38zM266 158l33 20v37l-33 -19v-38zM64 448l64 -37v-75l-64 -37l-64 37v75zM96 404l-32 19l-33 -19l33 -19zM21 386v-38l32 -18v37zM74 329l33 19v38l-33 -19v-38zM64 85
l64 -37v-75l-64 -37l-64 37v75zM96 42l-32 19l-33 -19l33 -19zM21 23v-37l32 -19v38zM74 -34l33 20v37l-33 -19v-38zM448 448l64 -37v-75l-64 -37l-64 37v75zM480 404l-32 19l-33 -19l33 -19zM405 386v-38l32 -18v37zM458 329l33 19v38l-33 -19v-38zM448 85l64 -37v-75
l-64 -37l-64 37v75zM480 42l-32 19l-33 -19l33 -19zM405 23v-37l32 -19v38zM458 -34l33 20v37l-33 -19v-38zM192 363v21h128v-21h-128zM192 0v21h128v-21h-128zM53 256h22v-128h-22v128zM171 275l-15 -15l-46 45l15 15zM356 256l-15 15l46 45l15 -15zM158 146l15 -15
l-45 -46l-15 15zM345 132l15 15l45 -46l-15 -15zM437 256h22v-128h-22v128z" />
    <glyph glyph-name="bootstrapping" unicode="bootstrapping" 
d="M64 -64v43h384v-43h-384zM256 192q52 0 91 -10.5t59 -27.5t32.5 -37.5t14.5 -41t1.5 -37.5t-3.5 -28l-3 -10h-384q-1 4 -3 11t-3.5 27t1 38t14.5 40t32.5 38t59.5 27t91 11zM64 448h384l-21 -278q-40 54 -171 54q-70 0 -110 -13.5t-61 -39.5zM149 384v-43h214v43h-214z
M384 256v43h-256v-43h256z" />
    <glyph glyph-name="branch" unicode="branch" 
d="M448 341q0 -18 -12.5 -36t-30.5 -24v-68q0 -17 -12.5 -29.5t-29.5 -12.5h-214v-68q18 -6 30.5 -24t12.5 -37q0 -26 -19 -45t-45 -19t-45 19t-19 45q0 19 12.5 37t30.5 24v178q-18 6 -30.5 24t-12.5 37q0 26 19 45t45 19t45 -19t19 -45q0 -13 -5.5 -25.5t-15.5 -22
t-22 -13.5v-68h214v68q-18 6 -30.5 24t-12.5 37q0 26 19 45t45 19t45 -19t19 -45v-1z" />
    <glyph glyph-name="cleanup" unicode="cleanup" 
d="M427 128v-43h-342v43h107q0 17 12.5 29.5t29.5 12.5h1l87 236l37 -14l-82 -222h1q17 0 29.5 -12.5t12.5 -29.5h107zM427 64l42 -85h-42h-342h-42l42 85h342z" />
    <glyph glyph-name="cloud_computing" unicode="cloud_computing" 
d="M128 235h256v-107h-256v107zM277 171v21h-128v-21h128zM309.5 171q4.5 0 7.5 3t3 7.5t-3 7.5t-7.5 3t-7.5 -3t-3 -7.5t3 -7.5t7.5 -3zM352 171q4 0 7.5 3t3.5 7q0 3 -1 4.5t-2.5 3t-3.5 2.5t-4 1q-4 0 -7.5 -3t-3.5 -7.5t3.5 -7.5t7.5 -3zM128 85h256v-106h-256v106z
M277 21v22h-128v-22h128zM309.5 21q4.5 0 7.5 3.5t3 7.5q0 2 -1 4t-2.5 3.5t-3 2.5t-4.5 1q-4 0 -7 -3.5t-3 -7.5t3 -7.5t7.5 -3.5zM352 21q4 0 7.5 3.5t3.5 7.5t-3.5 7.5t-7.5 3.5t-7.5 -3.5t-3.5 -7.5t3.5 -7.5t7.5 -3.5zM490 277q6 -7 11 -18.5t8 -23.5t3 -22
q0 -36 -25 -66.5t-60 -37.5v168h-342v-163q-35 13 -60 48t-25 72.5t25 72.5t60 48q14 5 29 7q19 35 60.5 60.5t81.5 25.5q54 0 100 -38t57 -91q19 -2 42 -14t35 -28z" />
    <glyph glyph-name="cloud_controller_manager" unicode="cloud_controller_manager" 
d="M192 235h171v-43h-171v43zM512 235v-43h-64v-43h-43v128h43v-42h64zM192 21h171v-42h-171v42zM512 21v-42h-64v-43h-43v128h43v-43h64zM512 85h-171v43h171v-43zM192 85v43h64v43h43v-128h-43v42h-64zM405 320h-256v-213h-5t-13.5 1t-20 2.5t-23 6t-25 10.5t-23.5 16
t-20.5 22.5t-13.5 30.5t-5 39v6q0 19 7.5 42t18.5 37q16 18 44 30t51 12q5 12 13 22l5 7q2 2 5 6l6 6q18 19 49 32t57 13h11q18 -2 41.5 -10.5t38.5 -19.5q10 -8 20 -17q8 -10 16.5 -24t14 -29t7.5 -28z" />
    <glyph glyph-name="cluster" unicode="cluster" 
d="M21 171h470v-214h-470v214zM277 43v42h-192v-42h192zM341.5 43q8.5 0 15 6t6.5 15t-6.5 15t-15 6t-15 -6t-6.5 -15t6.5 -15t15 -6zM405.5 43q8.5 0 15 6t6.5 15t-6.5 15t-15 6t-15 -6t-6.5 -15t6.5 -15t15 -6zM21 427h470v-214h-470v214zM277 299v42h-192v-42h192z
M341.5 299q8.5 0 15 6t6.5 15t-6.5 15t-15 6t-15 -6t-6.5 -15t6.5 -15t15 -6zM405.5 299q8.5 0 15 6t6.5 15t-6.5 15t-15 6t-15 -6t-6.5 -15t6.5 -15t15 -6z" />
    <glyph glyph-name="cluster_management" unicode="cluster_management" 
d="M21 427h470v-214h-470v214zM277 299v42h-192v-42h192zM341.5 299q8.5 0 15 6t6.5 15t-6.5 15t-15 6t-15 -6t-6.5 -15t6.5 -15t15 -6zM405.5 299q8.5 0 15 6t6.5 15t-6.5 15t-15 6t-15 -6t-6.5 -15t6.5 -15t15 -6zM484 56q1 -7 1 -13.5t-1 -13.5l24 -21l-21 -37l-31 10
q-10 -8 -23 -13l-6 -32h-43l-6 32q-13 5 -23 14l-31 -11l-22 37l25 21q-2 7 -2 14t2 13l-25 22l22 37l31 -11q10 9 23 14l6 31h43l6 -32q13 -4 23 -13l31 10l21 -37zM405.5 0q17.5 0 30 12.5t12.5 30t-12.5 30t-30 12.5t-30 -12.5t-12.5 -30t12.5 -30t30 -12.5zM256 43
q0 -20 8 -45t19 -41h-262v214h308q-21 -13 -40.5 -38t-26.5 -48h-177v-42h171z" />
    <glyph glyph-name="cluster_role" unicode="cluster_role" 
d="M405 363q9 0 17 -3.5t13.5 -9.5t9 -13.5t3.5 -16.5v-299q0 -17 -12.5 -29.5t-30.5 -12.5h-298q-12 0 -22 5.5t-15.5 15.5t-5.5 21v299q0 12 5.5 21.5t15.5 15.5t22 6h89q6 17 23.5 29.5t36.5 12.5t36.5 -12.5t23.5 -29.5h89zM256 363q-9 0 -15 -6.5t-6 -15t6 -15t15 -6.5
t15 6.5t6 15t-6 15t-15 6.5zM405 43v85h-298v-85h298zM405 171v85h-298v-85h298zM341 213q0 9 6.5 15.5t15.5 6.5t15 -6.5t6 -15.5t-6 -15t-15 -6q-6 0 -11 3t-8 8t-3 10zM277 213q0 9 6.5 15.5t15.5 6.5t15 -6.5t6 -15.5t-6 -15t-15 -6q-6 0 -11 3t-8 8t-3 10zM277 85
q0 9 6.5 15.5t15.5 6.5t15 -6.5t6 -15.5t-6 -15t-15 -6t-15.5 6t-6.5 15zM341 85q0 9 6.5 15.5t15.5 6.5t15 -6.5t6 -15.5t-6 -15t-15 -6t-15.5 6t-6.5 15zM128 192v43h107v-43h-107zM128 64v43h107v-43h-107z" />
    <glyph glyph-name="cluster_role_binding" unicode="cluster_role_binding" 
d="M107 235h106v-43h-106v43zM182 -21h-97q-17 0 -29.5 12.5t-12.5 29.5v299q0 18 12.5 30.5t29.5 12.5h90q6 17 23.5 29.5t36 12.5t36.5 -12.5t24 -29.5h89q18 0 30.5 -12.5t12.5 -30.5v-130q-11 2 -22 2h-21v64h-299v-85h122q-25 -17 -40 -43h-82v-85h66q6 -37 31 -64z
M213 341q0 -8 6.5 -14.5t15 -6.5t15 6.5t6.5 15t-6.5 15t-14.5 6.5q-3 0 -6 -1t-5 -2.5t-4 -3.5t-3.5 -4t-2.5 -5t-1 -6zM363 213.5q0 -8.5 -6.5 -15t-15 -6.5t-15 6.5t-6.5 15t6.5 15t15 6.5t15 -6.5t6.5 -15zM107 64v43h50q-8 -21 -8 -43h-42zM299 213.5q0 -8.5 -6.5 -15
t-15 -6.5t-15 6.5t-6.5 15t6.5 15t15 6.5t15 -6.5t6.5 -15zM320 21v-42h-43q-35 0 -60 25t-25 60t25 60t60 25h43v-42h-43q-17 0 -29.5 -12.5t-12.5 -30.5t12.5 -30.5t29.5 -12.5h43zM491 64q0 -35 -25 -60t-61 -25h-42v42h42q18 0 30.5 12.5t12.5 30.5t-12.5 30.5
t-30.5 12.5h-42v42h42q24 0 43.5 -11.5t31 -31t11.5 -42.5zM384 43h-85v42h85v-42z" />
    <glyph glyph-name="code_deploy" unicode="code_deploy" 
d="M468 256h-5l-89 -128l-18 12l81 116h-50q0 11 -8 19t-19 8q-7 0 -13 -3.5t-10 -10t-4 -13.5h-9l-26 -85l-21 6l25 79h-19q0 11 -8 19t-19 8t-19 -8t-8 -19h-19l25 -79l-21 -6l-26 85h-9q0 11 -8 19t-19 8t-19 -8t-8 -19h-50l80 -116l-17 -12l-89 128h-5q8 79 70 135.5
t142 56.5q52 0 99 -25.5t77.5 -70t35.5 -96.5zM235 119l-78 -76l78 -77l-30 -30l-108 107l30 30l78 76zM278 -34l77 77l-77 76l30 30l107 -106l-30 -30l-77 -77z" />
    <glyph glyph-name="collocation" unicode="collocation" 
d="M427 405q17 0 29.5 -12.5t12.5 -29.5v-342q0 -17 -12.5 -29.5t-29.5 -12.5h-342q-17 0 -29.5 12.5t-12.5 29.5v342q0 17 12.5 29.5t29.5 12.5h342zM427 21v342h-342v-342h342zM160 64h1q-22 0 -37.5 15.5t-15.5 37.5t15.5 38t37.5 16l51 87q-9 14 -9 30q0 22 15.5 37.5
t37.5 15.5t38 -15.5t16 -37.5q0 -16 -10 -30l52 -87h1q22 0 37.5 -16t15.5 -38t-15.5 -37.5t-37.5 -15.5q-12 0 -23 5.5t-19 15.5t-10 22h-88q-3 -18 -18.5 -30.5t-33.5 -12.5h-1zM228 243l-44 -78q10 -4 18.5 -15t10.5 -22h87q2 11 10.5 22t18.5 15l-44 78q-13 -8 -28.5 -8
t-28.5 8z" />
    <glyph glyph-name="commit" unicode="commit" 
d="M469 213v-42h-131q-4 -18 -16.5 -32.5t-30 -23t-35.5 -8.5q-27 0 -51.5 18.5t-30.5 45.5h-131v42h131q6 27 30.5 45.5t51.5 18.5t51.5 -18.5t30.5 -45.5h131z" />
    <glyph glyph-name="compare_states" unicode="compare_states" 
d="M448 103q18 -6 30.5 -24t12.5 -37q0 -26 -19 -45t-45.5 -19t-45 19t-18.5 45q0 13 5.5 25.5t15.5 22t21 13.5v217h-110l34 -34l-30 -30l-55 55l-31 30l31 31l55 55l30 -31l-34 -33h110q9 0 17 -3.5t13.5 -9.5t9 -13.5t3.5 -16.5v-217zM268 73l31 -30l-31 -31l-55 -55
l-30 31l34 33h-110q-18 0 -30.5 12.5t-12.5 30.5v217q-18 6 -30.5 24t-12.5 37q0 26 19 45t45.5 19t45 -19t18.5 -45q0 -19 -12.5 -37t-29.5 -24v-217h110l-34 34l30 30z" />
    <glyph glyph-name="config_map" unicode="config_map" 
d="M231 163q2 -1 2 -4q0 -1 -1 -2l-21 -37q-2 -3 -5 -3h-2l-26 11q-9 -6 -18 -10l-4 -29q-1 -4 -6 -4h-42h-1q-4 0 -5 4l-4 29q-10 3 -18 10l-26 -11h-2q-3 0 -5 3l-21 37q-1 1 -1 2q0 3 2 4l23 18q-1 5 -1 10.5t1 10.5l-23 18q-2 1 -2 4q0 1 1 3l21 36q2 3 5 3h2l26 -11
q8 6 18 11l4 28q1 4 6 4h42q5 0 5 -4l4 -28q10 -4 19 -11l26 11h2q3 0 5 -3l21 -36q1 -2 1 -3q0 -3 -2 -4l-23 -18q1 -5 1 -10q0 -6 -1 -11zM129 160v0q13 0 22.5 9t9.5 22.5t-9.5 23t-22.5 9.5t-22.5 -9.5t-9.5 -23t9.5 -22.5t22.5 -9zM427 448l64 -64v-128
q0 -9 -6.5 -15.5t-15.5 -6.5h-128q-6 0 -10.5 3t-7.5 8t-3 11v85h-170v-21h-43v64h213v42q0 9 6 15.5t15 6.5h86zM416 373h59l-59 59v-59zM427 149l64 -64v-128q0 -9 -6.5 -15t-15.5 -6h-128q-9 0 -15 6t-6 15v43h-213v64h43v-22h170v86q0 9 6.5 15t14.5 6h86zM416 74h59
l-59 59v-59z" />
    <glyph glyph-name="configuration_file" unicode="configuration_file" 
d="M224 146q12 0 20.5 -8.5t8.5 -20t-8.5 -20t-20.5 -8.5t-20.5 8.5t-8.5 20t8.5 20t20.5 8.5zM299 405l128 -128v-256q0 -17 -12.5 -29.5t-30.5 -13.5h-256q-18 1 -30.5 13t-12.5 30l1 341v1q0 17 12 29.5t30 12.5h171zM317 86q1 1 1 2q0 3 -2 4l-21 16q1 5 1 10t-1 9
l21 16q1 1 1 4v2l-19 33q-2 3 -5 3l-1 -1l-24 -9q-8 6 -16 9l-4 25q-1 5 -5 5h-38q-4 -1 -5 -5l-3 -25q-9 -4 -17 -9l-24 9q0 1 -1 1q-3 0 -5 -3l-19 -33v-2q0 -3 1 -4l21 -16q-1 -5 -1 -9.5t1 -9.5l-21 -16q-1 -1 -1 -4v-2l19 -33q2 -3 5 -3q1 0 1 1l24 9q8 -6 17 -9l3 -25
q1 -4 5 -4h38q4 0 5 4l4 25q8 4 16 9l24 -9q1 -1 2 -1q2 0 4 3zM277 256h118l-118 117v-117z" />
    <glyph glyph-name="constraint" unicode="constraint" 
d="M448 128q8 -1 14.5 -7t6.5 -14v-86q0 -8 -6.5 -14t-14.5 -7h-107q-8 1 -14 7t-7 14v86q1 8 7 14t14 7v32q0 22 16 37.5t38 15.5t37.5 -15.5t15.5 -37.5v-32zM427 128v32q0 13 -9.5 22.5t-23 9.5t-22.5 -9.5t-9 -22.5v-32h64zM469 341h-426v43h426v-43zM469 256h-426v43
h426v-43zM277 171h-234v42h234v-42zM277 85h-234v43h234v-43zM277 0h-234v43h234v-43z" />
    <glyph glyph-name="container" unicode="container" 
d="M213 341q1 -21 17 -33l-113 -73h-32q-11 0 -21 -5.5t-15.5 -15.5t-5.5 -22v-171q0 -17 12.5 -29.5t29.5 -12.5h342q17 0 29.5 12.5t12.5 29.5v171q0 18 -12.5 30.5t-29.5 12.5h-32l-113 73q16 13 17 33q0 10 -6.5 21t-15.5 16v27h-21v-42q9 0 15 -6.5t6 -15t-6 -15
t-15 -6.5t-15 6.5t-28 14.5zM256 299v0l100 -64h-199zM149 64q0 -9 -6 -15t-15 -6t-15 6t-6 15v85q0 9 6 15.5t15 6.5t15 -6.5t6 -15.5v-85zM235 64q0 -6 -3 -11t-8 -7.5t-11 -2.5q-8 0 -14.5 6t-6.5 15v85q0 9 6.5 15.5t15 6.5t15 -6.5t6.5 -15.5v-85zM320 64
q0 -9 -6.5 -15t-15 -6t-15 6t-6.5 15v85q0 9 6.5 15.5t15.5 6.5q5 0 10 -3t8 -8t3 -11v-85zM405 64q0 -9 -6 -15t-15 -6t-15 6t-6 15v85q0 9 6 15.5t15 6.5t15 -6.5t6 -15.5v-85z" />
    <glyph glyph-name="content_deleted" unicode="content_deleted" 
d="M405 43v85h43v-85q0 -18 -12.5 -30.5t-30.5 -12.5h-298q-18 0 -30.5 12.5t-12.5 30.5v298q0 18 12.5 30.5t30.5 12.5h128v-43h-128v-298h298zM320 341h128v-128q0 -8 -6.5 -14.5t-14.5 -6.5h-86q-8 0 -14.5 6.5t-6.5 14.5v128zM469 384v-21h-170v21h42l13 21h60l13 -21
h42z" />
    <glyph glyph-name="content_lifecycle_management" unicode="content_lifecycle_management" 
d="M128 256v43h171v-43h-171zM128 171v42h256v-42h-256zM128 85v43h64v-43h-64zM299 384l-64 -64v43h-150v-342h86v-42h-86q-17 0 -29.5 12.5t-12.5 29.5v342q0 17 12.5 29.5t29.5 12.5h150v43zM213 0l64 64v-43h150v342h-86v42h86q17 0 29.5 -12.5t12.5 -29.5v-342
q0 -17 -12.5 -29.5t-29.5 -12.5h-150v-43z" />
    <glyph glyph-name="content_modified" unicode="content_modified" 
d="M460 371q9 -9 9 -22.5t-9 -22.5l-113 -113h-70v70l113 113q9 9 22.5 9t22.5 -9zM332 246l74 74l-22 22l-74 -74v-22h22zM405 43v128h43v-128q0 -18 -12.5 -30.5t-30.5 -12.5h-298q-18 0 -30.5 12.5t-12.5 30.5v298q0 18 12.5 30.5t30.5 12.5h128v-43h-128v-298h298z" />
    <glyph glyph-name="content_new" unicode="content_new" 
d="M469 341v-42h-64v-64h-42v64h-64v42h64v64h42v-64h64zM405 43v128h43v-128q0 -18 -12.5 -30.5t-30.5 -12.5h-298q-18 0 -30.5 12.5t-12.5 30.5v298q0 18 12.5 30.5t30.5 12.5h128v-43h-128v-298h298z" />
    <glyph glyph-name="counting" unicode="counting" 
d="M43 -21v426h42v-426h-42zM43 363h426v-43h-426v43zM427 -21v426h42v-426h-42zM128 341q0 18 12.5 30.5t30 12.5t30 -12.5t12.5 -30t-12.5 -30t-29.5 -12.5q-9 0 -17 3t-13.5 9t-9 14t-3.5 16zM43 235h426v-43h-426v43zM171 213.5q0 17.5 12.5 30t30 12.5t30 -12.5
t12.5 -30t-12.5 -30t-30 -12.5t-30 12.5t-12.5 30zM299 213.5q0 17.5 12.5 30t30 12.5t30 -12.5t12.5 -30t-12.5 -30t-30 -12.5t-30 12.5t-12.5 30zM43 107h426v-43h-426v43zM0 0h512v-43h-512v43zM128 85q0 18 12.5 30.5t30 12.5t30 -12.5t12.5 -30t-12.5 -30t-29.5 -12.5
q-7 0 -13.5 2t-12 6t-9.5 9t-6 11.5t-2 13.5z" />
    <glyph glyph-name="critical_bug" unicode="critical_bug" 
d="M427 277v-42h-45q2 -11 2 -22v-21h43v-43h-43v-21q0 -11 -2 -21h45v-43h-60q-15 -26 -47.5 -45t-63 -19t-63 19t-48.5 45h-60v43h45q-2 10 -2 21v21h-43v43h43v21q0 11 2 22h-45v42h60q15 26 39 43l-35 34l31 30l46 -46q15 3 30 3v0q16 0 31 -3l46 46l30 -30l-35 -34
q24 -17 39 -43h60zM277 64v43h-42v-43h42zM277 149v128h-42v-128h42z" />
    <glyph glyph-name="cronjob" unicode="cronjob" 
d="M214 384v42h128v-42h-128zM428 290q17 -22 29.5 -57t12.5 -63q0 -79 -56.5 -135.5t-136 -56.5t-135.5 56.5t-56 135.5h-64l85 86l85 -86h-64q0 -62 44 -105.5t106 -43.5q25 0 56 13t49 31l-105 106v149q-20 -1 -45.5 -9t-41.5 -19l-30 31q21 16 55 27.5t61 11.5
q28 0 63.5 -12t56.5 -30l31 31l30 -30z" />
    <glyph glyph-name="csv_file" unicode="csv_file" 
d="M340 20l44 1v-43h-299q-17 0 -29.5 12.5t-12.5 30.5v341q0 18 12.5 30.5t30.5 12.5h170l43 -42l41 -42l44 -44v-42h-44v21h-106v107h-149v-343h255zM454 64h-32l-38 128h32l22 -73l21 73h32zM214 192q8 0 14.5 -6.5t6.5 -15.5v-21h-32v11h-43v-64h43v10h32v-21
q0 -9 -6.5 -15t-14.5 -6h-64q-6 0 -11 2.5t-8 7.5t-3 11v85q0 9 6.5 15.5t15.5 6.5h64zM363 160h-75v-16h54q8 0 14.5 -6.5t6.5 -15.5v-37q0 -9 -6.5 -15t-14.5 -6h-86v32h75v16h-53q-9 0 -15.5 6t-6.5 15v37q0 9 6.5 15.5t15.5 6.5h85v-32z" />
    <glyph glyph-name="daemon" unicode="daemon" 
d="M432 248q16 -37 16 -77q0 -80 -56.5 -136t-136 -56t-135.5 56t-56 136q0 40 16 77q-2 5 -4.5 9.5t-4.5 9.5q-7 18 -7 38q0 30 20.5 59.5t48.5 40.5h1q-13 -21 -16 -45q-1 -7 -1 -13q0 -19 6 -37h1q26 25 59 39q35 14 73 14t73 -14q33 -14 59 -39v0q8 18 8 38q0 31 -17 57
h1q11 -4 23 -13t21.5 -20.5t14.5 -22.5q9 -21 9 -44q0 -20 -7 -38q-2 -5 -4.5 -9.5t-4.5 -9.5zM330.5 256q-13.5 0 -22.5 -9t-9 -22.5t9 -23t22.5 -9.5t23 9.5t9.5 23t-9.5 22.5t-23 9zM181 256v0q-13 0 -22.5 -9t-9.5 -22.5t9.5 -23t23 -9.5t22.5 9.5t9 23t-9 22.5t-23 9z
M256 53q37 0 67 21q12 8 24.5 24t17.5 30h-218q5 -14 17.5 -30t24.5 -24q30 -21 67 -21z" />
    <glyph glyph-name="daemon_set" unicode="daemon_set" 
d="M64 -21q-18 0 -30.5 12.5t-12.5 29.5v299h43v-299h341v-42h-341zM343 235q-3 0 -7 1q-12 5 -12 18q0 8 5.5 13.5t13.5 5.5t14 -5.5t6 -13.5t-6 -13.5t-14 -5.5zM233 196h131q-8 -20 -25 -32q-18 -13 -40 -13t-40 13q-18 12 -26 32zM254 235q-4 0 -8 1q-11 5 -11 18
q0 8 5.5 13.5t13.5 5.5t13.5 -5.5t5.5 -13.5t-5.5 -13.5t-13.5 -5.5zM491 361v-253q0 -9 -3.5 -17t-9.5 -14t-14 -9.5t-17 -3.5h-296q-19 0 -31.5 13t-12.5 31v253q0 19 12.5 31.5t31.5 12.5h296q18 0 31 -12.5t13 -31.5zM404 268l1.5 3t1.5 2.5t1.5 3t1.5 3.5q4 11 4 23
q0 13 -6 26q-5 11 -14 20t-21 14v0h-1q4 -7 7 -13q3 -11 3 -22q0 -12 -4 -23v0v0q-8 8 -17 14q-28 18 -62 18t-63 -18q-9 -6 -17 -14v0v0q-3 8 -3 15q-1 4 -1 7q0 4 1 8q1 8 3.5 14.5t5.5 13.5v0v0q-12 -5 -21 -14q-19 -18 -20 -44v-3q0 -11 4 -22q0 -2 0.5 -3.5t1.5 -3
t1.5 -2.5l1.5 -3q-2 -5 -4 -11q-6 -17 -6 -35q0 -48 34 -81.5t81.5 -33.5t81.5 33.5t34 81.5q0 18 -6 35q-2 6 -4 11z" />
    <glyph glyph-name="data_mining" unicode="data_mining" 
d="M307 263l-92 53l-19 10l-10 -18l-22 -37l-84 -149l-37 22l84 148l22 37l10 18l-74 43l21 37l74 -43l11 19l37 -21l-11 -19l19 -10q22 -13 43 -39.5t28 -50.5zM213 235h256v-64h-256v64zM448 192v21h-85v-21h85zM213 128h256v-64h-256v64zM448 85v22h-85v-22h85zM213 21
h256v-64h-256v64zM448 -21v21h-85v-21h85z" />
    <glyph glyph-name="data_scientist" unicode="data_scientist" 
d="M448 327q0 11 3.5 18.5t7 10.5t9.5 5t7.5 2h4.5h4.5t7.5 -2t9.5 -5.5t7 -10.5t3.5 -18v-14q0 -11 -3.5 -18.5t-7 -10.5t-9.5 -5t-7.5 -2h-4.5h-4.5t-7.5 2t-9.5 5.5t-7 10.5t-3.5 18v14zM493 330q0 20 -13 19q-13 0 -13 -19v-19q0 -20 13 -20t13 20v19zM448 178
q0 10 3.5 17.5t7 11t9.5 5t7.5 1.5h4.5h3.5t6 -0.5t7.5 -3t7 -6t6 -10t2 -15.5v-15q0 -10 -3.5 -17.5t-7 -10.5t-9.5 -5t-7.5 -2h-4.5h-4.5t-7.5 2t-9.5 5t-7 10.5t-3.5 17.5v15zM493 180q0 20 -13 20t-13 -20v-19q0 -20 13 -20t13 20v19zM448 29q0 10 3.5 17.5t7 10.5
t9.5 5t7.5 2h4.5h4.5t7.5 -2t9.5 -5t7 -10.5t3.5 -17.5v-15q0 -10 -3.5 -17.5t-7 -11t-9.5 -5t-7.5 -1.5h-4.5h-4.5t-7.5 1.5t-9.5 5t-7 11t-3.5 17.5v15zM493 31q0 20 -13 20t-13 -20v-19q0 -20 13 -20t13 20v19zM363 242q0 10 3 17.5t6.5 11t9.5 5t8 1.5h5h4.5t7.5 -1.5
t9.5 -5t7 -11t3.5 -17.5v-15q0 -10 -3.5 -17.5t-7 -10.5t-9.5 -5t-7.5 -2h-4.5h-5t-7.5 2t-9.5 5t-7 10.5t-3 17.5v15zM408 244q0 20 -13 20t-13 -20v-19q0 -20 13 -20t13 20v19zM363 414v-14l21 5v-64h21v86zM363 115v-13l21 5v-64h21v85zM341 0v-64h-341v64
q0 26 31.5 46.5t69.5 29.5t69.5 9t69.5 -9t69.5 -29.5t31.5 -46.5zM85 192q0 35 25 60t60.5 25t60.5 -25t25 -60t-25 -60t-60.5 -25t-60.5 25t-25 60zM382 -54v-10h-19v7q0 9 2 15.5t5.5 10.5t6.5 6t8 2.5t6 1t4 0.5h4.5t7.5 -2t9.5 -5.5t7 -10.5t3.5 -18v-7h-19v10
q0 20 -13 19q-13 0 -13 -19z" />
    <glyph glyph-name="database" unicode="database" 
d="M448 107v-64q0 -27 -56 -45.5t-136 -18.5q-52 0 -96.5 8.5t-70 23t-25.5 32.5v64q0 -27 56 -45.5t136 -18.5t136 18.5t56 45.5zM256 128q80 0 136 18.5t56 45.5v-64q0 -27 -56 -45.5t-136 -18.5t-136 18.5t-56 45.5v64q0 -27 56 -45.5t136 -18.5zM256 405q80 0 136 -18.5
t56 -45.5v-42q0 -27 -56 -45.5t-136 -18.5q-52 0 -96.5 8.5t-70 23t-25.5 32.5v42q0 27 56 45.5t136 18.5zM256 213q52 0 96.5 8.5t70 23.5t25.5 32v-64q0 -26 -56 -45t-136 -19t-136 19t-56 45v64q0 -26 56 -45t136 -19z" />
    <glyph glyph-name="database_migration" unicode="database_migration" 
d="M512 213q0 -16 -34.5 -27.5t-83 -11.5t-83 11.5t-34.5 27.5v39q0 -16 34.5 -27.5t83 -11.5t83 11.5t34.5 27.5v-39zM394.5 317q48.5 0 83 11.5t34.5 27.5v-77q0 -17 -34.5 -28.5t-82.5 -11.5q-32 0 -59 5.5t-43 14.5t-16 20v77q0 -16 34.5 -27.5t83 -11.5zM512 409
q0 11 -15.5 20t-42.5 14t-59 5q-49 0 -83.5 -11.5t-34.5 -27.5v-26q0 -11 16 -20t43 -14t59 -5q48 0 82.5 11.5t34.5 27.5v26zM235 -22q0 -16 -34.5 -27.5t-83 -11.5t-83 11.5t-34.5 27.5v39q0 -10 15.5 -19t42.5 -14.5t59 -5.5q49 0 83.5 11.5t34.5 27.5v-39zM117 82
q24 0 46 3.5t37.5 8.5t25 12.5t9.5 15.5v-78q0 -16 -34.5 -27.5t-83 -11.5t-83 11.5t-34.5 27.5v78q0 -17 34.5 -28.5t82.5 -11.5zM235 174v-26q0 -16 -34.5 -27.5t-83 -11.5t-83 11.5t-34.5 27.5v26q0 16 34.5 27.5t82.5 11.5q24 0 46 -3t37.5 -8t25 -12.5t9.5 -15.5z
M427 0h-43v55l-55 -55l-30 30l55 55h-55v43h128v-128z" />
    <glyph glyph-name="deploy" unicode="deploy" 
d="M512 21v-43h-512v43h86v21q-18 0 -30.5 12.5t-12.5 30.5v213q0 18 12.5 30.5t30.5 12.5h42v-43h-42v-213h341v213h-43v43h43q17 0 29.5 -12.5t13.5 -30.5l-1 -213q0 -18 -12.5 -30.5t-29.5 -12.5v-21h85zM320 149h-42v-43h-43v43h-43l64 64zM341 319.5q0 -35.5 -25 -60.5
t-60 -25t-60 25t-25 60.5t25 60.5t60 25t60 -25t25 -60.5zM248 256v12q-7 0 -12 5t-5 12v9l-38 37q-1 -6 -1 -12q0 -23 16.5 -41.5t39.5 -21.5zM304 278q16 18 16 42q0 17 -11.5 34t-27.5 24q0 -6 -5 -11t-11 -5h-17v-17q0 -8 -9 -8h-17v-18h51q9 0 9 -8v-26h8q9 0 14 -7z
" />
    <glyph glyph-name="diff_modified" unicode="diff_modified" 
d="M410 384q15 0 26.5 -11.5t11.5 -26.5v-308q0 -15 -11.5 -26.5t-26.5 -11.5h-308q-15 0 -26.5 11.5t-11.5 26.5v308q0 15 11.5 26.5t26.5 11.5h308zM256 107q35 0 60 25t25 60t-25 60t-60 25t-60 -25t-25 -60t25 -60t60 -25z" />
    <glyph glyph-name="dns" unicode="dns" 
d="M96 11v64h43v-64h-43zM448 149q12 0 21.5 -5.5t15.5 -15.5t6 -21v-128q0 -18 -12.5 -30.5t-30.5 -12.5h-384q-18 0 -30.5 12.5t-12.5 30.5v128q0 17 12.5 29.5t30.5 12.5h384zM171 11v64q0 13 -9.5 22.5t-22.5 9.5h-75v-128h75q13 0 22.5 9t9.5 22v1zM309 -21v128h-26
v-75l-54 75h-26v-128h26v74l55 -74h25zM448 74v33h-85q-9 0 -15.5 -6.5t-6.5 -15.5v-37q0 -9 6.5 -15.5t15.5 -6.5h53v-15h-75v-32h86q8 0 14.5 6t6.5 15v37q0 9 -6.5 15t-14.5 6h-54v16h75zM91 192h-44q-4 21 -4 43q0 88 62.5 150.5t150.5 62.5t150.5 -62.5t62.5 -150.5
q0 -22 -4 -43h-44q6 21 6 43q0 21 -6 42h-72q3 -21 3 -42q0 -22 -3 -43h-43q3 21 3 43q0 21 -3 42h-100q-3 -21 -3 -42q0 -22 3 -43h-43q-3 21 -3 43q0 21 3 42h-72q-6 -21 -6 -42q0 -22 6 -43zM404 320q-14 23 -41 45t-52 31q20 -36 30 -76h63zM256 404q-27 -39 -41 -84h82
q-14 45 -41 84zM201 396q-17 -6 -35 -18t-33.5 -27.5t-24.5 -30.5h63q10 40 30 76z" />
    <glyph glyph-name="drone" unicode="drone" 
d="M512 277h-64v-21h21v-107h-64v22h-66l-5 -9q38 -19 65.5 -63.5t27.5 -87.5q0 -5 -3.5 -8t-7.5 -3t-7.5 3t-3.5 8q0 38 -24 77t-58 56l-20 -36h-93l-20 36q-35 -17 -59 -56t-24 -77q0 -5 -3.5 -8t-7.5 -3t-7.5 3t-3.5 8q0 43 27.5 87.5t66.5 64.5l-5 8h-67v-22h-64v107h21
v21h-64v22h149v-22h-64v-21h22v-43h71l32 56h93l32 -56h70v43h22v21h-64v22h149v-22z" />
    <glyph glyph-name="edge_computing" unicode="edge_computing" 
d="M188 214l-39 38v68h-21v85h64v-85h-21v-59l36 -37q23 11 49 11v0q11 0 21 -2v89q-8 3 -14.5 12t-6.5 18q0 13 9.5 22.5t22.5 9.5t22.5 -9.5t9.5 -22.5q0 -9 -6.5 -18t-14.5 -12v-95q29 -11 49 -35h59q3 9 12 15t18 6q14 0 23 -9t9 -22.5t-9 -23t-23 -9.5q-9 0 -18 6.5
t-12 15.5h-45q8 -16 12 -33q30 -2 52 -25.5t22 -54.5q0 -33 -23.5 -56t-56.5 -23h-208q-40 0 -68 28t-28 68q0 21 12.5 44.5t30.5 35.5l-40 40q-7 -3 -14 -3q-13 0 -22.5 9.5t-9.5 23t9.5 23t22.5 9.5t22.5 -9.5t9.5 -23.5q0 -7 -3 -14l46 -45q10 4 22 5q13 27 38 44z" />
    <glyph glyph-name="endpoints" unicode="endpoints" 
d="M64 171v43h43v-43h-43zM149 85v43h43v-43h-43zM149 171v43h43v-43h-43zM235 171v43h42v-43h-42zM320 171v43h43v-43h-43zM406 171v43h42v-43h-42zM320 256v42h43v-42h-43zM128 -21v85h85v-85h-85zM299 320v85h85v-85h-85z" />
    <glyph glyph-name="endpoints_connected" unicode="endpoints_connected" 
d="M448 170h-256v-106h21v-85h-85v85h21v106h-85v43h256v107h-21v85h85v-85h-21v-107h85v-43z" />
    <glyph glyph-name="endpoints_disconnected" unicode="endpoints_disconnected" 
d="M51 343l27 27l357 -357l-27 -27l-185 184h-31v-106h21v-85h-85v85h21v106h-85v43h117zM363 213h85v-43h-116l-43 43h31v107h-21v85h85v-85h-21v-107z" />
    <glyph glyph-name="enhancement" unicode="enhancement" 
d="M43 -22v172h85v-172h-85zM192 -22v256h86v-256h-86zM469 320h-42v-342h-86v342h-42l85 85z" />
    <glyph glyph-name="env" unicode="env" 
d="M427 64h42q0 -26 -18.5 -45t-45.5 -19h-85q-18 0 -30.5 -12.5t-12.5 -30.5h-42q0 18 -12.5 30.5t-30.5 12.5h-85q-27 0 -45.5 19t-18.5 45h42q0 -9 6.5 -15t15.5 -6h85q26 0 45 -19t19 -45q0 26 19 45t45 19h85q9 0 15.5 6t6.5 15zM427 320q0 9 -6.5 15t-15.5 6h-85
q-26 0 -45 19t-19 45q0 -26 -19 -45t-45 -19h-85q-9 0 -15.5 -6t-6.5 -15h-42q0 26 18.5 45t45.5 19h85q18 0 30.5 12.5t12.5 30.5h42q0 -9 3.5 -17t9.5 -13.5t13.5 -9t16.5 -3.5h85q27 0 45.5 -19t18.5 -45h-42zM256 192v85h43v-170h-43l-64 85v-85h-43v170h43zM448 277h43
l-64 -170h-43l-64 170h43l42 -112zM21 277h107v-42h-64v-22h43v-42h-43v-22h64v-42h-107v170z" />
    <glyph glyph-name="file_system" unicode="file_system" 
d="M299 171q-9 0 -15.5 6t-6.5 15v21h-106v-149h106v21q0 6 3 11t8 8t11 3h42l22 -22h64q8 0 14.5 -6t6.5 -15v-64q0 -9 -6.5 -15t-14.5 -6h-128q-5 0 -9 1.5t-6.5 4.5t-4.5 7t-2 8v21h-149v278h-43q-8 0 -14.5 6t-6.5 15v85q0 9 6.5 15.5t14.5 6.5h43l21 -22h64
q9 0 15.5 -6t6.5 -15v-64q0 -9 -6.5 -15t-15.5 -6h-42v-43h106v21q0 9 6.5 15.5t15.5 6.5h42l22 -22h64q8 0 14.5 -6t6.5 -15v-64q0 -9 -6.5 -15t-14.5 -6h-128z" />
    <glyph glyph-name="flask" unicode="flask" 
d="M440 54q8 -12 8 -26q0 -13 -6.5 -24.5t-18 -18t-25.5 -6.5h-284q-21 0 -35.5 14.5t-14.5 34.5q0 14 8 26l19 31l101 161v138h-43v43h214v-43h-43v-138l101 -161zM277 384h-42v-149l-94 -150h230l-94 150v149z" />
    <glyph glyph-name="fork" unicode="fork" 
d="M469 341q0 -18 -12.5 -36t-29.5 -24v-68q0 -17 -12.5 -29.5t-30.5 -12.5h-107v-90q18 -6 30.5 -23.5t12.5 -36.5q0 -26 -19 -45t-45 -19t-45 19t-19 45q0 19 12.5 36.5t30.5 23.5v90h-107q-12 0 -21.5 5.5t-15.5 15.5t-6 21v68q-8 3 -16 9.5t-14 14.5t-9 17.5t-3 19.5
q0 26 18.5 45t45 19t45.5 -19t19 -45q0 -13 -6 -25.5t-15.5 -22t-21.5 -13.5v-68h256v68q-18 6 -30.5 24t-12.5 37q0 26 19 45t45.5 19t45 -19t18.5 -45v-1z" />
    <glyph glyph-name="genomic" unicode="genomic" 
d="M328 107q12 -21 22.5 -52t11.5 -55q1 -8 0 -34q0 -5 -2.5 -9.5t-7.5 -7t-10 -2.5h-1q-9 0 -15 6t-6 15v16v16h-149v-8v-16v-8q0 -9 -6.5 -15t-14.5 -6h-1h-1q-8 0 -14 5.5t-6 14.5v29v2q0 24 7.5 55.5t17.5 53.5q13 31 36 58l9 10l29 -32q-11 -13 -12 -15h50
q-15 21 -76 91q-25 29 -43 76.5t-18 86.5v6v29q0 9 6 14.5t14 5.5h1h1q8 0 14.5 -6t6.5 -15v-32h149v16v16q0 9 6 15t15 6h1q5 0 10 -2.5t7.5 -7t2.5 -9.5q1 -26 0 -34q0 -12 -3 -26.5t-7.5 -28.5t-10 -28t-11.5 -24q-21 -36 -47 -68l-28 33q7 9 11 14h-53q4 -4 56 -64
q34 -39 59 -85zM308 341h-133q4 -22 13 -42h104q10 20 16 42zM241 159v-1v1zM175 43h133q-6 22 -16 42h-104q-9 -20 -13 -42z" />
    <glyph glyph-name="hardware_circuit" unicode="hardware_circuit" 
d="M469 448q18 0 30.5 -12.5t12.5 -30.5v-426q0 -18 -12.5 -30.5t-30.5 -12.5h-426q-18 0 -30.5 12.5t-12.5 30.5v426q0 18 12.5 30.5t30.5 12.5h426zM128 107q9 0 15 6t6 15t-6 15t-15 6t-15 -6t-6 -15t6 -15t15 -6zM469 320v85h-213v-213h-43v213h-42v-128h-43v128h-85
v-426h64v89q-18 6 -30.5 24t-12.5 36q0 27 19 45.5t45 18.5t45 -18.5t19 -45.5q0 -18 -12.5 -36t-30.5 -24v-89h107v25q-18 6 -30.5 24t-12.5 36q0 27 19 45.5t45.5 18.5t45 -18.5t18.5 -45.5q0 -18 -12.5 -36t-29.5 -24v-25h170v85h-42v43h42v42h-85v43h85v85h-46
q-6 -17 -24 -29.5t-37 -12.5q-26 0 -45 18.5t-19 45t19 45.5t45 19q19 0 37 -12.5t24 -30.5h46zM384 298.5q0 8.5 -6.5 15t-15 6.5t-15 -6.5t-6.5 -15t6.5 -15t15 -6.5t15 6.5t6.5 15z" />
    <glyph glyph-name="inbound" unicode="inbound" 
d="M427 405q17 0 29.5 -12.5t12.5 -29.5v-214h-42v171l-171 -107l-171 107v-213h171v-43h-171q-17 0 -29.5 12.5t-12.5 30.5v256q0 17 12.5 29.5t29.5 12.5h342zM256 256l171 107h-342zM384 171v-64h85v-43h-85v-64l-85 85z" />
    <glyph glyph-name="infinity" unicode="infinity" 
d="M478 264q14 -14 24 -38.5t10 -44.5q0 -32 -15.5 -59t-43 -42.5t-59.5 -15.5q-20 0 -44.5 10t-38.5 24l-55 55l-55 -55q-9 -9 -23.5 -17t-30.5 -12.5t-29 -4.5q-48 0 -82.5 34.5t-34.5 83t34.5 83t82.5 34.5q20 0 44.5 -10t38.5 -25l55 -53l55 53q14 15 38.5 25t44.5 10h1
q13 0 29 -5t30 -12.5t24 -17.5zM171 128l53 53l-53 53q-9 9 -24.5 15.5t-28.5 6.5q-31 0 -53 -22t-22 -53q0 -13 6.5 -28.5t15.5 -24.5t24.5 -15.5t28.5 -6.5t28.5 6.5t24.5 15.5zM447 128q9 9 15.5 24.5t6.5 28.5t-6.5 28.5t-15.5 24.5q-6 6 -15 11t-19 8t-19 3
q-13 0 -28.5 -6.5t-24.5 -15.5l-53 -53l53 -53q9 -9 24.5 -15.5t28.5 -6.5t28.5 6.5t24.5 15.5z" />
    <glyph glyph-name="ingress" unicode="ingress" 
d="M299 -64h-86v85h86v-85zM341 234h-64v-170h-42v170h-64l21 22l21 21l22 21l21 22l21 -22l22 -21l21 -21zM21 107v277q0 9 4 17q6 15 22 22q8 4 17 4h384q9 0 17 -4q16 -6 22 -22q4 -8 4 -17v-277q0 -9 -4 -17q-6 -16 -22 -23q-8 -3 -17 -3h-128v42h128v278h-384v-278h128
v-42h-128q-9 0 -17 3q-16 7 -22 23q-4 8 -4 17z" />
    <glyph glyph-name="init_container" unicode="init_container" 
d="M510 15q2 -2 2 -5q0 -1 -1 -2l-21 -37q-1 -3 -5 -3h-1l-27 11q-8 -6 -18 -10l-4 -28q-1 -5 -5 -5h-43q-5 0 -5 5l-4 28q-10 4 -19 10l-26 -11h-2q-3 0 -5 3l-21 37q-1 1 -1 2q0 3 2 5l23 17q-1 5 -1 10.5t1 10.5l-23 18q-2 1 -2 4q0 1 1 3l21 37q2 2 5 2h2l26 -11
q9 7 19 11l4 28q0 4 5 4h43q4 0 5 -4l4 -28q10 -4 18 -11l26 11h2q3 0 5 -2l21 -37q1 -2 1 -3q0 -2 -2 -4l-23 -18q1 -5 1 -10q0 -6 -1 -11zM408 11v0q14 0 23 9t9 23v0q0 13 -9.5 22.5t-22.5 9.5t-22.5 -9.5t-9.5 -23t9.5 -22.5t22.5 -9zM213 384q1 -21 17 -33l-113 -73
h-32q-17 0 -29.5 -12.5t-12.5 -30.5v-171q0 -18 12.5 -30.5t29.5 -12.5h173q-2 11 -2 22v0q0 45 21 85v64q0 9 6.5 15t15 6t15 -6t6.5 -15v-27q20 14 43 21v6q0 6 2.5 11t7.5 7.5t11 2.5q9 0 15 -6t6 -15q34 0 64 -15v58q0 18 -12.5 30.5t-29.5 12.5h-32l-113 73
q16 12 17 33q0 7 -3 14t-8 13t-10 10v27h-22v-43q9 0 15 -6t6 -15q0 -6 -3 -10.5t-7.5 -7.5t-10.5 -3q-9 0 -15 6t-28 15zM149 107q0 -6 -2.5 -11t-7.5 -8t-11 -3q-9 0 -15 6.5t-6 15.5v85q0 9 6 15t15 6t15 -6t6 -15v-85zM235 107q0 -9 -6.5 -15.5t-15.5 -6.5q-5 0 -10 3
t-8 8t-3 11v85q0 9 6.5 15t14.5 6q6 0 11 -2.5t8 -7.5t3 -11v-85zM256 342l100 -64h-199l99 64v0z" />
    <glyph glyph-name="iot" unicode="iot" 
d="M107 171v-192h-43v192h43zM491 171v-43h-43v-149h-43v149h-42v43h128zM256 213q-19 0 -43 -7t-40 -17l-31 31q21 15 54.5 25.5t59.5 10.5q13 0 29 -3t31 -8t30 -11.5t25 -13.5l-31 -31q-16 10 -40.5 17t-43.5 7zM256 299q-33 0 -75.5 -14.5t-68.5 -33.5l-31 30
q32 25 83.5 42.5t91.5 17.5q41 0 92.5 -17.5t83.5 -42.5l-30 -31q-13 10 -31.5 19t-38 15.5t-40 10.5t-36.5 4zM256 384q-31 0 -69.5 -9.5t-75 -26.5t-60.5 -36l-31 30q43 35 112 60t124.5 25t124.5 -25t112 -60l-30 -31q-38 30 -98.5 51.5t-108.5 21.5zM256 171
q40 0 68 -28.5t28 -68t-28 -67.5t-68 -28t-68 28t-28 67.5t28 68t68 28.5zM256 21q22 0 37.5 16t15.5 38t-15.5 37.5t-37.5 15.5t-37.5 -15.5t-15.5 -37.5t15.5 -38t37.5 -16z" />
    <glyph glyph-name="ip" unicode="ip" 
d="M91 192h-44q-4 21 -4 43q0 88 62.5 150.5t150.5 62.5t150.5 -62.5t62.5 -150.5q0 -22 -4 -43h-44q6 21 6 43q0 21 -6 42h-72q3 -21 3 -42q0 -22 -3 -43h-43q3 21 3 43q0 21 -3 42h-100q-3 -21 -3 -42q0 -22 3 -43h-43q-3 21 -3 43q0 21 3 42h-72q-6 -21 -6 -42
q0 -22 6 -43zM404 320q-14 23 -41 45t-52 31q20 -36 30 -76h63zM256 404q-27 -39 -41 -84h82q-14 45 -41 84zM201 396q-17 -6 -35 -18t-33.5 -27.5t-24.5 -30.5h63q10 40 30 76zM272 53v22h43v-22h-43zM448 149q12 0 21.5 -5.5t15.5 -15.5t6 -21v-128q0 -18 -12.5 -30.5
t-30.5 -12.5h-384q-18 0 -30.5 12.5t-12.5 30.5v128q0 17 12.5 29.5t30.5 12.5h384zM197 -21v128h-32v-128h32zM347 53v22q0 13 -9.5 22.5t-22.5 9.5h-75v-128h32v42h43q13 0 22.5 9.5t9.5 22.5z" />
    <glyph glyph-name="job" unicode="job" 
d="M405 101q6 -3 11 -9.5t8 -13.5t3 -14q0 -18 -12.5 -30.5t-30.5 -12.5t-30.5 12.5t-12.5 30.5q0 10 6.5 21t15.5 16v112l-43 43h-149v-64h64v-85h-64v-64h48q5 8 16 14.5t21 6.5q18 0 30.5 -12.5t12.5 -30t-12.5 -30t-30.5 -12.5q-10 0 -21 6t-16 15h-91v43v64h-64v85h64
v128h-64v85h171v-85h-64v-21h149l64 64l85 -86l-64 -64v-112zM85 341h128v43h-128v-43zM256 43q-9 0 -15 -6.5t-6 -15t6 -15t15 -6.5t15 6.5t6 14.5q0 6 -2.5 11t-7.5 8t-11 3zM213 171h-128v-43h128v43zM384 333l-55 -56l55 -55l55 55zM384 43q9 0 15 6t6 15t-6 15t-15 6
t-15 -6t-6 -15t6 -15t15 -6z" />
    <glyph glyph-name="kubelet" unicode="kubelet" 
d="M60 128h-60l27 59l26 58l27 59l27 59h59l-26 -59l-27 -59l-27 -58zM171 406v-22h-64v22q0 4 1 8q6 13 20 13h47q-1 -3 -2 -5.5t-1.5 -5t-0.5 -5.5v-5zM107 85q0 -5 0.5 -11t2 -11t4 -10.5t5.5 -9.5h-34q-11 0 -21 5.5t-15.5 15.5t-5.5 21h16h16h16h16zM341 406v-22h-128
v22q0 4 2 8q6 13 20 13h85q9 0 15 -6.5t6 -14.5zM326 107l-16 -16l-16 -16l-16 -16l-16 -16h-70q-18 0 -30.5 12.5t-12.5 29.5v22h177zM331 128h-224l26 59l27 58l27 59l26 59h128l16 -34l15 -34l16 -34l15 -34q-5 -2 -10.5 -5t-10.5 -6t-9.5 -6.5t-8.5 -7.5
q-13 -13 -22.5 -34.5t-10.5 -39.5zM320 256q0 11 -5.5 21t-15.5 15.5t-21 5.5q-18 0 -30.5 -12.5t-12.5 -30t12.5 -30t30.5 -12.5q11 0 22.5 7.5t16.5 18.5q3 8 3 17zM320 -40q-1 -1 -3 -2t-3 -1h-1q-2 0 -4 1.5t-4 2.5l-6 7l-6 6l-6 6l-6 6q-2 1 -3 3t-1 4t1 4t3 4l24 24
l24 24l25 25l24 24q-5 12 -5 24q0 7 2 14q2 10 7 19q10 19 30 29q10 5 20 7q6 1 12 1q5 0 9 -1q11 -1 20 -6l-11 -12l-12 -11l-11 -12l-12 -12l8 -8l8 -8l8 -8l8 -8l12 12l12 11l11 12l12 11q4 -9 5 -20q1 -5 1 -9q0 -6 -1 -12q-2 -10 -6 -20q-5 -10 -13 -18q-8 -7 -17 -12
t-19 -7q-7 -1 -14 -1q-12 0 -24 4l-25 -24l-24 -24l-24 -24z" />
    <glyph glyph-name="locked_env" unicode="locked_env" 
d="M363 277q17 0 29.5 -12.5t12.5 -29.5v-214q0 -17 -12.5 -29.5t-29.5 -12.5h-256q-12 0 -22 5.5t-15.5 15.5t-5.5 21v214q0 11 5.5 21t15.5 15.5t22 5.5h21v43q0 44 31.5 75.5t75.5 31.5t75 -31.5t31 -75.5v-43h22zM155 137h-28v17h32v17h-52v-86h52v17h-32v19h28v16z
M169 320v-43h132v43q0 18 -9 33t-24 24t-33 9q-28 0 -47 -19.5t-19 -46.5zM260 85v86h-21v-53l-35 53h-21v-86h21v53l35 -53h21zM333 85l30 86h-22l-21 -64l-21 64h-22l30 -86h26z" />
    <glyph glyph-name="machine_learning" unicode="machine_learning" 
d="M235 256v21h42v-21h-42zM235 341v22h42v-22h-42zM235 213v22h42v-22h-42zM448 192q9 0 15 -6.5t6 -14.5v-43q0 -9 -6 -15t-15 -6v-86q-46 0 -102 -22t-90 -53q-33 31 -89.5 53t-102.5 22v86q-9 0 -15 6t-6 15v43q0 8 6 14.5t15 6.5v64q42 0 94 -19t84 -45h28q32 26 84 45
t94 19v-64zM171 363q0 9 6 15t15 6t15 -6t6 -15q0 -6 -2.5 -11t-7.5 -8t-11 -3q-9 0 -15 6.5t-6 15.5zM299 363q0 9 6 15t15 6t15 -6t6 -15t-6 -15.5t-15 -6.5t-15 6.5t-6 15.5zM341 277h-170q-18 0 -32.5 9t-23 23.5t-8.5 31.5v43q0 26 18.5 45t45.5 19h170q27 0 45.5 -19
t18.5 -45v-43q0 -26 -18.5 -45t-45.5 -19zM171 405q-9 0 -15.5 -6t-6.5 -15v-43q0 -8 6.5 -14.5t15.5 -6.5h170q6 0 11 3t8 8t3 10v43q0 9 -6.5 15t-15.5 6h-170z" />
    <glyph glyph-name="master" unicode="master" 
d="M85 21h342v-42h-342v42zM448 341q9 0 15 -6t6 -15t-6 -15t-15 -6h-0.5h-1.5l-10 -117l-9 -118h-342l-9 118l-10 117h-1.5h-0.5q-9 0 -15 6t-6 15t6 15t15 6t15 -6t6 -15q0 -4 -1 -7t-4 -6l46 -36l45 -36l37 65l38 66q-5 3 -8 7.5t-3 10.5q0 9 6 15t15 6t15 -6t6 -15
q0 -6 -3 -10.5t-8 -7.5l38 -66l37 -65l45 36l46 36q-3 3 -4 6t-1 7q0 9 6 15t15 6z" />
    <glyph glyph-name="merge" unicode="merge" 
d="M405 213q27 0 45.5 -18.5t18.5 -45t-18.5 -45t-45.5 -18.5q-18 0 -36 12t-24 30q-118 1 -163 24q-31 15 -54 42v-113q18 -6 30.5 -23.5t12.5 -36.5q0 -26 -19 -45t-45.5 -19t-45 19t-18.5 45q0 19 12.5 36.5t29.5 23.5v200q-11 4 -21 13.5t-15.5 22t-5.5 25.5
q0 26 18.5 45t45.5 19q17 0 32 -8.5t23.5 -23.5t8.5 -32q0 -18 -12 -35.5t-29 -24.5q6 -26 27 -53.5t45 -38.5q35 -19 143 -19q6 17 24 29.5t36 12.5z" />
    <glyph glyph-name="miscellaneous" unicode="miscellaneous" 
d="M384 171l21 -168v-3q0 -9 -6 -15t-15 -6h-256q-9 0 -15 6t-6 15v3l21 168h256zM448 235v-43h-384v43h384zM314 324q16 -10 30 -30t19 -38h-43q0 9 -6.5 15t-15 6t-15 -6t-6.5 -15h-42q0 6 -3 11t-8 7.5t-11 2.5q-8 0 -14.5 -6t-6.5 -15h-43q5 18 19 38t30 30q-6 20 -6 40
v2q0 25 6 43t15 18t15.5 -18t6.5 -43q0 -14 -3 -28q12 3 24 3t24 -3q-3 14 -3 28v0q0 25 6.5 43t15.5 18t15 -18t6 -43v-2q0 -20 -6 -40z" />
    <glyph glyph-name="modified_date" unicode="modified_date" 
d="M427 384q17 0 29.5 -12.5t12.5 -30.5v-341q0 -18 -12.5 -30.5t-29.5 -12.5h-342q-17 0 -29.5 12.5t-12.5 30.5v341q0 12 5.5 22t15.5 15.5t21 5.5h22v43h42v-43h214v43h42v-43h22zM161 0l200 201l-75 75l-201 -201v-75h76zM421 260q6 6 6 14.5t-6 13.5l-47 47
q-6 6 -14.5 6t-13.5 -6l-40 -39l75 -75z" />
    <glyph glyph-name="molecules" unicode="molecules" 
d="M448 256q26 0 45 -19t19 -45t-19 -45t-45 -19q-4 0 -8 1l-31 -63q18 -19 18 -45t-19 -45t-45 -19q-19 0 -36.5 12.5t-23.5 30.5h-94q-6 -18 -23.5 -30.5t-36.5 -12.5q-26 0 -45 19t-19 45t18 45l-31 63q-4 -1 -8 -1q-26 0 -45 19t-19 45t19 45t45 19q4 0 8 -1l31 63
q-18 19 -18 45t19 45t45 19q19 0 36.5 -12.5t23.5 -30.5h94q6 18 23.5 30.5t36.5 12.5q17 0 32 -8.5t23.5 -23.5t8.5 -32q0 -26 -18 -45l31 -63q4 1 8 1zM371 85l31 63q-18 18 -18 44t18 44l-32 63h-10q-18 0 -35 12.5t-22 29.5h-94q-6 -17 -23.5 -29.5t-36.5 -12.5h-7
l-32 -63q18 -18 18 -44t-18 -44l32 -63h7q19 0 36.5 -12.5t23.5 -29.5h94q6 17 23.5 29.5t36.5 12.5h8z" />
    <glyph glyph-name="monitoring" unicode="monitoring" 
d="M235 0v64h42v-64h-42zM171 0h170v-43h-170v43zM427 64h-342q-26 0 -45 19t-19 45v235q0 26 19 45t45 19h342q26 0 45 -19t19 -45v-235q0 -26 -19 -45t-45 -19zM85 384q-8 0 -14.5 -6.5t-6.5 -14.5v-235q0 -4 1.5 -8t4.5 -7t7 -4.5t8 -1.5h342q8 0 14.5 6t6.5 15v235
q0 8 -6.5 14.5t-14.5 6.5h-342zM341 128l-40 136l-24 -93l-28 64h-7l-29 -86l-24 87l-12 -23h-70v22h57l28 64l23 -80l12 37h36l10 -21l26 128l42 -171l14 43h50v-22h-35z" />
    <glyph glyph-name="move" unicode="move" 
d="M470 192l-86 -86v64h-106v-106h64l-86 -86l-85 86h64v106h-107v-64l-85 86l85 85v-64h107v107h-64l85 85l86 -85h-64v-107h106v64z" />
    <glyph glyph-name="multistate" unicode="multistate" 
d="M21 362.5q0 26.5 19 45.5t45 19q18 0 32.5 -8.5t23 -23.5t8.5 -32q0 -27 -18.5 -45.5t-45 -18.5t-45.5 18.5t-19 45zM85.5 128q-26.5 0 -45.5 19t-19 45t19 45t45.5 19t45 -19t18.5 -45t-18.5 -45t-45 -19zM85 235q-17 0 -29.5 -12.5t-12.5 -30.5t12.5 -30.5t30 -12.5
t30 12.5t12.5 30.5q0 9 -3.5 16.5t-9 13.5t-13.5 9.5t-17 3.5zM256 -43q-26 0 -45 19t-19 45.5t19 45t45 18.5t45 -18.5t19 -45t-19 -45.5t-45 -19zM256 64q-18 0 -30.5 -12.5t-12.5 -30t12.5 -30t30.5 -12.5t30.5 12.5t12.5 29.5q0 12 -6 22t-15.5 15.5t-21.5 5.5z
M426.5 299q-26.5 0 -45 18.5t-18.5 45t18.5 45.5t45 19t45.5 -19t19 -45.5t-19 -45t-45.5 -18.5zM426.5 405q-17.5 0 -30 -12.5t-12.5 -30t12.5 -30t30 -12.5t30 12.5t12.5 30t-12.5 30t-30 12.5zM21 21q0 18 8.5 32.5t23.5 23t32 8.5q27 0 45.5 -18.5t18.5 -45t-18.5 -45.5
t-45 -19t-45.5 19t-19 45zM192 362.5q0 26.5 18.5 45.5t45.5 19q17 0 32 -8.5t23.5 -23.5t8.5 -32q0 -27 -18.5 -45.5t-45.5 -18.5t-45.5 18.5t-18.5 45zM192 192q0 27 18.5 45.5t45.5 18.5t45.5 -18.5t18.5 -45.5t-18.5 -45.5t-45.5 -18.5t-45.5 18.5t-18.5 45.5zM363 192
q0 27 18.5 45.5t45 18.5t45.5 -18.5t19 -45.5q0 -13 -5 -25t-14 -20.5t-20.5 -13.5t-24.5 -5q-27 0 -45.5 18.5t-18.5 45.5zM363 21.5q0 26.5 18.5 45t45 18.5t45.5 -18.5t19 -45t-19 -45.5t-45.5 -19t-45 19t-18.5 45.5z" />
    <glyph glyph-name="namespace" unicode="namespace" 
d="M491 213v-42q-13 0 -17.5 -6t-4.5 -22v-96q0 -39 -20.5 -53.5t-64.5 -14.5v42h10t9.5 0.5t7 1t6 1.5l4.5 3t3.5 5t1.5 7.5t1 10.5v92q-1 2 -1 5q0 15 7 28t21 17q-14 4 -21 17t-7 28q0 3 1 5v92q0 5 -0.5 8.5t-1 6.5t-2.5 5t-3 3.5t-3.5 2.5t-4.5 1.5t-6 0.5t-6 0.5
t-7.5 0.5h-8.5v42q29 0 46.5 -5.5t28 -21t10.5 -41.5v-96q0 -11 1.5 -16.5t6.5 -8.5t14 -3zM21 213q9 0 14 3t6.5 8.5t1.5 16.5v96q0 39 20.5 53.5t64.5 14.5v-42h-10t-9.5 -0.5t-7 -1t-6 -1.5l-4.5 -3t-3.5 -5t-1.5 -7.5t-1 -10.5v-92q1 -2 1 -5q0 -15 -7 -28t-21 -17
q14 -4 21 -17t7 -28q0 -3 -1 -5v-92q0 -6 1 -10.5t1.5 -7.5t3.5 -5l4.5 -3t6 -1.5t7 -1t9.5 -0.5h10v-42q-44 0 -64.5 14.5t-20.5 53.5v96q0 16 -4.5 22t-17.5 6v42zM384 256v-128h-256v128h256zM171 213v-42h170v42h-170z" />
    <glyph glyph-name="network" unicode="network" 
d="M256 363q71 0 121 -50t50 -121t-50 -121t-121 -50t-121 50t-50 121t50 121t121 50zM128 192q0 -46 32.5 -83.5t78.5 -43.5v25q-14 0 -24 10t-10 24v17l-75 74q-2 -11 -2 -23zM324 124q19 0 29 -16q13 15 22 39.5t9 44.5q0 35 -22.5 69.5t-54.5 47.5q-1 -13 -11 -22.5
t-23 -9.5h-34v-34q0 -7 -5 -12t-12 -5h-34v-34h102q7 0 12 -5t5 -12v-51h17zM277 426.5q0 -8.5 -6 -15t-15 -6.5t-15 6.5t-6 15t6 15t15 6.5t15 -6.5t6 -15zM384 405.5q0 -8.5 -6.5 -15t-15 -6.5t-15 6.5t-6.5 15t6.5 15t15 6.5t15 -6.5t6.5 -15zM469 320q0 -9 -6 -15
t-15 -6t-15 6t-6 15t6 15t15 6t15 -6t6 -15zM512 192q0 -9 -6.5 -15t-15 -6t-15 6t-6.5 15t6.5 15t15.5 6q5 0 10 -2.5t8 -7.5t3 -11zM469 64q0 -9 -6 -15t-15 -6t-15 6t-6 15t6 15t15 6t15 -6t6 -15zM384 -21.5q0 -8.5 -6.5 -15t-15 -6.5t-15 6.5t-6.5 15t6.5 15t15 6.5
t15 -6.5t6.5 -15zM277 -42.5q0 -8.5 -6 -15t-15 -6.5t-15 6.5t-6 14.5q0 6 2.5 11t7.5 8t11 3q9 0 15 -6.5t6 -15zM171 -21.5q0 -8.5 -6.5 -15t-15 -6.5t-15 6.5t-6.5 15t6.5 15t15 6.5t15 -6.5t6.5 -15zM85 64q0 -9 -6 -15t-15 -6t-15 6t-6 15t6 15t15 6t15 -6t6 -15z
M43 192q0 -9 -6.5 -15t-15 -6t-15 6t-6.5 15t6.5 15t14.5 6q6 0 11 -2.5t8 -7.5t3 -11zM85 320q0 -9 -6 -15t-15 -6t-15 6t-6 15t6 15t15 6t15 -6t6 -15zM171 405.5q0 -8.5 -6.5 -15t-15 -6.5t-15 6.5t-6.5 15t6.5 15t15 6.5t15 -6.5t6.5 -15z" />
    <glyph glyph-name="network_file_system" unicode="network_file_system" 
d="M341 85v-21h128v-43h-128v-21h-170v21h-128v43h128v21h64v86h42v-86h64zM320 171h-192q-9 0 -15 6t-6 15v171q0 8 6 14.5t15 6.5h107l21 -21h128q9 0 15 -6.5t6 -15.5v-149q0 -9 -6 -15t-15 -6h-64z" />
    <glyph glyph-name="network_policy" unicode="network_policy" 
d="M235 426.5q0 8.5 6 15t15 6.5t15 -6.5t6 -15t-6 -15t-15 -6.5t-15 6.5t-6 15zM64 299q-9 0 -15 6t-6 15t6 15t15 6t15 -6t6 -15t-6 -15t-15 -6zM149.5 384q-8.5 0 -15 6.5t-6.5 15t6.5 15t15 6.5t15 -6.5t6.5 -15t-6.5 -15t-15 -6.5zM362.5 384q-8.5 0 -15 6.5t-6.5 15
t6.5 15t15 6.5t15 -6.5t6.5 -15t-6.5 -15t-15 -6.5zM448 299q-9 0 -15 6t-6 15t6 15t15 6t15 -6t6 -15t-6 -15t-15 -6zM228 24q-59 10 -101 59t-42 109q0 46 23 85.5t62.5 62.5t85.5 23q43 0 87 -27t64 -65l-23 10l-27 -11q-20 26 -50 39q-1 -13 -11 -22.5t-23 -9.5h-34v-34
q0 -7 -5 -12t-12 -5h-34v-34h25v-91q-8 10 -8 23v17l-75 74q-2 -11 -2 -23q0 -39 25.5 -74t61.5 -47q4 -24 13 -47zM149.5 0q8.5 0 15 -6.5t6.5 -15t-6.5 -15t-15 -6.5t-15 6.5t-6.5 15t6.5 15t15 6.5zM256 -21q9 0 15 -6.5t6 -15t-6 -15t-15 -6.5t-15 6.5t-6 14.5
q0 6 2.5 11t7.5 8t11 3zM64 85q9 0 15 -6t6 -15t-6 -15t-15 -6t-15 6t-6 15t6 15t15 6zM21 213q6 0 11 -2.5t8 -7.5t3 -11q0 -9 -6.5 -15t-15 -6t-15 6t-6.5 15t6.5 15t14.5 6zM512 181v-82q-1 -35 -18.5 -69.5t-46.5 -59.5t-63 -34q-51 14 -88.5 61.5t-39.5 100.5v83
l128 54z" />
    <glyph glyph-name="neural_network" unicode="neural_network" 
d="M460 191l-12 -40q12 -9 12 -24q0 -9 -6 -17.5t-15 -11.5q6 -28 22 -51q12 -9 12 -25q0 -12 -9 -21t-21.5 -9t-21.5 9t-9 21q0 6 2 12q-14 23 -41 48t-50 38q-8 -5 -16 -5q-11 0 -20 8l-66 2q-2 -11 -10.5 -18t-19.5 -7q-5 0 -9.5 1.5t-8.5 4.5t-7 7.5t-4 8.5h-24
q-2 -10 -10.5 -17.5t-19.5 -7.5q-13 0 -22 9t-9 21v1l-20 9q-9 -7 -19 -7q-13 0 -22 9t-9 22q0 5 2 10.5t5.5 9.5t8.5 6.5t10 3.5l5 40q-9 3 -15.5 11.5t-6.5 17.5q0 13 9 22t22 9q8 0 15 -5l63 56q-2 6 -2 11q0 13 8.5 22t21.5 9q15 0 24 -11l66 20v3q0 13 9 22t21.5 9
t21.5 -9t9 -22q0 -5 -1 -10l104 -48q9 10 23 10q8 0 15 -4t11 -11t4 -16q0 -15 -12 -24l10 -41l1 0.5l1 0.5q13 0 22 -9t9 -22t-9 -22t-22 -9zM472 222q0 5 -3.5 8.5t-8.5 3.5q-3 0 -6 -1.5t-4.5 -4.5t-1.5 -6q0 -5 3.5 -8.5t8.5 -3.5t8.5 3.5t3.5 8.5zM448 250l-10 38
q-4 -1 -8 -1h-6l-30 -41q11 -8 12 -21h24q1 18 18 25zM399 131q2 13 12 21l-27 41q-4 -2 -9 -2q-12 0 -20 8l-25 -33q7 -8 7 -19zM176 333q-5 -6 -13 -9l20 -71h1q14 0 23 -11l56 29q-1 4 -1 8t1 9zM414 291q-8 5 -12 14l-80 -23q1 -2 1 -4q0 -4 -1 -7l34 -26q8 8 19 8
q5 0 10 -2zM375 210q5 0 8.5 3.5t3.5 8.5q0 3 -1.5 6t-4 4.5t-6.5 1.5q-5 0 -8.5 -3.5t-3.5 -8.5t3.5 -8.5t8.5 -3.5zM292 267q5 0 8.5 3.5t3.5 8.5t-3.5 8.5t-8.5 3.5t-8.5 -3.5t-3.5 -8.5q0 -4 1.5 -6.5t4.5 -4t6 -1.5zM184 234q-5 0 -8.5 -3.5t-3.5 -8.5q0 -2 1 -4.5
t2.5 -4t3.5 -2.5t5 -1q5 0 8.5 3.5t3.5 8.5t-3.5 8.5t-8.5 3.5zM214 222q0 -7 -3 -13.5t-9 -11t-13 -5.5l6 -31q3 -1 5 -2l83 11l10 78h-1q-16 0 -25 13l-55 -28q2 -5 2 -11zM191 142q-5 0 -8.5 -3.5t-3.5 -8.5t3.5 -8.5t8.5 -3.5t8.5 3.5t3.5 8.5t-3.5 8.5t-8.5 3.5z
M214 150q6 -6 7 -15l58 -1q-3 5 -3 12t3 13zM304 250l-9 -76q5 3 12 3q8 0 15 -4l26 35q-3 7 -3 14q0 8 4 15l-32 24q-5 -7 -13 -11zM429 329q-5 0 -8.5 -3.5t-3.5 -8.5t3.5 -8.5t8.5 -3.5t8.5 3.5t3.5 8.5q0 4 -1.5 6.5t-4 4t-6.5 1.5zM401 329l-104 48q-7 -9 -19 -11
l11 -57h1h2q8 0 16 -5t11 -12l80 23v1v1q0 6 2 12zM274 408q-5 0 -8.5 -3.5t-3.5 -8.5t3.5 -8.5t8.5 -3.5t8.5 3.5t3.5 8.5t-3.5 8.5t-8.5 3.5zM246 383l-64 -20q2 -5 2 -10t-2 -11l86 -45q4 6 11 9l-12 60q-14 3 -21 17zM153 365q-5 0 -8.5 -3.5t-3.5 -8.5q0 -3 1.5 -5.5
t4.5 -4.5t6 -2q5 0 8.5 3.5t3.5 8.5t-3.5 8.5t-8.5 3.5zM152 323q-13 0 -21 10l-61 -54q7 -8 7 -19l81 -21q6 8 15 11zM50 161q0 5 -3.5 8.5t-8.5 3.5t-8.5 -3.5t-3.5 -8.5t3.5 -8.5t8.5 -3.5t8.5 3.5t3.5 8.5zM44 191q10 -2 17 -10l93 36q-1 2 -1 5q0 4 1 7l-79 20
q-3 -8 -11 -13.5t-16 -5.5zM47 272q-5 0 -8.5 -3.5t-3.5 -8.5t3.5 -8.5t8.5 -3.5t8.5 3.5t3.5 8.5t-3.5 8.5t-8.5 3.5zM64 146l16 -7q2 5 6.5 9.5t10 7t11.5 2.5t12 -3t10.5 -7.5t6.5 -10.5l40 55q-13 4 -19 15l-91 -36q1 -5 1 -10q0 -8 -4 -15zM108 115q5 0 8.5 3.5
t3.5 8.5t-3.5 8.5t-8.5 3.5t-8.5 -3.5t-3.5 -8.5t3.5 -8.5t8.5 -3.5zM181 186l-35 -53h15q0 9 7 17t16 10zM307 134q5 0 8.5 3.5t3.5 8.5t-3.5 8.5t-8.5 3.5t-8.5 -3.5t-3.5 -8.5t3.5 -8.5t8.5 -3.5zM443 10q5 0 8.5 3.5t3.5 8.5t-3.5 8.5t-8.5 3.5q-3 0 -5 -1t-3.5 -2.5
t-2.5 -3.5t-1 -5q0 -5 3.5 -8.5t8.5 -3.5zM443 53h1h1q-12 20 -16 44q-10 0 -18.5 7t-10.5 16l-65 15q-1 -4 -4 -7q23 -13 49.5 -37.5t40.5 -46.5q9 9 22 9zM429 115q5 0 8.5 3.5t3.5 8.5t-3.5 8.5t-8.5 3.5q-3 0 -5.5 -1.5t-4.5 -4t-2 -6.5q0 -5 3.5 -8.5t8.5 -3.5z
M439 156l10 37q-14 6 -18 21h-26q-3 -10 -11 -16l26 -41q5 1 9.5 1t9.5 -2z" />
    <glyph glyph-name="node" unicode="node" 
d="M235 384q0 9 6 15t15 6t15 -6t6 -15t-6 -15t-15 -6t-15 6t-6 15zM405 277q0 9 6.5 15.5t15.5 6.5t15 -6.5t6 -15.5t-6 -15t-15 -6t-15.5 6t-6.5 15zM405 107q0 9 6.5 15t15.5 6t15 -6t6 -15q0 -6 -3 -11t-8 -8t-10 -3q-9 0 -15.5 6.5t-6.5 15.5zM64 277q0 9 6 15.5
t15 6.5t15.5 -6.5t6.5 -15.5t-6.5 -15t-15.5 -6t-15 6t-6 15zM64 107q0 9 6 15t15 6q5 0 9 -1.5t6.5 -4.5t4.5 -7t2 -8q0 -9 -6.5 -15.5t-15.5 -6.5t-15 6.5t-6 15.5zM427 149h-1q-11 0 -21 -5.5t-15.5 -15.5t-5.5 -21q0 -17 11 -29l-102 -57q-9 16 -26 20v110q13 3 22.5 15
t9.5 26q0 18 -12.5 30.5t-30.5 12.5t-30.5 -12.5t-12.5 -30.5q0 -14 9.5 -26t22.5 -15v-110q-17 -4 -26 -20l-102 57q11 12 11 29q0 11 -5.5 21t-15.5 15.5t-21 5.5h-1v86h1q17 0 29.5 12.5t12.5 29.5t-11 29l102 57q5 -9 16 -15.5t21 -6.5t21 6.5t16 15.5l102 -57
q-11 -12 -11 -29t12.5 -29.5t29.5 -12.5h1v-86zM235 0q0 9 6 15t15 6t15 -6t6 -15t-6 -15t-15 -6t-15 6t-6 15zM235 192q0 9 6 15t15 6t15 -6t6 -15t-6 -15t-15 -6t-15 6t-6 15z" />
    <glyph glyph-name="organisms" unicode="organisms" 
d="M459 213q13 0 22.5 -9t9.5 -22.5t-9.5 -23t-22.5 -9.5q-4 0 -7 1l-33 -55q8 -9 8 -21q0 -8 -4.5 -15.5t-12 -11.5t-15.5 -4q-10 0 -18.5 6t-11.5 15h-47q-2 -6 -6.5 -11t-11 -7.5t-12.5 -2.5q-4 0 -7 1l-32 -56q7 -9 7 -20q0 -13 -9.5 -22.5t-22.5 -9.5q-9 0 -18 6
t-12 15h-47q-3 -8 -11.5 -14.5t-18.5 -6.5q-13 0 -22.5 9.5t-9.5 22.5q0 11 8 20l-33 56q-3 -1 -7 -1q-13 0 -22.5 9t-9.5 22.5t9.5 23t22.5 9.5q4 0 7 -1l32 56q-7 8 -7 19.5t8 19.5l-33 56q-3 -1 -7 -1q-13 0 -22.5 9.5t-9.5 22.5t9.5 22.5t22.5 9.5q4 0 7 -1l32 56
q-7 9 -7 20q0 13 9.5 22.5t22.5 9.5q10 0 18.5 -6.5t11.5 -15.5h47q3 9 12 15.5t18 6.5q13 0 22.5 -9.5t9.5 -22.5q0 -11 -7 -20l32 -56q4 1 7 1q6 0 12.5 -3t11 -8t6.5 -10h47q3 8 11.5 14.5t18.5 6.5q13 0 22.5 -9.5t9.5 -22.5q0 -11 -7 -20l32 -55h7zM395 107q3 0 6 -1
l33 56q-7 8 -7 19t7 20l-32 56q-4 -1 -7 -1q-10 0 -18.5 6.5t-11.5 14.5h-47q-3 -8 -11.5 -14.5t-18.5 -6.5q-4 0 -7 1l-32 -56q7 -8 7 -20q0 -11 -7 -19l32 -56q4 1 7 1q9 0 18 -6.5t12 -15.5h47q3 9 11.5 15.5t18.5 6.5zM224 0q3 0 7 -1l32 56q-7 9 -7 20t7 19l-32 56
q-4 -1 -7 -1q-9 0 -18 6.5t-12 15.5h-47q-3 -9 -11.5 -15.5t-18.5 -6.5q-3 0 -7 1l-32 -56q7 -8 7 -19t-7 -20l33 -56q3 1 6 1q10 0 18.5 -6.5t11.5 -14.5h47q2 5 6.5 10t11 8t12.5 3zM78 308q7 -9 7 -20t-7 -20l33 -55h6q7 0 13 -2.5t10.5 -7.5t6.5 -11h47q3 9 12 15t18 6
h7l32 55q-7 9 -7 20t7 20l-32 55h-7q-9 0 -18 6t-12 15h-47q-2 -6 -6.5 -11t-10.5 -7.5t-13 -2.5h-7z" />
    <glyph glyph-name="organization" unicode="organization" 
d="M427 214h11v-86h-43v43h-117v-43h-43v43h-118v-43h-43v86h12h31h118v42h43v-42h117h32zM203 352q0 22 15.5 37.5t37.5 15.5t38 -15.5t16 -37.5t-16 -38t-38 -16t-37.5 16t-15.5 38zM42 32q0 22 15.5 38t37.5 16t38 -16t16 -38t-16 -37.5t-38 -15.5t-37.5 15.5t-15.5 37.5
zM203 32q0 22 15.5 38t37.5 16t38 -16t16 -38t-16 -37.5t-38 -15.5t-37.5 15.5t-15.5 37.5zM363 32q0 22 15.5 38t37.5 16t38 -16t16 -38t-16 -37.5t-38 -15.5t-37.5 15.5t-15.5 37.5z" />
    <glyph glyph-name="outbound" unicode="outbound" 
d="M427 405q17 0 29.5 -12.5t12.5 -29.5v-192h-42v149l-171 -107l-171 107v-213h171v-43h-171q-17 0 -29.5 12.5t-12.5 30.5v256q0 17 12.5 29.5t29.5 12.5h342zM256 256l171 107h-342zM469 85l-85 -85v64h-85v43h85v64z" />
    <glyph glyph-name="package" unicode="package" 
d="M43 320h426v-43h-42v-234q0 -12 -6 -22t-15.5 -15.5t-21.5 -5.5h-256q-18 0 -30.5 12.5t-12.5 30.5v234h-42v43zM235 64v43h-107v-43h107z" />
    <glyph glyph-name="package_upgrade" unicode="package_upgrade" 
d="M379 144l-144 -144h-107q-18 0 -30.5 12.5t-12.5 30.5v234h-42v43h426v-43h-42v-181zM128 107v-43h107v43h-107zM470 10l-31 -30l-60 60l-60 -60l-31 30l91 90l30 -30z" />
    <glyph glyph-name="packages" unicode="packages" 
d="M428 320v-43h-267h-75v43h342zM384 405v-43h-200h-56v43h256zM43 235h426v-43h-42v-171q0 -17 -12.5 -29.5t-30.5 -12.5h-256q-18 0 -30.5 12.5t-12.5 29.5v171h-42v43zM235 43v42h-107v-42h107z" />
    <glyph glyph-name="patch_fixes" unicode="patch_fixes" 
d="M309 49l42 -42q-9 -6 -21 -11t-25 -9t-26 -6t-23 -2q-71 0 -121 50t-50 120v1q0 44 20.5 99.5t48.5 89.5v-8v-2q0 -32 22.5 -54.5t54.5 -22.5q15 0 28.5 6t23 16t15.5 23.5t6 28.5v5q-2 52 -16 103q57 -45 97.5 -128.5t41.5 -156.5q0 -11 -2.5 -24t-6.5 -26t-10 -25.5
t-12 -21.5l-41 41q7 17 7 35q0 36 -24.5 60.5t-60.5 24.5q-17 0 -33 -6l56 -56l-45 -46l-56 56q-7 -16 -7 -33q0 -35 25 -60t60 -25q17 0 32 6z" />
    <glyph glyph-name="patterns" unicode="patterns" 
d="M22 362.5q0 26.5 18.5 45t45 18.5t45.5 -18.5t19 -45t-19 -45.5t-45.5 -19t-45 19t-18.5 45.5zM321 191q0 -12 -6 -24.5t-15.5 -22t-21.5 -13.5v-50q18 -7 30 -24.5t12 -36.5q0 -26 -18.5 -44.5t-44.5 -18.5q-19 0 -36.5 12.5t-24.5 29.5h-50q-6 -17 -24 -29.5t-36 -12.5
q-27 0 -45.5 18.5t-18.5 44.5q0 13 5.5 25.5t15.5 22t21 13.5v50q-17 7 -29.5 24.5t-12.5 36.5q0 26 18.5 45t45 19t45.5 -19t19 -45q0 -19 -12.5 -36.5t-30.5 -24.5v-50q12 -5 23.5 -16t15.5 -23h50q3 8 9 16t14 14t16 9v50q-11 4 -21 13.5t-15.5 22t-5.5 24.5
q0 19 12.5 36.5t29.5 24.5v50q-17 6 -30 24t-13 37q0 26 19 44.5t45 18.5q19 0 36.5 -12.5t24.5 -29.5h50q6 17 24 29.5t36 12.5t32.5 -8.5t23 -23t8.5 -32.5t-12.5 -36t-30.5 -24v-50q18 -7 30.5 -24.5t12.5 -36.5q0 -26 -18.5 -45t-45 -19t-45.5 19t-19 45q0 19 12.5 36.5
t30.5 23.5v51q-12 4 -23.5 15.5t-15.5 23.5h-50q-3 -6 -7 -12t-9 -11t-11 -9.5t-12 -6.5v-50q18 -7 30.5 -24.5t12.5 -36.5zM363 20.5q0 26.5 19 45.5t45.5 19t45 -19t18.5 -45.5t-18.5 -45t-45 -18.5t-45.5 18.5t-19 45z" />
    <glyph glyph-name="performance" unicode="performance" 
d="M320 -21h-213v42h213v-42zM469 363l-101 -127l-4 -6l-120 -154q-13 -12 -30.5 -12t-30 12.5t-12.5 30t12 30.5zM56 294l23 -27q-15 -22 -25.5 -56t-10.5 -61v-1v-21h-18q-4 21 -4 43q0 28 10.5 63.5t24.5 59.5zM256 405q32 0 73 -13.5t67 -32.5l-76 -60q-19 17 -50 29.5
t-57 12.5q-16 0 -36 -5.5t-39 -15t-31 -20.5l-24 29q29 31 79.5 53.5t93.5 22.5zM402 209l59 75q13 -22 21.5 -55t8.5 -58q0 -22 -4 -43h-103v21q0 17 -3 34l16 20z" />
    <glyph glyph-name="persistent_volume" unicode="persistent_volume" 
d="M427 427q11 0 21 -6t15.5 -15.5t5.5 -21.5v-341q0 -18 -12.5 -30.5t-29.5 -12.5h-50q7 21 7 43q0 53 -37.5 90.5t-90.5 37.5q-34 0 -64 -18q-10 6 -21 10v221q0 18 12.5 30.5t29.5 12.5h214zM192 384q0 -9 6.5 -15t15 -6t15 6t6.5 15q0 6 -3 11t-8 7.5t-11 2.5
q-8 0 -14.5 -6t-6.5 -15zM320 171q44 0 75.5 31t31.5 75t-31.5 75.5t-75.5 31.5t-75.5 -31.5t-31.5 -75.5q0 -22 9 -42h55v-55q21 -9 43 -9zM426.5 21q8.5 0 15 6.5t6.5 15t-6.5 15t-15 6.5t-15 -6.5t-6.5 -15t6.5 -15t15 -6.5zM426.5 363q8.5 0 15 6t6.5 15t-6.5 15t-15 6
t-15 -6t-6.5 -15t6.5 -15t15 -6zM256 -43q-16 0 -35 9t-29 21q-9 10 -15 26t-6 30q0 8 -3.5 16t-9.5 14t-13.5 9t-16.5 3q-18 0 -30.5 -12.5t-12.5 -30t12.5 -30t30.5 -12.5q9 0 17 4q7 -21 20 -38q-18 -9 -37 -9q-36 0 -61 25t-25 60.5t25 60.5t61 25q16 0 34.5 -8.5
t29.5 -20.5q9 -10 15 -26.5t6 -29.5q0 -18 12.5 -30.5t30.5 -12.5t30.5 12.5t12.5 30.5q0 11 -6 21t-15.5 15.5t-21.5 5.5q-9 0 -17 -3q-7 20 -20 37q18 9 37 9q35 0 60 -25t25 -60.5t-25 -60.5t-60 -25zM277 277.5q0 17.5 12.5 30t30.5 12.5t30.5 -12.5t12.5 -30t-12.5 -30
t-30.5 -12.5t-30.5 12.5t-12.5 30z" />
    <glyph glyph-name="pin" unicode="pin" 
d="M390 239l30 -30l-75 -76l101 -101l-30 -31l-102 102l-75 -75l-30 30v60l-121 121l-15 -15l-31 30l151 151l31 -30l-16 -15l122 -121h60z" />
    <glyph glyph-name="pipeline" unicode="pipeline" 
d="M192 256h43v-107h-43v22h-107q-17 0 -29.5 12.5t-12.5 29.5v150h-22v42h107v-42h-21v-128h85v21zM469 21h22v-42h-107v42h21v150h-85v-22h-43v107h43v-21h107q8 0 16 -3.5t14 -9.5t9 -13.5t3 -16.5v-171z" />
    <glyph glyph-name="pod" unicode="pod" 
d="M128 43v21h256v-21q0 -18 -12.5 -30.5t-30.5 -12.5h-170q-12 0 -22 5.5t-15.5 15.5t-5.5 22zM320 363v-22h-128v22q0 9 6 15t15 6h86q9 0 15 -6t6 -15zM320 320l107 -235h-342l107 235h128zM256.5 170q17.5 0 30 12.5t12.5 30.5t-12.5 30.5t-30 12.5t-30 -12.5
t-12.5 -30.5t12.5 -30.5t30 -12.5z" />
    <glyph glyph-name="pod_autoscaler" unicode="pod_autoscaler" 
d="M107 213v-42h-32v-54l-75 75l75 75v-54h32zM512 192l-75 -75v54h-32v42h32v54zM128 48v16h256v-21q0 -18 -12.5 -30.5t-30.5 -12.5h-170q-18 0 -30.5 12.5t-12.5 30.5v5zM320 363v-22h-128v22q0 4 2 8q5 13 19 13h86q9 0 15 -6t6 -15zM400 144l27 -59h-342l27 59l27 59
l26 58l27 59h128l27 -59l26 -58zM296 197q3 7 3 16q0 18 -12.5 30.5t-30.5 12.5t-30.5 -12.5t-12.5 -30.5t12.5 -30.5t30.5 -12.5q12 0 23.5 8t16.5 19z" />
    <glyph glyph-name="pod_security" unicode="pod_security" 
d="M277 362h-128v22q0 9 6.5 15t14.5 6h86q6 0 10.5 -2.5t7.5 -7.5t3 -11v-22zM256 107h-213l53 117l53 117h128l28 -61l28 -61l-38 -17l-39 -17v-78zM256 234.5q0 17.5 -12.5 30t-30 12.5t-30 -12.5t-12.5 -30t12.5 -30t30 -12.5t30 12.5t12.5 30zM258 85q2 -17 8.5 -33
t15.5 -31h-154q-18 0 -30.5 12.5t-12.5 30.5v21h173zM469 171v-64q0 -13 -3.5 -28t-10 -29.5t-13.5 -23.5q-7 -10 -18.5 -20t-25 -17t-25.5 -10q-17 4 -37.5 18t-30.5 29q-12 14 -20 38t-8 43v64l48 21l48 21l48 -21zM373 190l-37 -17l-37 -16v-61h74v-95q13 4 27.5 14.5
t22.5 21.5q21 26 25 59h-75v94z" />
    <glyph glyph-name="primitive" unicode="primitive" 
d="M209 192q0 19 14 33t33 14t33 -14t14 -33t-14 -33t-33 -14t-33 14t-14 33zM462 311q26 -46 -38 -119q64 -73 38 -119q-19 -32 -75 -32q-14 0 -28 2q-9 1 -20 3q-14 -41 -36 -65t-47 -24q-13 0 -25 6.5t-22.5 18t-19.5 28t-16 37.5q-24 -5 -47 -6q-57 0 -76 32
q-26 46 38 119q-64 73 -37.5 118.5t122.5 26.5q9 28 22 48t28.5 31t32.5 11t32.5 -11t28.5 -31t22 -47q11 2 20 3q79 10 103 -30zM362 317q-3 0 -8.5 -1.5t-6.5 -1.5q8 -31 11 -63q26 -19 49 -41q51 58 34 89q-12 20 -54 20q-12 0 -25 -2zM297 121.5q20 11.5 39 24.5
q2 23 2 46t-2 46q-19 13 -39 25q-19 11 -41 21q-22 -10 -41 -21q-20 -12 -39 -25q-2 -23 -2 -46t2 -46q19 -13 39 -25q19 -11 41 -21q21 10 41 21.5zM332 114q-12 -7 -23 -13.5t-23 -12.5q18 -7 37 -13q5 19 9 39zM226 88q-12 6 -23 12q-11 7 -23 14q4 -20 9 -39q19 5 37 13
zM151 165q-1 15 -1 27t1 27q-16 -13 -30 -27q14 -14 30 -27zM180 270q12 7 23 14q11 6 24 12q-19 8 -38 13q-5 -20 -9 -39zM286 296q12 -6 23 -12.5t23 -13.5q-4 20 -9 39q-19 -6 -37 -13zM361 219q1 -15 1 -27t-1 -27q16 13 30 27q-14 14 -30 27zM256 403q-11 0 -21.5 -8.5
t-20.5 -24.5t-18 -38q31 -9 60 -22q29 13 60 22q-12 33 -28 52t-32 19zM71 299q-17 -31 34 -89q23 22 49 41q3 32 11 63q-20 4 -40 4q-42 0 -54 -19zM71.5 85.5q17.5 -30.5 93.5 -15.5q-8 31 -11 63q-26 19 -49 41q-51 -58 -33.5 -88.5zM256 -19q16 0 32 19t28 52
q-31 9 -60 22q-29 -13 -60 -22q12 -33 28 -52t32 -19zM441 85q17 31 -34 89q-23 -22 -49 -41q-3 -32 -11 -63q1 0 6.5 -1.5t8.5 -1.5q63 -8 79 18z" />
    <glyph glyph-name="product_classes" unicode="product_classes" 
d="M149 405q9 0 15.5 -6t6.5 -15v-384q0 -9 -6.5 -15t-15.5 -6h-85q-9 0 -15 6t-6 15v384q0 9 6 15t15 6h85zM106.5 0q17.5 0 30 12.5t12.5 30t-12.5 30t-29.5 12.5q-12 0 -22 -5.5t-15.5 -15.5t-5.5 -21q0 -18 12.5 -30.5t30 -12.5zM149 192v192h-85v-192h85zM86 42.5
q0 8.5 6 15t15 6.5t15 -6.5t6 -15t-6 -15t-15 -6.5t-15 6.5t-6 15zM214 405h106v-149v-43h-106v43v149zM363 405h106v-149v-43h-106v43v149zM214 171h106v-150v-42h-106v42v150zM363 171h106v-150v-42h-106v42v150z" />
    <glyph glyph-name="product_subscriptions" unicode="product_subscriptions" 
d="M427 277h-342v43h342v-43zM384 405v-42h-256v42h256zM469 192v-171q0 -17 -12.5 -29.5t-29.5 -12.5h-342q-17 0 -29.5 12.5t-12.5 29.5v171q0 18 12.5 30.5t29.5 12.5h342q17 0 29.5 -12.5t12.5 -30.5zM297 84l50 43l-66 5l-25 60l-25 -60l-66 -5l50 -43l-15 -63l56 34
l56 -34z" />
    <glyph glyph-name="products" unicode="products" 
d="M149 405q9 0 15.5 -6t6.5 -15v-384q0 -9 -6.5 -15t-15.5 -6h-85q-9 0 -15 6t-6 15v384q0 9 6 15t15 6h85zM106.5 0q17.5 0 30 12.5t12.5 30t-12.5 30t-29.5 12.5q-12 0 -22 -5.5t-15.5 -15.5t-5.5 -21q0 -18 12.5 -30.5t30 -12.5zM149 192v192h-85v-192h85zM128 43
q0 -6 -3 -11t-8 -8t-10 -3q-9 0 -15.5 6.5t-6.5 15.5q0 5 3 10t8 8t11 3q8 0 14.5 -6.5t6.5 -14.5zM299 405q8 0 14.5 -6t6.5 -15v-384q0 -9 -6.5 -15t-14.5 -6h-86q-8 0 -14.5 6t-6.5 15v384q0 9 6.5 15t14.5 6h86zM256 0q18 0 30.5 12.5t12.5 30.5q0 11 -6 21t-15.5 15.5
t-21.5 5.5t-21.5 -5.5t-15.5 -15.5t-6 -21q0 -18 12.5 -30.5t30.5 -12.5zM299 192v192h-86v-192h86zM277 43q0 -9 -6 -15.5t-15 -6.5t-15 6.5t-6 15t6 15t15 6.5q6 0 11 -3t7.5 -8t2.5 -10zM448 405q9 0 15 -6t6 -15v-384q0 -9 -6 -15t-15 -6h-85q-9 0 -15.5 6t-6.5 15v384
q0 9 6.5 15t15.5 6h85zM405.5 0q17.5 0 30 12.5t12.5 30t-12.5 30t-30 12.5t-30 -12.5t-12.5 -30t12.5 -30t30 -12.5zM448 192v192h-85v-192h85zM427 42.5q0 -8.5 -6.5 -15t-15 -6.5t-15 6.5t-6.5 15t6.5 15t15 6.5t15 -6.5t6.5 -15z" />
    <glyph glyph-name="project" unicode="project" 
d="M405 363q12 0 22 -6t15.5 -15.5t5.5 -21.5v-299q0 -11 -5.5 -21t-15.5 -15.5t-22 -5.5h-298q-18 0 -30.5 12.5t-12.5 29.5v299q0 18 12.5 30.5t30.5 12.5h89q6 17 23.5 29.5t36.5 12.5t36.5 -12.5t23.5 -29.5h89zM256 363q-9 0 -15 -6.5t-6 -15t6 -15t15 -6.5t15 6.5
t6 15t-6 15t-15 6.5zM213 256l-85 -85l30 -30l55 55l60 -60l84 84l27 -28v85h-85l28 -27l-54 -54zM405 43v42h-298v-42h298z" />
    <glyph glyph-name="proxy" unicode="proxy" 
d="M320 248q13 -15 18 -35h46v43l64 -64l-64 -64v43h-46q-5 -19 -18 -34l98 -98l30 30v-90h-91l31 30l-103 103q-15 -5 -30 -5q-27 0 -51 18.5t-30 45.5h-52q-5 -9 -16 -15.5t-21 -6.5q-18 0 -30.5 12.5t-12.5 30.5t12.5 30.5t30.5 12.5q10 0 21 -6.5t16 -15.5h52
q6 27 30 45.5t51 18.5q15 0 29 -5l104 103l-31 30h91v-90l-30 30z" />
    <glyph glyph-name="pull_request" unicode="pull_request" 
d="M128 81q18 -6 30.5 -23.5t12.5 -36.5q0 -26 -19 -45t-45.5 -19t-45 19t-18.5 45q0 19 12.5 36.5t29.5 23.5v179q-17 6 -29.5 24t-12.5 36q0 27 18.5 45.5t45 18.5t45.5 -18.5t19 -45.5q0 -18 -12.5 -36t-30.5 -24v-179zM427 81q17 -6 29.5 -23.5t12.5 -36.5
q0 -26 -18.5 -45t-45 -19t-45.5 19t-19 45q0 12 6 24.5t15.5 22t21.5 13.5v218h-110l34 -34l-31 -30l-55 55l-30 30l30 30l55 55l31 -30l-34 -34h110q18 0 30.5 -12.5t12.5 -29.5v-218z" />
    <glyph glyph-name="push_pin" unicode="push_pin" 
d="M384 170v-43h-106l-1 -148h-42v148h-107v43l43 42v172h-21v42h213v-42h-21v-172z" />
    <glyph glyph-name="quota" unicode="quota" 
d="M256 192h192v-21q0 -89 -62.5 -151.5t-151 -62.5t-151 62.5t-62.5 151t62.5 151t151.5 62.5h21v-192zM299 235v192q79 0 135.5 -56.5t56.5 -135.5h-192z" />
    <glyph glyph-name="replica" unicode="replica" 
d="M405 213q18 0 30.5 -12.5t12.5 -29.5v-128q0 -18 -12.5 -30.5t-30.5 -12.5h-128q-17 0 -29.5 12.5t-12.5 30.5v128q0 17 12.5 29.5t29.5 12.5h128zM405 43v128h-128v-128h128zM256 384q18 0 30.5 -12.5t12.5 -30.5v-85h-43v85h-128v-128h64v-42h-64q-12 0 -21.5 5.5
t-15.5 15.5t-6 21v128q0 18 12.5 30.5t30.5 12.5h128z" />
    <glyph glyph-name="replica_set" unicode="replica_set" 
d="M448 171q18 0 30.5 -12.5t12.5 -30.5v-128q0 -18 -12.5 -30.5t-30.5 -12.5h-128q-18 0 -30.5 12.5t-12.5 30.5v128q0 18 12.5 30.5t30.5 12.5h128zM448 0v128h-128v-128h128zM341 299v-86h-42v86h-128v-128h64v-43h-64q-18 0 -30.5 12.5t-12.5 30.5v128q0 17 12.5 29.5
t30.5 12.5h128q17 0 29.5 -12.5t12.5 -29.5zM85 256h-42v128q0 9 3 16.5t9 13.5t14 9.5t16 3.5h128v-43h-128v-128z" />
    <glyph glyph-name="repositories" unicode="repositories" 
d="M171 -43v86h106v-86l-53 32zM171 299v42h42v-42h-42zM171 192v43h42v-43h-42zM171 85v43h42v-43h-42zM392 426q14 -3 24.5 -15t10.5 -27v-341q0 -12 -6 -22t-15.5 -15.5t-21.5 -5.5h-64v43h64v341h-256v-384q-18 0 -30.5 12.5t-12.5 30.5v341q0 18 12.5 30.5t30.5 12.5
h256q4 0 8 -1z" />
    <glyph glyph-name="role_binding" unicode="role_binding" 
d="M320 0v-43h-43q-35 0 -60 25t-25 60.5t25 60.5t60 25h43v-43h-43q-17 0 -29.5 -12.5t-12.5 -30t12.5 -30t29.5 -12.5h43zM491 43q0 -36 -25 -61t-61 -25h-42v43h42q18 0 30.5 12.5t12.5 30t-12.5 30t-30.5 12.5h-42v43h42q24 0 43.5 -11.5t31 -31t11.5 -42.5zM299 21v43
h85v-43h-85zM149 42.5q0 -10.5 2 -21.5h-108q-18 0 -30.5 12.5t-12.5 30.5v299q0 11 5.5 21t15.5 15.5t22 5.5h89q6 18 23.5 30.5t36.5 12.5t36.5 -12.5t23.5 -30.5h89q18 0 30.5 -12.5t12.5 -29.5v-192h-107q-29 0 -56 -14q-14 3 -29 3q-23 0 -52 -7.5t-52.5 -23
t-23.5 -35.5v-30h87q-2 -11 -2 -21.5zM192 405q-9 0 -15 -6t-6 -15t6 -15t15 -6t15 6t6 15t-6 15t-15 6zM192 320q-27 0 -45.5 -18.5t-18.5 -45.5q0 -26 19 -45t45 -19t45 19t19 45t-19 45t-45 19z" />
    <glyph glyph-name="route" unicode="route" 
d="M128.5 352q26.5 0 45 -18.5t18.5 -45.5q0 -21 -16 -50.5t-32 -48.5l-16 -19q-7 8 -17.5 21t-28 44.5t-17.5 52.5q0 27 18.5 45.5t45 18.5zM128.5 266q9.5 0 16 6.5t6.5 15.5q0 5 -2 9t-5 7.5t-7 5t-9 1.5q-9 0 -15.5 -6.5t-6.5 -16t6.5 -16t16 -6.5zM449 207q8 -5 14 -16
t6 -21q0 -17 -12 -29.5t-30 -12.5t-30.5 12.5t-12.5 29.5q0 11 6.5 21.5t15.5 15.5v92q0 26 -19 45t-45 19q-13 0 -24.5 -5t-20 -13t-14 -19.5t-5.5 -24.5v-5v-40v-171v-21q-1 -35 -26 -60t-60 -25t-60 25t-25 60v42h43v-41v0v-1q0 -17 12.5 -29.5t30 -12.5t30 12.5
t12.5 29.5v1v20v192v19v5q1 21 9.5 40t23 33t34 22t40.5 8q33 0 63 -22.5t39 -54.5q4 -14 5 -28v-92z" />
    <glyph glyph-name="sandbox" unicode="sandbox" 
d="M182 256q0 9 6.5 15.5t15 6.5t15 -6.5t6.5 -15.5t-6.5 -15t-15 -6t-15 6t-6.5 15zM214 192q0 9 6.5 15.5t15 6.5t15 -6.5t6.5 -15.5t-6.5 -15t-15 -6t-15 6t-6.5 15zM150 192q0 9 6.5 15.5t15 6.5t15 -6.5t6.5 -15.5t-6.5 -15t-15 -6t-15 6t-6.5 15zM405 251l43 43v-251
q0 -18 -12.5 -30.5t-30.5 -12.5h-298q-18 0 -30.5 12.5t-12.5 30.5v298q0 18 12.5 30.5t30.5 12.5h251l-43 -43h-208v-213h85q0 -26 19 -45t45 -19t45 19t19 45h85v123zM363 233q5 -7 2.5 -14t-10.5 -11l-27 -16v0q0 15 -10.5 25.5t-24.5 10.5h-1q-6 0 -12 -3q-3 6 -8 11
t-11.5 9t-12.5 5l25 41q4 8 11 10t13 -4l17 -16l-6 -6l31 -30l6 5zM339 245l-31 30l6 6l112 112l31 -30l-113 -113z" />
    <glyph glyph-name="satellite_alt" unicode="satellite_alt" 
d="M208 -54l-81 80q-1 -3 -3 -6t-4.5 -5t-6 -3.5t-6.5 -1.5q-9 0 -15 6.5t-6 15.5q0 7 4.5 12.5t11.5 7.5l-75 75q15 15 41.5 26t48.5 11q26 0 50 -10t41 -27t27 -40.5t10 -50.5q0 -21 -11 -47.5t-26 -42.5zM479 182q11 -10 11 -25t-11 -25l-80 -80q-11 -11 -25.5 -11
t-25.5 11l-62 62l-4 -3q-12 -12 -29 -12t-29 12l-16 16l-16 16q-12 12 -12 29.5t12 29.5l3 3l-63 63q-10 10 -10 25t10 25l81 81q10 10 25 10t25 -10l63 -63l18 18q12 12 29.5 12t29.5 -12l32 -32q12 -12 12 -29t-12 -30l-19 -18zM157 293l63 -63l81 80l-63 63zM374 77
l80 80l-63 63l-80 -80z" />
    <glyph glyph-name="science" unicode="science" 
d="M399 -21h-286q-20 0 -34.5 14.5t-14.5 34.5q0 14 8 26l19 31l101 161v138h-43v43h214v-43h-43v-138l101 -161l19 -31q8 -12 8 -26q0 -20 -14.5 -34.5t-34.5 -14.5z" />
    <glyph glyph-name="scientist" unicode="scientist" 
d="M170.5 85q31.5 0 69.5 -9t69.5 -29.5t31.5 -46.5v-64h-341v64q0 26 31.5 46.5t69.5 29.5t69.5 9zM85 192q0 35 25 60t60.5 25t60.5 -25t25 -60t-25 -60t-60.5 -25t-60.5 25t-25 60zM405 341q0 9 6.5 15.5t15.5 6.5t15 -6.5t6 -15.5t-6 -15t-15 -6t-15.5 6t-6.5 15z
M448 373.5q0 4.5 3 7.5t7.5 3t7.5 -3t3 -7.5t-3 -7.5t-7.5 -3t-7.5 3t-3 7.5zM427 416q0 4 3 7.5t7.5 3.5t7.5 -3.5t3 -7.5t-3 -7.5t-7.5 -3.5t-7.5 3.5t-3 7.5zM341 299h150v-22h-22v-213q0 -29 -14.5 -46.5t-38.5 -17.5t-38.5 18t-14.5 45v214h-22v22zM448 128v149h-64
v-21h21v-21h-21v-43h21v-21h-21v-43h21v-16h9q12 0 22 7z" />
    <glyph glyph-name="secret" unicode="secret" 
d="M384 245.5q0 -22.5 -15.5 -38t-37.5 -15.5t-38 15.5t-16 37.5q0 6 1 11h-44q1 -5 1 -11q0 -21 -15.5 -36t-37 -15t-36.5 15t-15 36.5t15 36.5t37 15q10 0 22 -5.5t19 -14.5h64q7 9 19.5 15.5t23.5 6.5q22 0 37.5 -15.5t15.5 -38zM427 341v-21h-342v21h64v64
q0 18 12.5 30.5t30.5 12.5h128q18 0 30.5 -12.5t12.5 -30.5v-64h64zM107 85l85 -85l-43 -43l22 -21h-171v64q0 35 25 60t60 25h22zM427 85q35 0 60 -25t25 -60v-64h-171l22 21l-43 43l85 85h22zM235 -64v85h42v-85h-42zM256 64l21 -43h-42z" />
    <glyph glyph-name="secure_data" unicode="secure_data" 
d="M304 128h-154v-43h133q-5 -12 -5 -25v-18h-214q-11 0 -21 6t-15.5 16t-5.5 21v299q0 17 12.5 29.5t29.5 12.5h342q17 0 29.5 -12.5t12.5 -29.5v-180q-20 9 -42 9h-171v-43h86q-14 -19 -17 -42zM406 256v42h-171v-42h171zM150 384v-43h256v43h-256zM107 85v43h-43v-43h43z
M107 341v43h-43v-43h43zM149 298v-42h43v42h-43zM150 170h42v43h-42v-43zM465 85q7 0 13 -4t9.5 -10.5t3.5 -13.5v-74q-1 -11 -9 -18.5t-19 -7.5h-117q-11 1 -18.5 9t-7.5 19v74q1 10 8.5 17.5t17.5 8.5v32q2 22 19.5 37.5t40.5 15.5q14 0 27.5 -7t22 -19t9.5 -27v-32z
M438 85v32q-1 12 -9.5 20t-20.5 8h-2h-3q-12 0 -20.5 -8t-8.5 -20v-32h64z" />
    <glyph glyph-name="self_healing" unicode="self_healing" 
d="M65 197q0 -42 20.5 -80t55.5 -63.5t77 -30.5v-44q-81 8 -139 72t-58 146q0 39 20.5 86t49.5 74l-48 48h131v-131l-52 52q-23 -22 -40 -59.5t-17 -69.5zM491 186q0 -39 -20.5 -86t-49.5 -73l48 -48h-132v131l53 -52q23 21 40 58.5t17 69.5q0 64 -45 115.5t-108 59.5v44
q81 -8 139 -72.5t58 -145.5v-1zM262 107l-11 10q-26 23 -37 34.5t-21 27t-10 29.5v1q0 18 12.5 30.5t30.5 12.5h1q21 0 35 -17q14 17 36 17q18 0 30.5 -12.5t12.5 -30.5v-1q0 -20 -15 -38.5t-52 -52.5z" />
    <glyph glyph-name="service" unicode="service" 
d="M64 0v64v64h21h22v-64v-64h-22h-21zM266 -21l-63 13l-62 15q-6 1 -9 6q-4 4 -4 9v1v85q0 6 3.5 10t9.5 6l102 12l102 13l3 -12l3 -12q0 -6 -3 -11t-8 -8l-43 -10l-43 -11l35 -14l35 -14l48 14l47 14q2 1 4 1q5 0 9 -2q6 -4 7 -10l4 -17l5 -16v-4q0 -4 -2 -8q-4 -5 -10 -7
l-77 -22l-78 -21h-4h-4h-5h-2zM192 363l15 -15l15 -15l-28 -28l-28 -28l28 -27l28 -28l-15 -15l-15 -15l-43 43l-42 42l42 43zM320 363l43 -43l42 -43l-42 -42l-43 -43l-15 15l-15 15l28 28l28 27l-28 28l-28 28l15 15z" />
    <glyph glyph-name="service_instance" unicode="service_instance" 
d="M64 0v64v64h22h21v-64v-64h-21h-22zM266 -21l-63 13l-62 14q-13 3 -13 15v86q0 5 4 10q3 4 9 5l102 13l102 14l3 -11l3 -12q0 -13 -12 -19l-42 -11l-43 -11l35 -14l34 -13l49 13l47 14q2 1 5 1q4 0 8 -2q6 -4 7 -10l4 -16l5 -17v-4q0 -12 -12 -15l-77 -21l-78 -22
q-4 -1 -8 -1h-2q-3 0 -5 1zM384 267l-74 -48l-75 -48v96v96l75 -48z" />
    <glyph glyph-name="service_plan" unicode="service_plan" 
d="M149 405q9 0 15.5 -6t6.5 -15v-384q0 -9 -6.5 -15t-15.5 -6h-85q-9 0 -15 6t-6 15v384q0 9 6 15t15 6h85zM106.5 0q17.5 0 30 12.5t12.5 30t-12.5 30t-29.5 12.5q-12 0 -22 -5.5t-15.5 -15.5t-5.5 -21q0 -18 12.5 -30.5t30 -12.5zM149 192v192h-85v-192h85zM86 42.5
q0 8.5 6 15t15 6.5t15 -6.5t6 -15t-6 -15t-15 -6.5t-15 6.5t-6 15zM299 362v43h170v-43h-170zM213 362v43h43v-43h-43zM299 277v43h170v-43h-170zM213 277v43h43v-43h-43zM299 192v43h170v-43h-170zM213 192v43h43v-43h-43z" />
    <glyph glyph-name="snapshot_rollback" unicode="snapshot_rollback" 
d="M85 405h86v-42h-86v-86h-42v86q0 17 12.5 29.5t29.5 12.5zM341 405h86q17 0 29.5 -12.5t12.5 -29.5v-86h-42v86h-86v42zM341 -21v42h86v86h42v-86q0 -17 -12.5 -29.5t-29.5 -12.5h-86zM85 21h86v-42h-86q-17 0 -29.5 12.5t-12.5 29.5v86h42v-86zM264 245q37 0 72.5 -25.5
t47.5 -60.5l-30 -10q-9 27 -35.5 46t-54.5 19q-18 0 -39 -9.5t-33 -23.5l43 -42h-107v106l43 -41q15 17 42.5 29t50.5 12z" />
    <glyph glyph-name="software" unicode="software" 
d="M299 57v-36h42v-42h-170v42h42v43h-149q-12 0 -21.5 5.5t-15.5 15.5t-6 22v256q0 17 12.5 29.5t30.5 12.5h384q18 0 30.5 -12.5t12.5 -29.5v-94q-17 27 -43 45v49h-384v-256h177q9 -14 26 -28.5t32 -21.5zM363 320q53 0 90.5 -37.5t37.5 -90.5t-37.5 -90.5t-90.5 -37.5
t-90.5 37.5t-37.5 90.5t37.5 90.5t90.5 37.5zM362.5 160q13.5 0 23 9.5t9.5 22.5t-9.5 22.5t-23 9.5t-22.5 -9.5t-9 -22.5t9 -22.5t22.5 -9.5z" />
    <glyph glyph-name="spinner" unicode="spinner" 
d="M235 299v106h42v-106h-42zM235 -21v106h42v-106h-42zM363 213h106v-42h-106v42zM43 213h106v-42h-106v42zM316 283l76 75l30 -30l-75 -76zM90 56l75 76l31 -31l-76 -75zM347 132l75 -76l-30 -30l-76 75zM120 358l76 -75l-31 -31l-75 76z" />
    <glyph glyph-name="state" unicode="state" 
d="M213 320h107v-256h-107v256zM299 171v128h-64v-128h64zM405 427q9 0 17 -3.5t13.5 -9.5t9 -13.5t3.5 -16.5v-384q0 -18 -12.5 -30.5t-30.5 -12.5h-277q-18 0 -30.5 12.5t-12.5 30.5v384q0 18 12.5 30.5t30.5 12.5h277zM405 0v384h-277v-384h277z" />
    <glyph glyph-name="stateful_set" unicode="stateful_set" 
d="M128 64h277v-43h-277q-18 0 -30.5 12.5t-12.5 30.5v0v277h43v-277zM43 -21h277v-43h-277q-18 0 -30.5 12.5t-12.5 30.5v0v277h43v-277zM331 261v0h1q22 0 43 5q19 4 36 13v-71q0 -11 -22 -21q-27 -11 -55 -11h-3.5h-2.5q-29 0 -56 11q-21 10 -21 21v71q16 -9 35 -13
q22 -5 44 -5h1v0zM331 357h3q29 0 55 -11q22 -10 22 -21t-22 -21q-26 -11 -55 -11h-3v0v0v0h-3q-29 0 -56 11q-21 10 -21 21t21 21q27 11 56 11h3v0v0v0zM448 427q12 0 21.5 -6t15.5 -15.5t6 -21.5v-235q0 -11 -6 -21t-15.5 -15.5t-21.5 -5.5h-235q-17 0 -29.5 12.5
t-12.5 29.5v235q0 18 12.5 30.5t29.5 12.5h235zM443 324v1q-1 14 -10.5 27t-21.5 19q-36 18 -76 18h-4v0v0h-5q-40 0 -75 -18q-13 -6 -22 -19t-10 -27v-117q1 -13 10 -26.5t22 -19.5q35 -18 75 -18h5v0v0v0h4q40 0 76 18q12 6 21.5 19.5t10.5 26.5v116z" />
    <glyph glyph-name="storage_class" unicode="storage_class" 
d="M469 363v-86h-426v86h426zM128 299v42h-43v-42h43zM439 132l52 -68l-52 -68q-11 -17 -32 -17h-2h-149q-9 0 -15 6t-6 15v128q0 9 6 15t15 6h149q21 0 34 -17zM256 192q-19 0 -36.5 -12.5t-23.5 -30.5h-153v86h426v-73q-7 8 -18 15t-23 11t-23 4h-149zM85 171h43v42h-43
v-42zM192 107v-86h-149v86h149zM85 43h43v42h-43v-42z" />
    <glyph glyph-name="subscription_management" unicode="subscription_management" 
d="M128 43h107v-86l-54 32l-53 -32v86zM427 427q7 0 13.5 -2.5t11.5 -6.5t9 -9t6 -11.5t2 -13.5v-341q0 -18 -12.5 -30.5t-29.5 -12.5h-64v-43l-54 32l-53 -32v470h171zM299 341v-42h42v42h-42zM299 235v-43h42v43h-42zM299 128v-43h42v43h-42zM85 427h150v-43h-150v-384
q-11 0 -21 5.5t-15.5 15.5t-5.5 22v341q0 18 12.5 30.5t29.5 12.5zM128 299v42h43v-42h-43zM128 192v43h43v-43h-43zM128 85v43h43v-43h-43z" />
    <glyph glyph-name="subscriptions_created" unicode="subscriptions_created" 
d="M86 277v43h341v-43h-341zM128 362v43h256v-43h-256zM427 235q8 0 16 -3.5t14 -9.5t9 -13.5t3 -16.5v-171q0 -17 -12.5 -29.5t-29.5 -12.5h-342q-17 0 -29.5 12.5t-12.5 29.5v171q0 5 1 10t3 9t5 7.5t6.5 6.5t8 5t9 3.5t9.5 1.5h342zM220 21l143 142l-30 30l-113 -113
l-41 40l-30 -30z" />
    <glyph glyph-name="symlink" unicode="symlink" 
d="M299 405l128 -128v-256q0 -17 -12.5 -29.5t-30.5 -12.5h-256q-18 0 -30.5 12.5t-12.5 29.5v342q0 17 12.5 29.5t30.5 12.5h171zM277 33l86 79l-86 80v-45q-104 -15 -128 -126q43 58 128 58v-46zM277 256h118l-118 117v-117z" />
    <glyph glyph-name="system_group" unicode="system_group" 
d="M363 427v-43h-299v-192h-43v192q0 18 12.5 30.5t30.5 12.5h299zM448 341q18 0 30.5 -12.5t12.5 -29.5v-214q0 -17 -12.5 -29.5t-30.5 -12.5h-118v-33h33v-31h-128v31h32v33h-118q-17 0 -29.5 12.5t-12.5 29.5v214q0 17 12.5 29.5t29.5 12.5h299zM448 85v214h-299v-214
h299z" />
    <glyph glyph-name="system_image" unicode="system_image" 
d="M363 384l42 21v-384q0 -17 -12.5 -29.5t-29.5 -12.5h-235q-18 0 -30.5 12.5t-12.5 29.5v320q0 18 12.5 30.5t30.5 12.5h235zM128 320v-43h171v43h-171zM213 21v43h-42v-43h42zM213 149v-42h86v42h-86zM363 21v43h-128v-43h128zM363 107v42h-43v-42h43zM363 192v43h-107
v-43h107zM363 277v43h-43v-43h43z" />
    <glyph glyph-name="system_ok" unicode="system_ok" 
d="M448 405q18 0 30.5 -12.5t12.5 -29.5v-256q0 -18 -12.5 -30.5t-30.5 -12.5h-149v-43h42v-42h-170v42h42v43h-149q-18 0 -30.5 12.5t-12.5 30.5v256q0 17 12.5 29.5t30.5 12.5h384zM229 156l155 155l-30 30l-125 -124l-71 71l-30 -30l101 -102v0z" />
    <glyph glyph-name="system_re_registered" unicode="system_re_registered" 
d="M448 405q18 0 30.5 -12.5t12.5 -29.5v-256q0 -12 -6 -22t-15.5 -15.5t-21.5 -5.5h-149v-43h42v-42h-170v42h42v43h-149q-12 0 -21.5 5.5t-15.5 15.5t-6 22v256q0 17 12.5 29.5t30.5 12.5h384zM448 256v107h-384v-107h107v64l85 -85l-85 -86v64h-107v-106h384v106h-149v43
h149z" />
    <glyph glyph-name="system_warning" unicode="system_warning" 
d="M448 405q18 0 30.5 -12.5t12.5 -29.5v-256q0 -12 -6 -22t-15.5 -15.5t-21.5 -5.5h-149v-43h42v-42h-170v42h42v43h-149q-12 0 -21.5 5.5t-15.5 15.5t-6 22v256q0 17 12.5 29.5t30.5 12.5h384zM448 107v256h-384v-256h384zM235 128v43h43v-43h-43zM235 214v128h43v-128
h-43z" />
    <glyph glyph-name="templates" unicode="templates" 
d="M405 405q12 0 22 -5.5t15.5 -15.5t5.5 -21v-342q0 -11 -5.5 -21t-15.5 -15.5t-22 -5.5h-298q-18 0 -30.5 12.5t-12.5 29.5v342q0 17 12.5 29.5t30.5 12.5h298zM405 167l-106 -60l106 -61v121zM256 131l107 61h-214zM107 363v-43h298v43h-298zM107 277v-42h170v42h-170z
M213 107l-106 61v-122zM256 82l-107 -61h214z" />
    <glyph glyph-name="terminal" unicode="terminal" 
d="M427 341q17 0 29.5 -12.5t12.5 -29.5v-214q0 -17 -12.5 -29.5t-29.5 -12.5h-342q-17 0 -29.5 12.5t-12.5 29.5v214q0 17 12.5 29.5t29.5 12.5h342zM128 85l107 107l-107 107l-30 -30l76 -77l-76 -77zM405 85v43h-149v-43h149z" />
    <glyph glyph-name="test_tube" unicode="test_tube" 
d="M256 213q0 9 6 15.5t15 6.5t15.5 -6.5t6.5 -15.5t-6.5 -15t-15.5 -6t-15 6t-6 15zM235 288q0 4 3 7.5t7.5 3.5t7.5 -3.5t3 -7.5t-3 -7.5t-7.5 -3.5t-7.5 3.5t-3 7.5zM256 330.5q0 4.5 3 7.5t7.5 3t7.5 -3t3 -7q0 -3 -1.5 -5.5t-3.5 -4t-5 -1.5q-5 0 -8 3t-3 7.5zM107 448
h298v-43h-42v-362q0 -44 -31.5 -75.5t-75.5 -31.5t-75.5 31.5t-31.5 75.5v362h-42v43zM320 405h-128v-277h21q0 9 6.5 15t15 6t15 -6t6.5 -15h64v277z" />
    <glyph glyph-name="timeout" unicode="timeout" 
d="M166 337l-31 31q23 15 58.5 26t62.5 11q88 0 150.5 -62.5t62.5 -150.5q0 -27 -11 -62.5t-26 -58.5l-31 31q10 17 18 43.5t8 46.5q0 71 -50 121t-121 50q-13 0 -30 -3.5t-33 -9.5t-27 -13zM434 14l-27 -28l-30 30q-23 -15 -58.5 -26t-62.5 -11q-88 0 -150.5 62.5
t-62.5 150.5q0 27 11 62.5t26 58.5l-30 30l28 27l27 -27l30 -30l100 -100v86h32v-112l96 -57l-16 -27l-6 4zM346 47l-123 124l-112 111q-10 -17 -18 -43.5t-8 -46.5q0 -71 50 -121t121 -50q20 0 46.5 8t43.5 18z" />
    <glyph glyph-name="troubleshooting" unicode="troubleshooting" 
d="M491 213h21v-42h-44q-7 -72 -63 -128t-128 -63v-44h-42v44q-47 5 -89.5 32t-69.5 69.5t-32 89.5h-44v42h44q7 72 63 128t128 63v44h42v-44q36 -3 69.5 -20t59 -42.5t42.5 -59t20 -69.5h23zM293 213h51q-6 22 -25.5 41.5t-41.5 25.5v-51q10 -6 16 -16zM344 171h-51
q-6 -10 -16 -16v-51q22 6 41.5 25.5t25.5 41.5zM235 361q-55 -7 -98 -50t-50 -98h48q7 35 36 64t64 36v48zM219 213q6 10 16 16v51q-22 -6 -41.5 -25.5t-25.5 -41.5h51zM235 155q-10 6 -16 16h-51q6 -22 25.5 -41.5t41.5 -25.5v51zM87 171q7 -55 50 -98t98 -50v48
q-35 7 -64 36t-36 64h-48zM277 23q55 7 98 50t50 98h-48q-7 -35 -36 -64t-64 -36v-48zM377 213h48q-7 55 -50 98t-98 50v-48q35 -7 64 -36t36 -64z" />
    <glyph glyph-name="trusted_organization" unicode="trusted_organization" 
d="M405 256q0 -21 -8.5 -45t-23.5 -45t-32 -33l64 -112l-47 -3l-27 -39l-74 128h-1h-1l-74 -128l-26 40l-48 2l64 112q-27 19 -45.5 55t-18.5 68q0 62 43.5 105.5t105.5 43.5t105.5 -43.5t43.5 -105.5zM149 256q0 -44 31.5 -75.5t75.5 -31.5t75.5 31.5t31.5 75.5t-31.5 75.5
t-75.5 31.5t-75.5 -31.5t-31.5 -75.5zM192 256q0 27 18.5 45.5t45.5 18.5t45.5 -18.5t18.5 -45.5t-18.5 -45.5t-45.5 -18.5t-45.5 18.5t-18.5 45.5z" />
    <glyph glyph-name="virtual_guest" unicode="virtual_guest" 
d="M448 405q18 0 30.5 -12.5t12.5 -29.5v-256q0 -12 -6 -22t-15.5 -15.5t-21.5 -5.5h-149v-43h42v-42h-170v42h42v43h-149q-12 0 -21.5 5.5t-15.5 15.5t-6 22v256q0 17 12.5 29.5t30.5 12.5h384zM448 107v256h-384v-256h384zM128 299q0 8 6.5 14.5t14.5 6.5h214
q8 0 14.5 -6.5t6.5 -14.5v-128q0 -9 -6.5 -15.5t-14.5 -6.5h-214q-8 0 -14.5 6.5t-6.5 15.5v128zM363 171v106h-214v-106h214z" />
    <glyph glyph-name="virtual_host_manager" unicode="virtual_host_manager" 
d="M433 63q10 -1 18 -7.5t13 -15.5t5 -19v-2v-1q-2 -16 -14.5 -27.5t-28.5 -11.5q-10 0 -20.5 6t-15.5 15h-268q-3 -6 -9.5 -11t-13.5 -7.5t-14 -2.5h-6q-15 3 -25.5 15t-10.5 27q0 10 6 21t15 16v268q-9 6 -15 16.5t-6 20.5q0 18 12.5 30.5t30.5 12.5q14 0 26.5 -10.5
t15.5 -24.5l177 -32q5 10 16 17t22 7q18 0 30 -12.5t12 -30.5q0 -20 -16 -33zM123 41q2 -5 4 -9h258v1l-40 23q-15 -14 -36 -14t-36.5 15t-16.5 36v1.5v1.5q0 14 7 26l-27 31q-9 -3 -20 -3q-7 0 -14 2l-82 -105q2 -3 3 -6zM320 284l-35 -29q6 -15 6 -30q0 -17 -10 -35.5
t-24 -27.5l20 -24q15 11 33 11q22 0 37.5 -15.5t15.5 -37.5v-2l-1 -1q0 -5 -1 -9l44 -26q3 2 6 3l-62 217h-7q-12 0 -22 6zM126 349l51 -61q18 11 39 11q15 0 31.5 -7.5t25.5 -18.5l32 27q-4 9 -5 18zM86 320v-256q9 0 17 -4l77 100q-16 8 -27 27t-11 38q0 28 19 49l-48 56
q-12 -10 -27 -10z" />
    <glyph glyph-name="virtual_reality" unicode="virtual_reality" 
d="M448 149v86h43v-86h-43zM21 149v86h43v-86h-43zM384 256q18 0 30.5 -12.5t12.5 -30.5v-42q0 -12 -6 -22t-15.5 -15.5t-21.5 -5.5q0 -18 -12.5 -30.5t-30.5 -12.5h-22l-34 60q-10 16 -29 16t-29 -16l-34 -60h-22q-18 0 -30.5 12.5t-12.5 30.5q-18 0 -30.5 12.5t-12.5 30.5
v42q0 18 12.5 30.5t30.5 12.5q0 18 12.5 30.5t30.5 12.5h170q9 0 17 -3.5t13.5 -9.5t9 -13.5t3.5 -16.5zM363 192v43h-214v-43h214z" />
    <glyph glyph-name="virtual_space" unicode="virtual_space" 
d="M256 405q88 0 150.5 -62.5t62.5 -150.5t-62.5 -150.5t-150.5 -62.5t-150.5 62.5t-62.5 150.5t62.5 150.5t150.5 62.5zM256 21q71 0 121 50t50 121t-50 121t-121 50t-121 -50t-50 -121t50 -121t121 -50zM224 288q0 7 2.5 12.5t7 10t10 7t12.5 2.5q13 0 22.5 -9.5
t9.5 -22.5t-9.5 -22.5t-22.5 -9.5t-22.5 9.5t-9.5 22.5zM224 96q0 13 9.5 22.5t22.5 9.5t22.5 -9.5t9.5 -22.5t-9.5 -22.5t-22.5 -9.5t-22.5 9.5t-9.5 22.5zM320 192q0 13 9.5 22.5t22.5 9.5t22.5 -9.5t9.5 -22.5t-9.5 -22.5t-22.5 -9.5t-22.5 9.5t-9.5 22.5zM128 192
q0 9 4.5 16t11.5 11.5t16 4.5q13 0 22.5 -9.5t9.5 -22.5t-9.5 -22.5t-22.5 -9.5t-22.5 9.5t-9.5 22.5zM235 192q0 9 6 15t15 6t15 -6t6 -15t-6 -15t-15 -6q-6 0 -11 2.5t-7.5 7.5t-2.5 11z" />
    <glyph glyph-name="volume" unicode="volume" 
d="M363 405q17 0 29.5 -12.5t12.5 -29.5v-342q0 -17 -12.5 -29.5t-29.5 -12.5h-214q-17 0 -29.5 12.5t-12.5 29.5v342q0 17 12.5 29.5t29.5 12.5h214zM149.5 384q-8.5 0 -15 -6.5t-6.5 -15t6.5 -15t15 -6.5t15 6.5t6.5 15t-6.5 15t-15 6.5zM149.5 0q8.5 0 15 6.5t6.5 15
t-6.5 15t-15 6.5t-15 -6.5t-6.5 -15t6.5 -15t15 -6.5zM256 149q44 0 75.5 31.5t31.5 75.5t-31.5 75.5t-75.5 31.5t-75.5 -31.5t-31.5 -75.5q0 -22 9 -43h55v-55q21 -9 43 -9zM362.5 0q8.5 0 15 6.5t6.5 15t-6.5 15t-15 6.5t-15 -6.5t-6.5 -15t6.5 -15t15 -6.5zM362.5 341
q8.5 0 15 6.5t6.5 15t-6.5 15t-15 6.5t-15 -6.5t-6.5 -15t6.5 -15t15 -6.5zM213 256q0 18 12.5 30.5t30.5 12.5t30.5 -12.5t12.5 -30.5t-12.5 -30.5t-30.5 -12.5t-30.5 12.5t-12.5 30.5z" />
    <glyph glyph-name="volume_binding" unicode="volume_binding" 
d="M128 43q0 -22 7 -43h-50q-17 0 -29.5 12.5t-12.5 30.5v341q0 18 12.5 30.5t29.5 12.5h214q8 0 16 -3.5t14 -9.5t9 -13.5t3 -16.5v-213h-85q-53 0 -90.5 -37.5t-37.5 -90.5zM298.5 405q-8.5 0 -15 -6t-6.5 -15t6.5 -15t15 -6t15 6t6.5 15t-6.5 15t-15 6zM192 384
q-44 0 -75.5 -31t-31.5 -75q0 -23 9 -43h55v-55q21 -9 43 -9q44 0 75.5 31t31.5 75t-31.5 75.5t-75.5 31.5zM85 405q-8 0 -14.5 -6t-6.5 -15q0 -6 3 -11t8 -7.5t10 -2.5q9 0 15.5 6t6.5 15q0 6 -3 11t-8 7.5t-11 2.5zM85 21q9 0 15.5 6.5t6.5 15.5q0 5 -3 10t-8 8t-11 3
q-8 0 -14.5 -6.5t-6.5 -14.5q0 -6 3 -11t8 -8t10 -3zM149 277.5q0 17.5 12.5 30t30.5 12.5t30.5 -12.5t12.5 -30t-12.5 -30t-30.5 -12.5t-30.5 12.5t-12.5 30zM277 21v43h86v-43h-86zM384 128q35 0 60 -25t25 -60.5t-25 -60.5t-60 -25h-43v43h43q18 0 30.5 12.5t12.5 30.5
q0 11 -6 21t-15.5 15.5t-21.5 5.5h-43v43h43zM299 0v-43h-43q-35 0 -60 25t-25 60.5t25 60.5t60 25h43v-43h-43q-12 0 -21.5 -5.5t-15.5 -15.5t-6 -21q0 -18 12.5 -30.5t30.5 -12.5h43z" />
    <glyph glyph-name="workload" unicode="workload" 
d="M85 320v-299h299v-42h-299q-17 0 -29.5 12.5t-12.5 29.5v299h42zM213 192v43h171v-43h-171zM213 128v43h171v-43h-171zM287 342l25 -43l-25 -43h-49l-25 43l25 43h49zM427 405q17 0 29.5 -12.5t12.5 -29.5v-256q0 -12 -5.5 -22t-15.5 -15.5t-21 -5.5h-256
q-18 0 -30.5 12.5t-12.5 30.5v256q0 11 5.5 21t15.5 15.5t22 5.5h256zM427 107v256h-256v-256h256z" />
    <glyph glyph-name="10k" unicode="&#x31;&#x30;k" 
d="M213 224h32v-64h-32v64zM405 384q18 0 30.5 -12.5t12.5 -30.5v-298q0 -18 -12.5 -30.5t-30.5 -12.5h-298q-18 0 -30.5 12.5t-12.5 30.5v298q0 18 12.5 30.5t30.5 12.5h298zM160 128v128h-64v-32h32v-96h32zM277 149v86q0 8 -6 14.5t-15 6.5h-53q-6 0 -11 -3t-8 -8t-3 -10
v-86q0 -8 6.5 -14.5t15.5 -6.5h53q9 0 15 6.5t6 14.5zM416 128l-48 64l48 64h-37l-38 -48v48h-32v-128h32v48l38 -48h37z" />
    <glyph glyph-name="10mp" unicode="&#x31;&#x30;mp" 
d="M288 299h32v-64h-32v64zM405 384q18 0 30.5 -12.5t12.5 -30.5v-298q0 -18 -12.5 -30.5t-30.5 -12.5h-298q-18 0 -30.5 12.5t-12.5 30.5v298q0 18 12.5 30.5t30.5 12.5h298zM256 53v107q0 9 -6.5 15t-14.5 6h-96q-9 0 -15.5 -6t-6.5 -15v-107h32v96h22v-64h32v64h21v-96
h32zM331 53v32h42q9 0 15.5 6.5t6.5 15.5v53q0 9 -6.5 15t-15.5 6h-74v-128h32zM213 331h-64v-32h32v-96h32v128zM352 224v85q0 9 -6.5 15.5t-14.5 6.5h-54q-5 0 -10 -3t-8 -8t-3 -11v-85q0 -9 6.5 -15t14.5 -6h54q8 0 14.5 6t6.5 15zM331 149h32v-32h-32v32z" />
    <glyph glyph-name="11mp" unicode="&#x31;&#x31;mp" 
d="M405 384q18 0 30.5 -12.5t12.5 -30.5v-298q0 -18 -12.5 -30.5t-30.5 -12.5h-298q-18 0 -30.5 12.5t-12.5 30.5v298q0 18 12.5 30.5t30.5 12.5h298zM256 53v107q0 9 -6.5 15t-14.5 6h-96q-9 0 -15.5 -6t-6.5 -15v-107h32v96h22v-64h32v64h21v-96h32zM331 53v32h42
q9 0 15.5 6.5t6.5 15.5v53q0 9 -6.5 15t-15.5 6h-74v-128h32zM235 331h-64v-32h32v-96h32v128zM341 331h-64v-32h32v-96h32v128zM331 149h32v-32h-32v32z" />
    <glyph glyph-name="12mp" unicode="&#x31;&#x32;mp" 
d="M405 384q18 0 30.5 -12.5t12.5 -30.5v-298q0 -18 -12.5 -30.5t-30.5 -12.5h-298q-18 0 -30.5 12.5t-12.5 30.5v298q0 18 12.5 30.5t30.5 12.5h298zM256 53v107q0 9 -6.5 15t-14.5 6h-96q-9 0 -15.5 -6t-6.5 -15v-107h32v96h22v-64h32v64h21v-96h32zM331 53v32h42
q9 0 15.5 6.5t6.5 15.5v53q0 9 -6.5 15t-15.5 6h-74v-128h32zM213 331h-64v-32h32v-96h32v128zM331 256q8 0 14.5 6.5t6.5 14.5v32q0 9 -6.5 15.5t-14.5 6.5h-75v-32h64v-22h-43q-8 0 -14.5 -6t-6.5 -15v-53h96v32h-64v21h43zM331 149h32v-32h-32v32z" />
    <glyph glyph-name="13mp" unicode="&#x31;&#x33;mp" 
d="M405 384q18 0 30.5 -12.5t12.5 -30.5v-298q0 -18 -12.5 -30.5t-30.5 -12.5h-298q-18 0 -30.5 12.5t-12.5 30.5v298q0 18 12.5 30.5t30.5 12.5h298zM256 53v107q0 9 -6.5 15t-14.5 6h-96q-9 0 -15.5 -6t-6.5 -15v-107h32v96h22v-64h32v64h21v-96h32zM331 53v32h42
q9 0 15.5 6.5t6.5 15.5v53q0 9 -6.5 15t-15.5 6h-74v-128h32zM213 331h-64v-32h32v-96h32v128zM352 224v85q0 9 -6.5 15.5t-14.5 6.5h-75v-32h64v-22h-43v-21h43v-21h-64v-32h75q8 0 14.5 6t6.5 15zM331 149h32v-32h-32v32z" />
    <glyph glyph-name="14mp" unicode="&#x31;&#x34;mp" 
d="M405 384q18 0 30.5 -12.5t12.5 -30.5v-298q0 -18 -12.5 -30.5t-30.5 -12.5h-298q-18 0 -30.5 12.5t-12.5 30.5v298q0 18 12.5 30.5t30.5 12.5h298zM256 53v107q0 9 -6.5 15t-14.5 6h-96q-9 0 -15.5 -6t-6.5 -15v-107h32v96h22v-64h32v64h21v-96h32zM331 53v32h42
q9 0 15.5 6.5t6.5 15.5v53q0 9 -6.5 15t-15.5 6h-74v-128h32zM213 331h-64v-32h32v-96h32v128zM373 235v32h-21v64h-32v-64h-32v64h-32v-96h64v-32h32v32h21zM331 149h32v-32h-32v32z" />
    <glyph glyph-name="15mp" unicode="&#x31;&#x35;mp" 
d="M405 384q18 0 30.5 -12.5t12.5 -30.5v-298q0 -18 -12.5 -30.5t-30.5 -12.5h-298q-18 0 -30.5 12.5t-12.5 30.5v298q0 18 12.5 30.5t30.5 12.5h298zM256 53v107q0 9 -6.5 15t-14.5 6h-96q-9 0 -15.5 -6t-6.5 -15v-107h32v96h22v-64h32v64h21v-96h32zM331 53v32h42
q9 0 15.5 6.5t6.5 15.5v53q0 9 -6.5 15t-15.5 6h-74v-128h32zM213 331h-64v-32h32v-96h32v128zM352 299v32h-96v-75h64v-21h-64v-32h75q8 0 14.5 6t6.5 15v32q0 9 -6.5 15t-14.5 6h-43v22h64zM331 149h32v-32h-32v32z" />
    <glyph glyph-name="16mp" unicode="&#x31;&#x36;mp" 
d="M288 256h32v-32h-32v32zM405 384q18 0 30.5 -12.5t12.5 -30.5v-298q0 -18 -12.5 -30.5t-30.5 -12.5h-298q-18 0 -30.5 12.5t-12.5 30.5v298q0 18 12.5 30.5t30.5 12.5h298zM256 53v107q0 9 -6.5 15t-14.5 6h-96q-9 0 -15.5 -6t-6.5 -15v-107h32v96h22v-64h32v64h21v-96
h32zM331 53v32h42q9 0 15.5 6.5t6.5 15.5v53q0 9 -6.5 15t-15.5 6h-74v-128h32zM213 331h-64v-32h32v-96h32v128zM277 203h54q8 0 14.5 6t6.5 15v32q0 9 -6.5 15t-14.5 6h-43v22h64v32h-75q-5 0 -10 -3t-8 -8t-3 -11v-85q0 -9 6.5 -15t14.5 -6zM331 149h32v-32h-32v32z" />
    <glyph glyph-name="17mp" unicode="&#x31;&#x37;mp" 
d="M405 384q18 0 30.5 -12.5t12.5 -30.5v-298q0 -18 -12.5 -30.5t-30.5 -12.5h-298q-18 0 -30.5 12.5t-12.5 30.5v298q0 18 12.5 30.5t30.5 12.5h298zM256 53v107q0 9 -6.5 15t-14.5 6h-96q-9 0 -15.5 -6t-6.5 -15v-107h32v96h22v-64h32v64h21v-96h32zM331 53v32h42
q9 0 15.5 6.5t6.5 15.5v53q0 9 -6.5 15t-15.5 6h-74v-128h32zM213 331h-64v-32h32v-96h32v128zM320 203l31 100q3 10 -3.5 19t-16.5 9h-75v-32h56l-29 -96h37zM331 149h32v-32h-32v32z" />
    <glyph glyph-name="18mp" unicode="&#x31;&#x38;mp" 
d="M405 384q18 0 30.5 -12.5t12.5 -30.5v-298q0 -18 -12.5 -30.5t-30.5 -12.5h-298q-18 0 -30.5 12.5t-12.5 30.5v298q0 18 12.5 30.5t30.5 12.5h298zM256 53v107q0 9 -6.5 15t-14.5 6h-96q-9 0 -15.5 -6t-6.5 -15v-107h32v96h22v-64h32v64h21v-96h32zM331 53v32h42
q9 0 15.5 6.5t6.5 15.5v53q0 9 -6.5 15t-15.5 6h-74v-128h32zM213 331h-64v-32h32v-96h32v128zM352 224v85q0 9 -6.5 15.5t-14.5 6.5h-54q-5 0 -10 -3t-8 -8t-3 -11v-85q0 -9 6.5 -15t14.5 -6h54q8 0 14.5 6t6.5 15zM288 224v32h32v-32h-32zM288 277v32h32v-32h-32zM331 149
h32v-32h-32v32z" />
    <glyph glyph-name="19mp" unicode="&#x31;&#x39;mp" 
d="M405 384q18 0 30.5 -12.5t12.5 -30.5v-298q0 -18 -12.5 -30.5t-30.5 -12.5h-298q-18 0 -30.5 12.5t-12.5 30.5v298q0 18 12.5 30.5t30.5 12.5h298zM256 235v-32h75q8 0 14.5 6t6.5 15v85q0 9 -6.5 15.5t-14.5 6.5h-54q-5 0 -10 -3t-8 -8t-3 -11v-32q0 -8 6.5 -14.5
t14.5 -6.5h43v-21h-64zM288 277v32h32v-32h-32zM149 331v-32h32v-96h32v128h-64zM256 53v107q0 9 -6.5 15t-14.5 6h-96q-9 0 -15.5 -6t-6.5 -15v-107h32v96h22v-64h32v64h21v-96h32zM395 107v53q0 9 -6.5 15t-15.5 6h-74v-128h32v32h42q9 0 15.5 6.5t6.5 15.5zM331 149h32
v-32h-32v32z" />
    <glyph glyph-name="1k" unicode="&#x31;k" 
d="M405 384q18 0 30.5 -12.5t12.5 -30.5v-298q0 -18 -12.5 -30.5t-30.5 -12.5h-298q-18 0 -30.5 12.5t-12.5 30.5v298q0 18 12.5 30.5t30.5 12.5h298zM224 128v128h-64v-32h32v-96h32zM373 128l-48 64l48 64h-37l-37 -48v48h-32v-128h32v48l37 -48h37z" />
    <glyph glyph-name="1k_plus" unicode="&#x31;k_plus" 
d="M405 384q18 0 30.5 -12.5t12.5 -30.5v-298q0 -18 -12.5 -30.5t-30.5 -12.5h-298q-18 0 -30.5 12.5t-12.5 30.5v298q0 18 12.5 30.5t30.5 12.5h298zM192 128v128h-64v-32h32v-96h32zM293 128h38l-48 64l48 64h-38l-37 -48v48h-32v-128h32v48zM416 181v22h-32v32h-21v-32
h-32v-22h32v-32h21v32h32z" />
    <glyph glyph-name="1x_mobiledata" unicode="&#x31;x_mobiledata" 
d="M85 299h86v-214h-43v171h-43v43zM338 198l67 -113h-50l-42 72l-43 -72h-50l68 113l-60 101h49l36 -59l35 59h50z" />
    <glyph glyph-name="20mp" unicode="&#x32;&#x30;mp" 
d="M309 299h32v-64h-32v64zM405 384q18 0 30.5 -12.5t12.5 -30.5v-298q0 -18 -12.5 -30.5t-30.5 -12.5h-298q-18 0 -30.5 12.5t-12.5 30.5v298q0 18 12.5 30.5t30.5 12.5h298zM256 53v107q0 9 -6.5 15t-14.5 6h-96q-9 0 -15.5 -6t-6.5 -15v-107h32v96h22v-64h32v64h21v-96
h32zM331 53v32h42q9 0 15.5 6.5t6.5 15.5v53q0 9 -6.5 15t-15.5 6h-74v-128h32zM373 224v85q0 9 -6 15.5t-15 6.5h-53q-9 0 -15.5 -6.5t-6.5 -15.5v-85q0 -9 6.5 -15t15.5 -6h53q9 0 15 6t6 15zM213 256q6 0 11 3t8 8t3 10v32q0 9 -6.5 15.5t-15.5 6.5h-74v-32h64v-22h-43
q-9 0 -15 -6t-6 -15v-53h96v32h-64v21h42zM331 149h32v-32h-32v32z" />
    <glyph glyph-name="21mp" unicode="&#x32;&#x31;mp" 
d="M405 384q18 0 30.5 -12.5t12.5 -30.5v-298q0 -18 -12.5 -30.5t-30.5 -12.5h-298q-18 0 -30.5 12.5t-12.5 30.5v298q0 18 12.5 30.5t30.5 12.5h298zM256 53v107q0 9 -6.5 15t-14.5 6h-96q-9 0 -15.5 -6t-6.5 -15v-107h32v96h22v-64h32v64h21v-96h32zM331 53v32h42
q9 0 15.5 6.5t6.5 15.5v53q0 9 -6.5 15t-15.5 6h-74v-128h32zM235 256q8 0 14.5 6.5t6.5 14.5v32q0 9 -6.5 15.5t-14.5 6.5h-75v-32h64v-22h-43q-8 0 -14.5 -6t-6.5 -15v-53h96v32h-64v21h43zM299 331v-32h32v-96h32v128h-64zM331 149h32v-32h-32v32z" />
    <glyph glyph-name="22mp" unicode="&#x32;&#x32;mp" 
d="M405 384q18 0 30.5 -12.5t12.5 -30.5v-298q0 -18 -12.5 -30.5t-30.5 -12.5h-298q-18 0 -30.5 12.5t-12.5 30.5v298q0 18 12.5 30.5t30.5 12.5h298zM256 53v107q0 9 -6.5 15t-14.5 6h-96q-9 0 -15.5 -6t-6.5 -15v-107h32v96h22v-64h32v64h21v-96h32zM331 53v32h42
q9 0 15.5 6.5t6.5 15.5v53q0 9 -6.5 15t-15.5 6h-74v-128h32zM213 256q6 0 11 3t8 8t3 10v32q0 9 -6.5 15.5t-15.5 6.5h-74v-32h64v-22h-43q-9 0 -15 -6t-6 -15v-53h96v32h-64v21h42zM352 256q9 0 15 6.5t6 14.5v32q0 9 -6 15.5t-15 6.5h-75v-32h64v-22h-42q-9 0 -15.5 -6
t-6.5 -15v-53h96v32h-64v21h43zM331 149h32v-32h-32v32z" />
    <glyph glyph-name="23mp" unicode="&#x32;&#x33;mp" 
d="M405 384q18 0 30.5 -12.5t12.5 -30.5v-298q0 -18 -12.5 -30.5t-30.5 -12.5h-298q-18 0 -30.5 12.5t-12.5 30.5v298q0 18 12.5 30.5t30.5 12.5h298zM256 53v107q0 9 -6.5 15t-14.5 6h-96q-9 0 -15.5 -6t-6.5 -15v-107h32v96h22v-64h32v64h21v-96h32zM331 53v32h42
q9 0 15.5 6.5t6.5 15.5v53q0 9 -6.5 15t-15.5 6h-74v-128h32zM213 256q6 0 11 3t8 8t3 10v32q0 9 -6.5 15.5t-15.5 6.5h-74v-32h64v-22h-43q-9 0 -15 -6t-6 -15v-53h96v32h-64v21h42zM373 224v85q0 9 -6 15.5t-15 6.5h-75v-32h64v-22h-42v-21h42v-21h-64v-32h75q9 0 15 6
t6 15zM331 149h32v-32h-32v32z" />
    <glyph glyph-name="24mp" unicode="&#x32;&#x34;mp" 
d="M405 384q18 0 30.5 -12.5t12.5 -30.5v-298q0 -18 -12.5 -30.5t-30.5 -12.5h-298q-18 0 -30.5 12.5t-12.5 30.5v298q0 18 12.5 30.5t30.5 12.5h298zM256 53v107q0 9 -6.5 15t-14.5 6h-96q-9 0 -15.5 -6t-6.5 -15v-107h32v96h22v-64h32v64h21v-96h32zM331 53v32h42
q9 0 15.5 6.5t6.5 15.5v53q0 9 -6.5 15t-15.5 6h-74v-128h32zM213 256q6 0 11 3t8 8t3 10v32q0 9 -6.5 15.5t-15.5 6.5h-74v-32h64v-22h-43q-9 0 -15 -6t-6 -15v-53h96v32h-64v21h42zM395 235v32h-22v64h-32v-64h-32v64h-32v-96h64v-32h32v32h22zM331 149h32v-32h-32v32z
" />
    <glyph glyph-name="2k" unicode="&#x32;k" 
d="M405 384q18 0 30.5 -12.5t12.5 -30.5v-298q0 -18 -12.5 -30.5t-30.5 -12.5h-298q-18 0 -30.5 12.5t-12.5 30.5v298q0 18 12.5 30.5t30.5 12.5h298zM213 181q9 0 15.5 6.5t6.5 15.5v32q0 8 -6.5 14.5t-15.5 6.5h-74v-32h64v-21h-43q-9 0 -15 -6.5t-6 -15.5v-53h96v32h-64
v21h42zM384 128l-48 64l48 64h-37l-38 -48v48h-32v-128h32v48l38 -48h37z" />
    <glyph glyph-name="2k_plus" unicode="&#x32;k_plus" 
d="M405 384q18 0 30.5 -12.5t12.5 -30.5v-298q0 -18 -12.5 -30.5t-30.5 -12.5h-298q-18 0 -30.5 12.5t-12.5 30.5v298q0 18 12.5 30.5t30.5 12.5h298zM203 203v32q0 8 -6.5 14.5t-15.5 6.5h-74v-32h64v-21h-43q-9 0 -15 -6.5t-6 -15.5v-53h96v32h-64v21h42q9 0 15.5 6.5
t6.5 15.5zM304 128h37l-48 64l48 64h-37l-37 -48v48h-32v-128h32v48zM427 181v22h-32v32h-22v-32h-32v-22h32v-32h22v32h32z" />
    <glyph glyph-name="2mp" unicode="&#x32;mp" 
d="M405 384q18 0 30.5 -12.5t12.5 -30.5v-298q0 -18 -12.5 -30.5t-30.5 -12.5h-298q-18 0 -30.5 12.5t-12.5 30.5v298q0 18 12.5 30.5t30.5 12.5h298zM256 53v107q0 9 -6.5 15t-14.5 6h-96q-9 0 -15.5 -6t-6.5 -15v-107h32v96h22v-64h32v64h21v-96h32zM331 53v32h42
q9 0 15.5 6.5t6.5 15.5v53q0 9 -6.5 15t-15.5 6h-74v-128h32zM288 256q9 0 15 6.5t6 14.5v32q0 9 -6 15.5t-15 6.5h-75v-32h64v-22h-42q-6 0 -11 -2.5t-8 -7.5t-3 -11v-53h96v32h-64v21h43zM331 149h32v-32h-32v32z" />
    <glyph glyph-name="30fps" unicode="&#x33;&#x30;fps" 
d="M43 341h128q17 0 32 -8.5t23.5 -23t8.5 -32.5v-40q0 -19 -13.5 -32t-31.5 -13q18 0 31.5 -13t13.5 -32v-40q0 -27 -19 -45.5t-45 -18.5h-128v64h128v53h-107v64h107v53h-128v64zM405 277h-85v-170h85v170zM405 341q27 0 45.5 -18.5t18.5 -45.5v-170q0 -27 -18.5 -45.5
t-45.5 -18.5h-85q-27 0 -45.5 18.5t-18.5 45.5v170q0 27 18.5 45.5t45.5 18.5h85z" />
    <glyph glyph-name="30fps_select" unicode="&#x33;&#x30;fps_select" 
d="M85 363h107q18 0 30.5 -12.5t12.5 -30.5v-32q0 -32 -22 -32q22 0 22 -32v-32q0 -18 -12.5 -30.5t-30.5 -12.5h-107v43h107v43h-85v42h85v43h-107v43zM384 363q18 0 30.5 -12.5t12.5 -30.5v-128q0 -18 -12.5 -30.5t-30.5 -12.5h-64q-18 0 -30.5 12.5t-12.5 30.5v128
q0 18 12.5 30.5t30.5 12.5h64zM384 320h-64v-128h64v128zM107 -21h-43v106h43v-106zM192 -21h-43v106h43v-106zM277 -21h-42v106h42v-106zM448 -21h-128v106h128v-106z" />
    <glyph glyph-name="360" unicode="&#x33;&#x36;&#x30;" 
d="M256 299q88 0 150.5 -31.5t62.5 -75.5q0 -32 -35 -58.5t-93 -39.5v44q39 10 62.5 25.5t23.5 28.5q0 12 -20 26.5t-61 26t-90 11.5t-90 -11.5t-61 -26t-20 -26.5q0 -15 30 -32.5t77 -25.5v58l85 -85l-85 -86v69q-66 11 -107.5 39t-41.5 63q0 22 16.5 41.5t45.5 34t68.5 23
t82.5 8.5z" />
    <glyph glyph-name="3d_rotation" unicode="&#x33;d_rotation" 
d="M160 -10l29 28l81 -81l-14 -1q-100 0 -173.5 68t-81.5 167h32q6 -60 40.5 -108t86.5 -73zM179 129q14 0 21 7t7 20q0 7 -2 12t-6 8q-4 4 -9.5 5.5t-13.5 1.5h-16v22h16q8 0 13 2t9 5q3 3 5 8t2 10q0 12 -7 19q-6 6 -19 6q-5 0 -10 -2q-4 -1 -8 -4q-3 -3 -5 -8
q-2 -4 -2 -9h-28q0 10 4 18t11 14t17 10q9 3 21 3q11 0 22 -3q10 -3 16 -9q7 -6 11 -15t4 -20q0 -5 -2 -10q-1 -5 -4 -10q-4 -5 -8 -9q-5 -4 -11 -7q7 -3 13 -7q5 -4 8 -9q3 -4 5 -11q2 -5 2 -12q0 -11 -5 -20q-4 -9 -11.5 -15.5t-17.5 -9.5t-22 -3q-11 0 -20 3q-10 3 -18 9
t-12 14.5t-4 20.5h27q0 -6 2 -10.5t6 -7.5q3 -3 8 -5t11 -2zM361.5 255.5q10.5 -10.5 16.5 -25.5q5 -16 5 -34v-8q0 -19 -5 -34q-6 -15 -16 -25q-10 -11 -25 -17q-14 -5 -32 -5h-49v170h50q18 0 31.5 -5.5t24 -16zM353 188v8q0 28 -12 43q-12 14 -35 14h-20v-123h19
q12 0 21 4t15 11q6 8 10 19q2 11 2 24zM256 448q100 0 173.5 -68t81.5 -166h-32q-4 39 -21 74.5t-44.5 62.5t-61.5 43l-29 -28l-81 81z" />
    <glyph glyph-name="3g_mobiledata" unicode="&#x33;g_mobiledata" 
d="M64 299h107q17 0 29.5 -12.5t12.5 -30.5v-32q0 -13 -9 -22.5t-23 -9.5q14 0 23 -9.5t9 -22.5v-32q0 -18 -12.5 -30.5t-29.5 -12.5h-107v43h107v43h-86v42h86v43h-107v43zM448 213v-85q0 -18 -12.5 -30.5t-30.5 -12.5h-106q-18 0 -30.5 12.5t-12.5 30.5v128
q0 18 12.5 30.5t30.5 12.5h106q18 0 30.5 -12.5t12.5 -30.5h-149v-128h106v43h-53v42h96z" />
    <glyph glyph-name="3k" unicode="&#x33;k" 
d="M405 384q18 0 30.5 -12.5t12.5 -30.5v-298q0 -18 -12.5 -30.5t-30.5 -12.5h-298q-18 0 -30.5 12.5t-12.5 30.5v298q0 18 12.5 30.5t30.5 12.5h298zM235 149v86q0 8 -6.5 14.5t-15.5 6.5h-74v-32h64v-21h-43v-22h43v-21h-64v-32h74q6 0 11 3t8 8t3 10zM384 128l-48 64
l48 64h-37l-38 -48v48h-32v-128h32v48l38 -48h37z" />
    <glyph glyph-name="3k_plus" unicode="&#x33;k_plus" 
d="M405 384q18 0 30.5 -12.5t12.5 -30.5v-298q0 -18 -12.5 -30.5t-30.5 -12.5h-298q-18 0 -30.5 12.5t-12.5 30.5v298q0 18 12.5 30.5t30.5 12.5h298zM203 149v86q0 8 -6.5 14.5t-15.5 6.5h-74v-32h64v-21h-43v-22h43v-21h-64v-32h74q9 0 15.5 6.5t6.5 14.5zM341 128l-48 64
l48 64h-37l-37 -48v48h-32v-128h32v48l37 -48h37zM427 181v22h-32v32h-22v-32h-32v-22h32v-32h22v32h32z" />
    </font>
</defs>
</svg>
