<svg xmlns="http://www.w3.org/2000/svg" width="29.817" height="12.18" viewBox="0 0 29.817 12.18">
  <path id="Path_630" data-name="Path 630" d="M232.721,642.253l1.635,1.635-1.635,1.635-1.635-1.635Zm4.41,3.315-4.41,4.41-4.409-4.409-4.409,4.409-6.09-6.09,6.09-6.09,3.863,3.863-3.863,3.863-1.635-1.635,2.182-2.182-.546-.546-2.728,2.728,2.728,2.728,8.818-8.818,8.819,8.818.546-.546-4.409-4.409,3.863-3.863,6.09,6.09-1.681,1.681-4.409-4.409-.546.546,4.409,4.409-3.863,3.863Zm-1.682-1.68-2.728-2.728-2.728,2.728,2.728,2.728Z" transform="translate(-217.813 -637.799)" fill="#ef0b1e"/>
</svg>
