<svg xmlns="http://www.w3.org/2000/svg" width="1280" height="1440" viewBox="0 0 1280 1440">
  <g id="Vector_Smart_Object" data-name="Vector Smart Object" transform="translate(801 248.685)">
    <g id="Vector_Smart_Object-2" data-name="Vector Smart Object" transform="translate(-800 -248.685)">
      <rect id="Rectangle_4120" data-name="Rectangle 4120" width="1279" height="14.65" fill="#30ba77"/>
      <rect id="Rectangle_4229" data-name="Rectangle 4229" width="1279" height="14.65" transform="translate(0 689)" fill="#30ba77"/>
      <rect id="Rectangle_4121" data-name="Rectangle 4121" width="1279" height="8.4" transform="translate(0 24.4)" fill="#90ebcd"/>
      <rect id="Rectangle_4233" data-name="Rectangle 4233" width="1279" height="8.4" transform="translate(0 188.4)" fill="#90ebcd"/>
      <rect id="Rectangle_4228" data-name="Rectangle 4228" width="1279" height="6.4" transform="translate(0 731.4)" fill="#90ebcd"/>
      <rect id="Rectangle_4230" data-name="Rectangle 4230" width="1279" height="24.4" transform="translate(0 755.4)" fill="#192072"/>
      <rect id="Rectangle_4227" data-name="Rectangle 4227" width="1279" height="24.4" transform="translate(0 596.4)" fill="#192072"/>
      <rect id="Rectangle_4231" data-name="Rectangle 4231" width="1279" height="6.53" transform="translate(0 60.6)" fill="#fe7c3f"/>
      <rect id="Rectangle_4226" data-name="Rectangle 4226" width="1279" height="6.53" transform="translate(0 643.6)" fill="#fe7c3f"/>
      <rect id="Rectangle_4123" data-name="Rectangle 4123" width="1279" height="19.53" transform="translate(0 83)" fill="#2453ff"/>
      <rect id="Rectangle_4225" data-name="Rectangle 4225" width="1279" height="19.53" transform="translate(0 655)" fill="#2453ff"/>
      <rect id="Rectangle_4124" data-name="Rectangle 4124" width="1279" height="4.77" transform="translate(0 107.4)" fill="#fff"/>
      <rect id="Rectangle_4235" data-name="Rectangle 4235" width="1279" height="4.77" transform="translate(0 307.4)" fill="#fff"/>
      <rect id="Rectangle_4224" data-name="Rectangle 4224" width="1279" height="3.77" transform="translate(0 685.4)" fill="#fff"/>
      <rect id="Rectangle_4234" data-name="Rectangle 4234" width="1279" height="9.77" transform="translate(0 737.4)" fill="#fff"/>
      <rect id="Rectangle_4125" data-name="Rectangle 4125" width="1279" height="14.65" transform="translate(0 145.7)" fill="#30ba77"/>
      <rect id="Rectangle_4126" data-name="Rectangle 4126" width="1279" height="8.41" transform="translate(0 166)" fill="#192072"/>
      <rect id="Rectangle_4232" data-name="Rectangle 4232" width="1279" height="11.41" transform="translate(0 112)" fill="#192072"/>
      <rect id="Rectangle_4236" data-name="Rectangle 4236" width="1279" height="24.41" transform="translate(0 283)" fill="#90ebcd"/>
      <rect id="Rectangle_4127" data-name="Rectangle 4127" width="1279" height="14.64" transform="translate(0 174.3)" fill="#2453ff"/>
      <rect id="Rectangle_4128" data-name="Rectangle 4128" width="1279" height="5.65" transform="translate(0 226.5)" fill="#fe7c3f"/>
      <rect id="Rectangle_4129" data-name="Rectangle 4129" width="1279" height="9.77" transform="translate(0 239.2)" fill="#90ebcd"/>
      <rect id="Rectangle_4223" data-name="Rectangle 4223" width="1279" height="9.77" transform="translate(0 567.2)" fill="#90ebcd"/>
      <rect id="Rectangle_4130" data-name="Rectangle 4130" width="1279" height="8.59" transform="translate(0 248.9)" fill="#30ba78"/>
      <rect id="Rectangle_4131" data-name="Rectangle 4131" width="1279" height="7.17" transform="translate(0 344.3)" fill="#2453ff"/>
      <rect id="Rectangle_4132" data-name="Rectangle 4132" width="1279" height="9.77" transform="translate(0 351.5)" fill="#192072"/>
      <rect id="Rectangle_4133" data-name="Rectangle 4133" width="1279" height="9.77" transform="translate(0 375.9)" fill="#2453ff"/>
      <rect id="Rectangle_4222" data-name="Rectangle 4222" width="1279" height="9.77" transform="translate(0 542.9)" fill="#2453ff"/>
      <rect id="Rectangle_4134" data-name="Rectangle 4134" width="1279" height="14.64" transform="translate(0 385.6)" fill="#fe7c3f"/>
      <rect id="Rectangle_4221" data-name="Rectangle 4221" width="1279" height="14.64" transform="translate(0 552.6)" fill="#fe7c3f"/>
      <rect id="Rectangle_4135" data-name="Rectangle 4135" width="1279" height="7.41" transform="translate(0 400.3)" fill="#fff"/>
      <rect id="Rectangle_4237" data-name="Rectangle 4237" width="1279" height="7.41" transform="translate(0 621.3)" fill="#fff"/>
      <rect id="Rectangle_4220" data-name="Rectangle 4220" width="1279" height="24.41" transform="translate(0 499.3)" fill="#30ba77"/>
      <rect id="Rectangle_4136" data-name="Rectangle 4136" width="1279" height="19.53" transform="translate(0 439.3)" fill="#192072"/>
      <rect id="Rectangle_4137" data-name="Rectangle 4137" width="1279" height="9.77" transform="translate(0 463.8)" fill="#30ba77"/>
      <rect id="Rectangle_4138" data-name="Rectangle 4138" width="1279" height="9.77" transform="translate(0 488.2)" fill="#90ebcd"/>
      <rect id="Rectangle_4139" data-name="Rectangle 4139" width="1279" height="1.47" transform="translate(0 497.9)" fill="#2453ff"/>
      <rect id="Rectangle_4238" data-name="Rectangle 4238" width="1279" height="4.77" transform="translate(0 220.4)" fill="#fff"/>
    </g>
    <g id="Vector_Smart_Object-3" data-name="Vector Smart Object" transform="translate(-801 411.515)">
      <rect id="Rectangle_4120-2" data-name="Rectangle 4120" width="1279" height="14.65" fill="#30ba77"/>
      <rect id="Rectangle_4229-2" data-name="Rectangle 4229" width="1279" height="14.65" transform="translate(0 689)" fill="#30ba77"/>
      <rect id="Rectangle_4121-2" data-name="Rectangle 4121" width="1279" height="8.4" transform="translate(0 24.4)" fill="#90ebcd"/>
      <rect id="Rectangle_4233-2" data-name="Rectangle 4233" width="1279" height="8.4" transform="translate(0 188.4)" fill="#90ebcd"/>
      <rect id="Rectangle_4228-2" data-name="Rectangle 4228" width="1279" height="6.4" transform="translate(0 731.4)" fill="#90ebcd"/>
      <rect id="Rectangle_4230-2" data-name="Rectangle 4230" width="1279" height="24.4" transform="translate(0 755.4)" fill="#192072"/>
      <rect id="Rectangle_4227-2" data-name="Rectangle 4227" width="1279" height="24.4" transform="translate(0 596.4)" fill="#192072"/>
      <rect id="Rectangle_4231-2" data-name="Rectangle 4231" width="1279" height="6.53" transform="translate(0 60.6)" fill="#fe7c3f"/>
      <rect id="Rectangle_4226-2" data-name="Rectangle 4226" width="1279" height="6.53" transform="translate(0 643.6)" fill="#fe7c3f"/>
      <rect id="Rectangle_4123-2" data-name="Rectangle 4123" width="1279" height="19.53" transform="translate(0 83)" fill="#2453ff"/>
      <rect id="Rectangle_4225-2" data-name="Rectangle 4225" width="1279" height="19.53" transform="translate(0 655)" fill="#2453ff"/>
      <rect id="Rectangle_4124-2" data-name="Rectangle 4124" width="1279" height="4.77" transform="translate(0 107.4)" fill="#fff"/>
      <rect id="Rectangle_4235-2" data-name="Rectangle 4235" width="1279" height="4.77" transform="translate(0 307.4)" fill="#fff"/>
      <rect id="Rectangle_4224-2" data-name="Rectangle 4224" width="1279" height="3.77" transform="translate(0 685.4)" fill="#fff"/>
      <rect id="Rectangle_4234-2" data-name="Rectangle 4234" width="1279" height="9.77" transform="translate(0 737.4)" fill="#fff"/>
      <rect id="Rectangle_4125-2" data-name="Rectangle 4125" width="1279" height="14.65" transform="translate(0 145.7)" fill="#30ba77"/>
      <rect id="Rectangle_4126-2" data-name="Rectangle 4126" width="1279" height="8.41" transform="translate(0 166)" fill="#192072"/>
      <rect id="Rectangle_4232-2" data-name="Rectangle 4232" width="1279" height="11.41" transform="translate(0 112)" fill="#192072"/>
      <rect id="Rectangle_4236-2" data-name="Rectangle 4236" width="1279" height="24.41" transform="translate(0 283)" fill="#90ebcd"/>
      <rect id="Rectangle_4127-2" data-name="Rectangle 4127" width="1279" height="14.64" transform="translate(0 174.3)" fill="#2453ff"/>
      <rect id="Rectangle_4128-2" data-name="Rectangle 4128" width="1279" height="5.65" transform="translate(0 226.5)" fill="#fe7c3f"/>
      <rect id="Rectangle_4129-2" data-name="Rectangle 4129" width="1279" height="9.77" transform="translate(0 239.2)" fill="#90ebcd"/>
      <rect id="Rectangle_4223-2" data-name="Rectangle 4223" width="1279" height="9.77" transform="translate(0 567.2)" fill="#90ebcd"/>
      <rect id="Rectangle_4130-2" data-name="Rectangle 4130" width="1279" height="8.59" transform="translate(0 248.9)" fill="#30ba78"/>
      <rect id="Rectangle_4131-2" data-name="Rectangle 4131" width="1279" height="7.17" transform="translate(0 344.3)" fill="#2453ff"/>
      <rect id="Rectangle_4132-2" data-name="Rectangle 4132" width="1279" height="9.77" transform="translate(0 351.5)" fill="#192072"/>
      <rect id="Rectangle_4133-2" data-name="Rectangle 4133" width="1279" height="9.77" transform="translate(0 375.9)" fill="#2453ff"/>
      <rect id="Rectangle_4222-2" data-name="Rectangle 4222" width="1279" height="9.77" transform="translate(0 542.9)" fill="#2453ff"/>
      <rect id="Rectangle_4134-2" data-name="Rectangle 4134" width="1279" height="14.64" transform="translate(0 385.6)" fill="#fe7c3f"/>
      <rect id="Rectangle_4221-2" data-name="Rectangle 4221" width="1279" height="14.64" transform="translate(0 552.6)" fill="#fe7c3f"/>
      <rect id="Rectangle_4135-2" data-name="Rectangle 4135" width="1279" height="7.41" transform="translate(0 400.3)" fill="#fff"/>
      <rect id="Rectangle_4237-2" data-name="Rectangle 4237" width="1279" height="7.41" transform="translate(0 621.3)" fill="#fff"/>
      <rect id="Rectangle_4220-2" data-name="Rectangle 4220" width="1279" height="24.41" transform="translate(0 499.3)" fill="#30ba77"/>
      <rect id="Rectangle_4136-2" data-name="Rectangle 4136" width="1279" height="19.53" transform="translate(0 439.3)" fill="#192072"/>
      <rect id="Rectangle_4137-2" data-name="Rectangle 4137" width="1279" height="9.77" transform="translate(0 463.8)" fill="#30ba77"/>
      <rect id="Rectangle_4138-2" data-name="Rectangle 4138" width="1279" height="9.77" transform="translate(0 488.2)" fill="#90ebcd"/>
      <rect id="Rectangle_4139-2" data-name="Rectangle 4139" width="1279" height="1.47" transform="translate(0 497.9)" fill="#2453ff"/>
      <rect id="Rectangle_4238-2" data-name="Rectangle 4238" width="1279" height="4.77" transform="translate(0 220.4)" fill="#fff"/>
    </g>
  </g>
</svg>
