<svg xmlns="http://www.w3.org/2000/svg" width="66" height="42" viewBox="0 0 66 42">
    <g fill="none" fill-rule="evenodd">
        <path d="M-3-15h72v72H-3z"/>
        <path fill="#AAB630" fill-rule="nonzero" d="M45 18c4.98 0 8.97-4.02 8.97-9S49.98 0 45 0s-9 4.02-9 9 4.02 9 9 9zm-24 0c4.98 0 8.97-4.02 8.97-9S25.98 0 21 0s-9 4.02-9 9 4.02 9 9 9zm0 6c-6.99 0-21 3.51-21 10.5V42h42v-7.5C42 27.51 27.99 24 21 24zm24 0c-.87 0-1.86.06-2.91.15C45.57 26.67 48 30.06 48 34.5V42h18v-7.5C66 27.51 51.99 24 45 24z"/>
    </g>
</svg>
