<svg xmlns="http://www.w3.org/2000/svg" width="168" height="24" viewBox="0 0 168 24"><g id="Group_58" data-name="Group 58" transform="translate(-2151.068 -1537.085)"><g id="Group_60" data-name="Group 60"><g id="Group_62" data-name="Group 62"><g id="Rectangle_278" data-name="Rectangle 278"><rect id="Rectangle_1959" data-name="Rectangle 1959" width="24" height="24" transform="translate(2247.068 1537.085)" fill="#fff"/></g><g id="Path_18" data-name="Path 18"><path id="Path_628" data-name="Path 628" d="M2267.1,1543.984a7.368,7.368,0,0,1-1.887.521,3.1,3.1,0,0,0,1.431-1.822,6.77,6.77,0,0,1-2.082.813,3.291,3.291,0,0,0-5.694,2.245,2.742,2.742,0,0,0,.1.748,9.284,9.284,0,0,1-6.8-3.448,3.584,3.584,0,0,0-.423,1.659,3.286,3.286,0,0,0,1.464,2.733,3.319,3.319,0,0,1-1.5-.423v.033a3.283,3.283,0,0,0,2.639,3.221,3.008,3.008,0,0,1-1.5.065,3.3,3.3,0,0,0,3.059,2.278,6.642,6.642,0,0,1-4.1,1.4,6.364,6.364,0,0,1-.781-.033,9.184,9.184,0,0,0,5.076,1.5,9.306,9.306,0,0,0,9.371-9.24v-.558A6.727,6.727,0,0,0,2267.1,1543.984Z" fill="#0c322c"/></g></g></g><g id="Group_59" data-name="Group 59"><g id="Rectangle_279" data-name="Rectangle 279"><rect id="Rectangle_1960" data-name="Rectangle 1960" width="24" height="24" transform="translate(2199.068 1537.085)" fill="#fff"/></g><g id="iconfinder_06-facebook_104498" data-name="iconfinder 06-facebook 104498"><path id="Path_629" data-name="Path 629" d="M2214.5,1546.266h-2.532V1544.6a.676.676,0,0,1,.575-.763.646.646,0,0,1,.125-.006h1.787v-2.741l-2.457-.006a3.116,3.116,0,0,0-3.353,3.353v1.828h-1.58v2.819h1.58v8h3.323v-8h2.242Z" fill="#0c322c"/></g></g><g id="Group_61" data-name="Group 61"><g id="Group_63" data-name="Group 63"><g id="Rectangle_280" data-name="Rectangle 280"><rect id="Rectangle_1961" data-name="Rectangle 1961" width="24" height="24" transform="translate(2295.068 1537.085)" fill="#fff"/></g><g id="iconfinder_201-LinkedIn_192159" data-name="iconfinder 201-LinkedIn 192159"><g id="Path_19" data-name="Path 19"><path id="Path_630" data-name="Path 630" d="M2311.87,1556.689v-6.058a1.8,1.8,0,0,0-1.747-1.621,1.9,1.9,0,0,0-1.854,1.541v6.138h-3.23l.053-10.007h3.124l-.025,1.262a3.139,3.139,0,0,1,3.106-1.644c2.453,0,3.565,1.41,3.772,4.047v6.347Zm-10.791-11.429a1.788,1.788,0,1,1,.438,0A1.789,1.789,0,0,1,2301.079,1545.26Zm1.993,11.441H2299.1v-9.994l3.97-.025Z" fill="#0c322c"/></g></g></g></g><g id="Group_58-2" data-name="Group 58-2"><g id="Rectangle_281" data-name="Rectangle 281"><rect id="Rectangle_1962" data-name="Rectangle 1962" width="24" height="24" transform="translate(2151.068 1537.085)" fill="#fff"/></g><g id="iconfinder_40-google-plus_104464" data-name="iconfinder 40-google-plus 104464"><g id="Path_20" data-name="Path 20"><path id="Path_631" data-name="Path 631" d="M2170.587,1547.62h-2.367v-2.37a.328.328,0,0,0-.327-.327h-.674a.327.327,0,0,0-.328.327v2.37h-2.367a.328.328,0,0,0-.327.328v.672a.326.326,0,0,0,.327.327h2.367v2.367a.326.326,0,0,0,.327.327h.675a.327.327,0,0,0,.327-.327v-2.369h2.367a.328.328,0,0,0,.327-.325v-.674A.329.329,0,0,0,2170.587,1547.62Z" fill="#0c322c"/></g><g id="Path_21" data-name="Path 21"><path id="Path_632" data-name="Path 632" d="M2162.639,1549.691a2.759,2.759,0,0,1-.958-1.028c0-.289.026-.427.675-.933a3.1,3.1,0,0,0,1.3-2.431,3.241,3.241,0,0,0-.683-2.077h.334a.323.323,0,0,0,.192-.062l.931-.674a.327.327,0,0,0-.191-.592h-4.165a4.248,4.248,0,0,0-1.373.237,3.577,3.577,0,0,0-2.578,3.142,3.344,3.344,0,0,0,3.338,3.35h.062a1.732,1.732,0,0,0-.057.44,1.631,1.631,0,0,0,.225.829h-.05a4.547,4.547,0,0,0-4.168,2.265,2.475,2.475,0,0,0-.25,1.057,1.982,1.982,0,0,0,.26.98,3.707,3.707,0,0,0,2.419,1.562,7.789,7.789,0,0,0,1.911.228,6.15,6.15,0,0,0,1.7-.231,3.4,3.4,0,0,0,2.717-3.1A3.222,3.222,0,0,0,2162.639,1549.691Zm-5.259,3.079c0-.979,1.244-1.837,2.661-1.837h.038a3.225,3.225,0,0,1,.893.136l.281.192c.657.447,1.09.742,1.211,1.216a1.573,1.573,0,0,1,.043.354c0,1.219-.909,1.836-2.7,1.836A2.186,2.186,0,0,1,2157.38,1552.77Zm1.29-9.246a1.091,1.091,0,0,1,.837-.386h.037a2.461,2.461,0,0,1,1.963,2.285,2.228,2.228,0,0,1-.41,1.735,1.084,1.084,0,0,1-.847.387h-.016c-.9-.028-1.8-1.092-1.962-2.323A2.146,2.146,0,0,1,2158.67,1543.524Z" fill="#0c322c"/></g></g></g></g></svg>