<svg xmlns="http://www.w3.org/2000/svg" width="163.523" height="12.733" viewBox="0 0 163.523 12.733"><path d="M-77.835.119a5.068,5.068,0,0,1-2.1-.417,3.5,3.5,0,0,1-1.453-1.156,2.962,2.962,0,0,1-.544-1.709h1.649a2.171,2.171,0,0,0,.688,1.4,2.471,2.471,0,0,0,1.759.569,2.571,2.571,0,0,0,1.743-.552,1.793,1.793,0,0,0,.637-1.42,1.611,1.611,0,0,0-.374-1.1,2.389,2.389,0,0,0-.935-.646,14.609,14.609,0,0,0-1.513-.476A13.324,13.324,0,0,1-80.155-6a3.025,3.025,0,0,1-1.207-.961,2.822,2.822,0,0,1-.5-1.76,3.049,3.049,0,0,1,.493-1.717,3.212,3.212,0,0,1,1.385-1.156A4.878,4.878,0,0,1-77.937-12a4.291,4.291,0,0,1,2.729.833,3.077,3.077,0,0,1,1.2,2.21h-1.7a1.834,1.834,0,0,0-.714-1.2,2.536,2.536,0,0,0-1.666-.519,2.414,2.414,0,0,0-1.581.5,1.712,1.712,0,0,0-.612,1.4,1.52,1.52,0,0,0,.365,1.054,2.356,2.356,0,0,0,.9.621q.536.212,1.5.484a14.13,14.13,0,0,1,1.887.637,3.147,3.147,0,0,1,1.224.969,2.818,2.818,0,0,1,.51,1.776A3.12,3.12,0,0,1-74.35-1.6,3.374,3.374,0,0,1-75.71-.357,4.488,4.488,0,0,1-77.835.119ZM-70.1-11.849v7.5a3.172,3.172,0,0,0,.773,2.346,2.925,2.925,0,0,0,2.151.765,2.9,2.9,0,0,0,2.133-.765,3.172,3.172,0,0,0,.773-2.346v-7.5h1.547v7.48a4.838,4.838,0,0,1-.6,2.49,3.735,3.735,0,0,1-1.607,1.5,5.112,5.112,0,0,1-2.269.493,5.112,5.112,0,0,1-2.27-.493,3.684,3.684,0,0,1-1.6-1.5,4.894,4.894,0,0,1-.587-2.49v-7.48ZM-56.381.119A5.068,5.068,0,0,1-58.48-.3a3.5,3.5,0,0,1-1.453-1.156,2.962,2.962,0,0,1-.544-1.709h1.649a2.171,2.171,0,0,0,.688,1.4,2.471,2.471,0,0,0,1.76.569,2.571,2.571,0,0,0,1.742-.552A1.793,1.793,0,0,0-54-3.162a1.611,1.611,0,0,0-.374-1.1,2.389,2.389,0,0,0-.935-.646,14.609,14.609,0,0,0-1.513-.476A13.325,13.325,0,0,1-58.7-6a3.025,3.025,0,0,1-1.207-.961,2.821,2.821,0,0,1-.5-1.76,3.049,3.049,0,0,1,.493-1.717,3.212,3.212,0,0,1,1.386-1.156A4.878,4.878,0,0,1-56.483-12a4.291,4.291,0,0,1,2.729.833,3.077,3.077,0,0,1,1.2,2.21h-1.7a1.834,1.834,0,0,0-.714-1.2,2.536,2.536,0,0,0-1.666-.519,2.414,2.414,0,0,0-1.581.5,1.712,1.712,0,0,0-.612,1.4,1.52,1.52,0,0,0,.366,1.054,2.356,2.356,0,0,0,.9.621q.535.212,1.5.484a14.131,14.131,0,0,1,1.887.637,3.147,3.147,0,0,1,1.224.969,2.818,2.818,0,0,1,.51,1.776A3.12,3.12,0,0,1-52.9-1.6a3.374,3.374,0,0,1-1.36,1.241A4.488,4.488,0,0,1-56.381.119Zm7.769-10.71V-6.63h4.318v1.275h-4.318v4.08h4.828V0h-6.375V-11.866h6.375v1.275Zm19.635,2.21a3.273,3.273,0,0,1-1.011,2.456,4.29,4.29,0,0,1-3.086.978h-2.278V0H-36.9V-11.849h3.825a4.336,4.336,0,0,1,3.052.969A3.253,3.253,0,0,1-28.977-8.381Zm-4.1,2.159a2.75,2.75,0,0,0,1.9-.561,2.059,2.059,0,0,0,.612-1.6q0-2.193-2.516-2.193h-2.278v4.352ZM-25.509-7.8a2.968,2.968,0,0,1,1.165-1.241A3.6,3.6,0,0,1-22.5-9.486v1.6h-.408q-2.6,0-2.6,2.822V0h-1.547V-9.316h1.547ZM-16.652.153a4.77,4.77,0,0,1-2.372-.595,4.236,4.236,0,0,1-1.666-1.691,5.186,5.186,0,0,1-.6-2.542,5.037,5.037,0,0,1,.62-2.524,4.276,4.276,0,0,1,1.691-1.683,4.907,4.907,0,0,1,2.4-.587,4.907,4.907,0,0,1,2.4.587A4.291,4.291,0,0,1-12.5-7.208a5.024,5.024,0,0,1,.62,2.533,4.964,4.964,0,0,1-.638,2.542A4.419,4.419,0,0,1-14.238-.442,4.948,4.948,0,0,1-16.652.153Zm0-1.36A3.267,3.267,0,0,0-15.088-1.6a2.975,2.975,0,0,0,1.182-1.173,3.757,3.757,0,0,0,.45-1.9,3.815,3.815,0,0,0-.442-1.9,2.894,2.894,0,0,0-1.156-1.165A3.225,3.225,0,0,0-16.6-8.126a3.21,3.21,0,0,0-1.556.382,2.8,2.8,0,0,0-1.131,1.165,3.939,3.939,0,0,0-.425,1.9A4.046,4.046,0,0,0-19.3-2.754,2.768,2.768,0,0,0-18.182-1.59,3.128,3.128,0,0,0-16.652-1.207Zm6.239-3.485A5.233,5.233,0,0,1-9.835-7.2a4.194,4.194,0,0,1,1.59-1.675,4.392,4.392,0,0,1,2.269-.595,4.214,4.214,0,0,1,2.023.5A3.619,3.619,0,0,1-2.525-7.65v-4.93H-.961V0H-2.525V-1.751A3.62,3.62,0,0,1-3.885-.383,4.048,4.048,0,0,1-5.993.153,4.267,4.267,0,0,1-8.245-.459a4.273,4.273,0,0,1-1.59-1.717A5.347,5.347,0,0,1-10.413-4.692Zm7.888.017A3.787,3.787,0,0,0-2.95-6.511,3,3,0,0,0-4.1-7.709a3.126,3.126,0,0,0-1.589-.416,3.13,3.13,0,0,0-1.581.408,2.96,2.96,0,0,0-1.139,1.19,3.787,3.787,0,0,0-.425,1.836,3.875,3.875,0,0,0,.425,1.861A3.007,3.007,0,0,0-7.268-1.623a3.08,3.08,0,0,0,1.581.416A3.126,3.126,0,0,0-4.1-1.623,2.988,2.988,0,0,0-2.95-2.831,3.837,3.837,0,0,0-2.525-4.675ZM9.919-9.316V0H8.372V-1.377A3.012,3.012,0,0,1,7.14-.264,3.807,3.807,0,0,1,5.4.136,4.177,4.177,0,0,1,3.442-.315,3.275,3.275,0,0,1,2.074-1.666a4.449,4.449,0,0,1-.5-2.193V-9.316H3.1v5.253a2.97,2.97,0,0,0,.7,2.116,2.49,2.49,0,0,0,1.9.74,2.544,2.544,0,0,0,1.955-.765A3.149,3.149,0,0,0,8.372-4.2V-9.316Zm2.04,4.641A5.27,5.27,0,0,1,12.537-7.2a4.159,4.159,0,0,1,1.606-1.675A4.616,4.616,0,0,1,16.5-9.469a4.6,4.6,0,0,1,2.83.833A3.932,3.932,0,0,1,20.8-6.324H19.133a2.392,2.392,0,0,0-.927-1.343A2.859,2.859,0,0,0,16.5-8.16a2.741,2.741,0,0,0-2.142.91,3.726,3.726,0,0,0-.816,2.575,3.786,3.786,0,0,0,.816,2.6,2.729,2.729,0,0,0,2.142.918,2.893,2.893,0,0,0,1.7-.476,2.413,2.413,0,0,0,.935-1.36H20.8A4.1,4.1,0,0,1,19.3-.705,4.481,4.481,0,0,1,16.5.153a4.616,4.616,0,0,1-2.355-.595,4.145,4.145,0,0,1-1.606-1.683A5.359,5.359,0,0,1,11.959-4.675ZM24.743-8.041V-2.55a1.306,1.306,0,0,0,.289.961,1.424,1.424,0,0,0,1,.281h1.139V0H25.78a2.774,2.774,0,0,1-1.938-.6A2.554,2.554,0,0,1,23.2-2.55V-8.041H21.989V-9.316H23.2v-2.346h1.547v2.346h2.431v1.275ZM39.516-6.1a2.5,2.5,0,0,1,1.181.527,3.092,3.092,0,0,1,.85,1.054,2.962,2.962,0,0,1,.315,1.343A2.964,2.964,0,0,1,41.4-1.556,3.119,3.119,0,0,1,40.069-.417,4.764,4.764,0,0,1,38,0h-4.42V-11.849h4.25a4.808,4.808,0,0,1,2.057.4,2.912,2.912,0,0,1,1.275,1.08,2.827,2.827,0,0,1,.425,1.53,2.643,2.643,0,0,1-.57,1.743A3.187,3.187,0,0,1,39.516-6.1ZM35.13-6.732h2.6a2.51,2.51,0,0,0,1.683-.51,1.759,1.759,0,0,0,.6-1.411,1.759,1.759,0,0,0-.6-1.411,2.567,2.567,0,0,0-1.717-.51H35.13Zm2.737,5.457a2.716,2.716,0,0,0,1.8-.544,1.871,1.871,0,0,0,.646-1.513,1.921,1.921,0,0,0-.68-1.555,2.742,2.742,0,0,0-1.819-.57H35.13v4.182ZM45.551-7.8a2.968,2.968,0,0,1,1.165-1.241,3.6,3.6,0,0,1,1.844-.442v1.6h-.408q-2.6,0-2.6,2.822V0H44V-9.316h1.547Zm4.216,3.111A5.233,5.233,0,0,1,50.345-7.2a4.194,4.194,0,0,1,1.59-1.675,4.36,4.36,0,0,1,2.253-.595,4.134,4.134,0,0,1,2.125.527,3.511,3.511,0,0,1,1.343,1.326v-1.7h1.564V0H57.655V-1.734A3.645,3.645,0,0,1,56.287-.383,4.094,4.094,0,0,1,54.17.153a4.223,4.223,0,0,1-2.244-.612,4.292,4.292,0,0,1-1.581-1.717A5.347,5.347,0,0,1,49.767-4.692Zm7.888.017a3.787,3.787,0,0,0-.425-1.836,3,3,0,0,0-1.147-1.2,3.126,3.126,0,0,0-1.59-.416,3.13,3.13,0,0,0-1.581.408,2.96,2.96,0,0,0-1.139,1.19,3.787,3.787,0,0,0-.425,1.836,3.875,3.875,0,0,0,.425,1.861,3.007,3.007,0,0,0,1.139,1.207,3.08,3.08,0,0,0,1.581.416,3.126,3.126,0,0,0,1.59-.416A2.988,2.988,0,0,0,57.23-2.831,3.837,3.837,0,0,0,57.655-4.675Zm8.721-4.811A3.776,3.776,0,0,1,69.13-8.458a3.959,3.959,0,0,1,1.054,2.967V0h-1.53V-5.27a3,3,0,0,0-.7-2.134,2.49,2.49,0,0,0-1.9-.739,2.55,2.55,0,0,0-1.947.765,3.125,3.125,0,0,0-.722,2.227V0H61.837V-9.316h1.547V-7.99A3.071,3.071,0,0,1,64.634-9.1,3.876,3.876,0,0,1,66.376-9.486ZM72.14-4.692A5.233,5.233,0,0,1,72.717-7.2a4.194,4.194,0,0,1,1.59-1.675,4.392,4.392,0,0,1,2.27-.595,4.214,4.214,0,0,1,2.023.5A3.619,3.619,0,0,1,80.028-7.65v-4.93h1.564V0H80.028V-1.751a3.62,3.62,0,0,1-1.36,1.369A4.048,4.048,0,0,1,76.56.153a4.267,4.267,0,0,1-2.253-.612,4.273,4.273,0,0,1-1.59-1.717A5.347,5.347,0,0,1,72.14-4.692Zm7.888.017A3.787,3.787,0,0,0,79.6-6.511a3,3,0,0,0-1.147-1.2,3.126,3.126,0,0,0-1.59-.416,3.13,3.13,0,0,0-1.581.408,2.96,2.96,0,0,0-1.139,1.19,3.787,3.787,0,0,0-.425,1.836,3.875,3.875,0,0,0,.425,1.861,3.007,3.007,0,0,0,1.139,1.207,3.08,3.08,0,0,0,1.581.416,3.126,3.126,0,0,0,1.59-.416A2.988,2.988,0,0,0,79.6-2.831,3.837,3.837,0,0,0,80.028-4.675Z" transform="translate(81.932 12.58)" fill="#fff"/></svg>