<svg xmlns="http://www.w3.org/2000/svg" width="98.745" height="17.997" viewBox="0 0 98.745 17.997">
  <g id="Layer_1" transform="translate(-30 -28.699)">
    <g id="Group_813" data-name="Group 813" transform="translate(30 28.699)">
      <path id="Path_645" data-name="Path 645" d="M169.18,44.03a2.829,2.829,0,0,1-2.826-2.825V32.83A2.829,2.829,0,0,1,169.18,30h6.429a.913.913,0,1,1,0,1.825H169.18a1,1,0,0,0-1,1v3.3h6.3a.865.865,0,0,1,0,1.731h-6.3V41.2a1,1,0,0,0,1,1h6.429a.913.913,0,1,1,0,1.826Zm-28.827.184a5.907,5.907,0,0,1-4.245-1.4,5.523,5.523,0,0,1-1.449-4.145V30.88a1.058,1.058,0,1,1,2.116,0v7.512a4.5,4.5,0,0,0,.874,3.039,4.191,4.191,0,0,0,5.408,0,4.5,4.5,0,0,0,.873-3.039V30.88a1.059,1.059,0,0,1,2.118,0v7.791a5.525,5.525,0,0,1-1.451,4.145,5.9,5.9,0,0,1-4.244,1.4m15.9,0a6.915,6.915,0,0,1-5.4-2.016.989.989,0,0,1,.05-1.359l0,0,0,0a1,1,0,0,1,.711-.292.968.968,0,0,1,.735.333,4.192,4.192,0,0,0,1.136.932,5.613,5.613,0,0,0,2.743.614,4.724,4.724,0,0,0,2.444-.541A1.755,1.755,0,0,0,159.6,40.3a1.514,1.514,0,0,0-.832-1.33,8.979,8.979,0,0,0-2.77-.849,13.406,13.406,0,0,1-3.089-.894,3.836,3.836,0,0,1-1.643-1.3,3.327,3.327,0,0,1-.509-1.876,3.75,3.75,0,0,1,.648-2.133,4.46,4.46,0,0,1,1.88-1.531,6.863,6.863,0,0,1,2.887-.57,7.184,7.184,0,0,1,3.292.7,5.657,5.657,0,0,1,1.635,1.271,1,1,0,1,1-1.538,1.276,3.636,3.636,0,0,0-.909-.854,4.511,4.511,0,0,0-2.458-.6,3.982,3.982,0,0,0-2.355.609,1.9,1.9,0,0,0-.857,1.594,1.645,1.645,0,0,0,.841,1.447,8.563,8.563,0,0,0,2.869.884,12.607,12.607,0,0,1,3.012.861,3.751,3.751,0,0,1,1.6,1.274,3.38,3.38,0,0,1,.5,1.886,3.471,3.471,0,0,1-.688,2.13,4.378,4.378,0,0,1-1.941,1.415,7.944,7.944,0,0,1-2.915.5m-31.7,0a6.916,6.916,0,0,1-5.4-2.016.99.99,0,0,1,.05-1.359l.006-.006a1,1,0,0,1,.713-.294.966.966,0,0,1,.735.333,4.186,4.186,0,0,0,1.136.932,5.611,5.611,0,0,0,2.743.614,4.729,4.729,0,0,0,2.445-.541,1.754,1.754,0,0,0,.918-1.577,1.514,1.514,0,0,0-.832-1.33,8.958,8.958,0,0,0-2.77-.851,13.45,13.45,0,0,1-3.089-.893,3.85,3.85,0,0,1-1.643-1.3,3.333,3.333,0,0,1-.509-1.876,3.75,3.75,0,0,1,.648-2.133,4.456,4.456,0,0,1,1.88-1.532,6.864,6.864,0,0,1,2.887-.57,7.185,7.185,0,0,1,3.291.7,5.64,5.64,0,0,1,1.635,1.271,1,1,0,1,1-1.537,1.276,3.631,3.631,0,0,0-.909-.854,4.509,4.509,0,0,0-2.458-.6,3.986,3.986,0,0,0-2.356.609,1.9,1.9,0,0,0-.857,1.594,1.647,1.647,0,0,0,.84,1.448,8.578,8.578,0,0,0,2.87.884,12.565,12.565,0,0,1,3.012.861,3.77,3.77,0,0,1,1.6,1.273,3.375,3.375,0,0,1,.5,1.887,3.46,3.46,0,0,1-.689,2.129,4.372,4.372,0,0,1-1.942,1.416,7.938,7.938,0,0,1-2.914.5" transform="translate(-77.778 -29.302)" fill="#fff"/>
      <path id="Path_646" data-name="Path 646" d="M63.1,34.163a.551.551,0,0,0-.8,0,.59.59,0,0,0,.089.9.561.561,0,0,0,.626,0,.591.591,0,0,0,.089-.9m-.735-1.974a2.146,2.146,0,1,0,1.569,1.6,2.126,2.126,0,0,0-1.569-1.6m-10.03,8.735a5.66,5.66,0,0,0-2.638-.281c-.877.011-.909-.019-1.91-.019-.309,0-.423,1.514.7,1.829a2.836,2.836,0,0,1,1.388.609c.163.17.255.427-.122.427H46.966a1.862,1.862,0,0,1-1.317-.31,4.589,4.589,0,0,1-1.1-1.811,19.117,19.117,0,0,0-.975-2.012,8.008,8.008,0,0,0-3.005-3.165A6.069,6.069,0,0,0,34,36.57c-2.3,1.8-1.808,5.184.2,6.838a4.087,4.087,0,0,0,2.85.865c1.991-.118,3.459-1.616,3.094-3.46a2.281,2.281,0,0,0-1.005-1.52,2.466,2.466,0,0,0-1.262-.306,1.825,1.825,0,0,0-1.308.431,1.267,1.267,0,0,0-.145,1.56c.177.258.464.476.416.812a.554.554,0,0,1-.436.446,1.054,1.054,0,0,1-.967-.4,2.544,2.544,0,0,1-.493-2.64,3.08,3.08,0,0,1,2.975-1.738,4.315,4.315,0,0,1,3.686,2.57,4.879,4.879,0,0,1-.435,4.576c-1.968,2.937-6.826,2.59-9.084.113a7.273,7.273,0,0,1-2.078-5.87,8.174,8.174,0,0,1,2.626-5.313A17.712,17.712,0,0,1,41.151,29.1a18.783,18.783,0,0,1,5.775-.3,24.975,24.975,0,0,1,5.013,1,19.56,19.56,0,0,1,2.376.925,7.16,7.16,0,0,1,2.1,1.216c0-1-.038-2.09-.038-2.852a.392.392,0,0,1,.556-.363c1.1.523,3.717,1.784,5.46,2.6,2.336,1.09,2.5,3.662,2.583,5.942a.31.31,0,0,1-.018.149c-.074.156-.467.114-.612.116-.279,0-.7,0-.98.014-.557.025-1.1.014-1.658-.014a4.673,4.673,0,0,1-2.7-1.091c-.067-.058-.282-.12-.384-.012a.274.274,0,0,0-.012.344,4.8,4.8,0,0,0,1.281.9,4.715,4.715,0,0,0,1.961.444,13.311,13.311,0,0,0,2.183-.043c.605-.063.761-.106.164.347a6.226,6.226,0,0,1-1.75.9,9.176,9.176,0,0,1-2.753.486,10.616,10.616,0,0,1-1.693-.089c-.291-.037-.579-.091-.87-.121a2.256,2.256,0,0,0-.717-.017.938.938,0,0,0-.546.344,1.746,1.746,0,0,0-.142,1.215,2.4,2.4,0,0,0,1.137,1.188c.518.315,1.2.422,1.332,1.024.027.126-1.074.129-1.2.127H55.534a4.475,4.475,0,0,1-1.107-.1.163.163,0,0,1-.028-.013.843.843,0,0,1-.3-.5,3.092,3.092,0,0,0-.4-.747,3.314,3.314,0,0,0-1.369-1.211m11.1-6.644a1.555,1.555,0,1,1-1.555-1.587,1.571,1.571,0,0,1,1.555,1.587" transform="translate(-30 -28.699)" fill="#30ba78"/>
    </g>
  </g>
</svg>
