<?xml version="1.0" standalone="no"?><!DOCTYPE svg PUBLIC "-//W3C//DTD SVG 1.1//EN" "http://www.w3.org/Graphics/SVG/1.1/DTD/svg11.dtd">
<svg class="icon" viewBox="0 0 1024 1024" version="1.1"
     xmlns="http://www.w3.org/2000/svg"
     width="48" height="48">
    <defs>
        <style type="text/css">
        </style>
    </defs>
    <path d="M510.088533 933.853867c-106.257067 0-206.404267-16.315733-282.0096-45.909334-80.7936-31.6416-125.303467-75.776-125.303466-124.279466 0-24.576 11.776-61.1328 67.857066-96.085334 39.697067-24.712533 95.368533-44.612267 160.938667-57.5488a17.578667 17.578667 0 1 1 6.826667 34.474667c-119.9104 23.6544-200.465067 71.543467-200.465067 119.125333 0 32.5632 37.546667 65.9456 102.980267 91.579734 71.611733 28.023467 167.2192 43.485867 269.175466 43.485866s197.563733-15.4624 269.175467-43.485866c65.467733-25.634133 102.980267-59.016533 102.980267-91.5456 0-48.264533-81.988267-96.392533-204.049067-119.842134a17.578667 17.578667 0 1 1 6.621867-34.542933c66.56 12.8 123.118933 32.699733 163.566933 57.582933 57.0368 35.157333 69.0176 72.021333 69.0176 96.802134 0 48.469333-44.509867 92.637867-125.303467 124.245333-75.605333 29.627733-175.786667 45.943467-282.0096 45.943467z m0-163.362134a17.544533 17.544533 0 0 1-13.755733-6.621866c-83.2512-104.5504-131.959467-194.218667-158.173867-250.9824-27.409067-59.426133-36.6592-96.0512-37.751466-100.5568a217.975467 217.975467 0 0 1-7.850667-58.129067c0-58.129067 22.6304-112.7424 63.726933-153.838933a216.098133 216.098133 0 0 1 153.8048-63.6928 17.578667 17.578667 0 1 1 0 35.157333 182.613333 182.613333 0 0 0-175.7184 231.424l0.2048 0.7168c0.068267 0.341333 8.635733 36.181333 36.113067 95.505067 25.3952 54.749867 72.567467 141.277867 153.156267 242.4832a17.578667 17.578667 0 0 1-13.755734 28.535466z m3.549867 0a17.578667 17.578667 0 0 1-13.7216-28.535466c154.7264-194.389333 188.928-336.554667 189.2352-337.988267l0.2048-0.750933a182.613333 182.613333 0 0 0-175.7184-231.424 17.578667 17.578667 0 0 1 0-35.157334c58.094933 0 112.7424 22.664533 153.8048 63.726934a216.098133 216.098133 0 0 1 63.726933 153.838933c0 19.729067-2.6624 39.253333-7.850666 58.129067-1.092267 4.5056-10.3424 41.130667-37.7856 100.5568-26.180267 56.797867-74.922667 146.432-158.139734 250.9824a17.544533 17.544533 0 0 1-13.755733 6.621866z m-3.549867-302.660266a104.516267 104.516267 0 0 1-104.413866-104.379734 104.516267 104.516267 0 0 1 104.413866-104.413866 104.516267 104.516267 0 0 1 104.413867 104.413866 104.516267 104.516267 0 0 1-104.448 104.379734z m0-173.636267c-38.1952 0-69.256533 31.061333-69.256533 69.256533 0 38.161067 31.061333 69.256533 69.256533 69.256534 38.1952 0 69.256533-31.061333 69.256534-69.290667 0-38.161067-31.061333-69.2224-69.290667-69.2224z" fill="#e3f2fd"></path>
</svg>