<svg width="64" height="64" viewBox="0 0 64 64" fill="none" xmlns="http://www.w3.org/2000/svg">
<path d="M19.5 28C19.5 21.0964 25.0964 15.5 32 15.5C36.6465 15.5 40.702 18.036 42.8564 21.7991C43.874 21.6028 44.925 21.5 46 21.5C46.025 21.5 46.05 21.5001 46.075 21.5002C43.6171 16.1863 38.2399 12.5 32 12.5C23.4422 12.5 16.5042 19.4354 16.5 27.9922V38H19.5L19.5 28Z" fill="#65B2FF"/>
<path d="M4.5 40C4.5 34.5073 8.35081 29.914 13.5 28.7725V31.8736C10.0257 32.9412 7.5 36.1756 7.5 40C7.5 44.6944 11.3056 48.5 16 48.5H32.5V51.5H16C9.64873 51.5 4.5 46.3513 4.5 40Z" fill="#65B2FF"/>
<path d="M46 51.5H35.5V48.5H46C51.799 48.5 56.5 43.799 56.5 38C56.5 32.201 51.799 27.5 46 27.5C40.201 27.5 35.5 32.201 35.5 38H32.5C32.5 30.5442 38.5442 24.5 46 24.5C53.4558 24.5 59.5 30.5442 59.5 38C59.5 45.4558 53.4558 51.5 46 51.5Z" fill="#65B2FF"/>
</svg>
