<svg width="64" height="64" viewBox="0 0 64 64" fill="none" xmlns="http://www.w3.org/2000/svg">
<path d="M17.5 11.5L12 11.5C11.7239 11.5 11.5 11.7239 11.5 12L11.5 26C11.5 26.2761 11.7239 26.5 12 26.5H17.5V29.5H12C10.067 29.5 8.5 27.933 8.5 26V12C8.5 10.067 10.067 8.5 12 8.5H17.5V11.5Z" fill="#65B2FF"/>
<path d="M17.5 37.5H12C11.7239 37.5 11.5 37.7239 11.5 38L11.5 52C11.5 52.2761 11.7239 52.5 12 52.5H17.5V55.5H12C10.067 55.5 8.5 53.933 8.5 52V38C8.5 36.067 10.067 34.5 12 34.5H17.5V37.5Z" fill="#65B2FF"/>
<path d="M38 37.5H43.5V34.5H38C36.067 34.5 34.5 36.067 34.5 38V52.3929C34.5 54.1089 35.8911 55.5 37.6071 55.5V52.5C37.548 52.5 37.5 52.452 37.5 52.3929L37.5 38C37.5 37.7239 37.7239 37.5 38 37.5Z" fill="#65B2FF"/>
<path fill-rule="evenodd" clip-rule="evenodd" d="M40 48.75C40 43.9175 43.9175 40 48.75 40C53.5825 40 57.5 43.9175 57.5 48.75C57.5 53.5825 53.5825 57.5 48.75 57.5C43.9175 57.5 40 53.5825 40 48.75ZM48.75 43C45.5744 43 43 45.5744 43 48.75C43 51.9256 45.5744 54.5 48.75 54.5C51.9256 54.5 54.5 51.9256 54.5 48.75C54.5 45.5744 51.9256 43 48.75 43Z" fill="#65B2FF"/>
<path d="M63.0607 60.9393L57.5607 55.4393L55.4393 57.5606L60.9394 63.0606L63.0607 60.9393Z" fill="#65B2FF"/>
<path d="M43.5 11.5L38 11.5C37.7239 11.5 37.5 11.7239 37.5 12V26C37.5 26.2761 37.7239 26.5 38 26.5H43.5V29.5H38C36.067 29.5 34.5 27.933 34.5 26V12C34.5 10.067 36.067 8.5 38 8.5H43.5V11.5Z" fill="#65B2FF"/>
<path d="M26 37.5H20.5V34.5H26C27.933 34.5 29.5 36.067 29.5 38V52C29.5 53.933 27.933 55.5 26 55.5H20.5V52.5H26C26.2761 52.5 26.5 52.2761 26.5 52V38C26.5 37.7239 26.2761 37.5 26 37.5Z" fill="#65B2FF"/>
<path d="M20.5 11.5L26 11.5C26.2761 11.5 26.5 11.7239 26.5 12V26C26.5 26.2761 26.2761 26.5 26 26.5H20.5V29.5H26C27.933 29.5 29.5 27.933 29.5 26V12C29.5 10.067 27.933 8.5 26 8.5H20.5V11.5Z" fill="#65B2FF"/>
<path d="M55.5 37.5H46.5V34.5H52.5C54.1569 34.5 55.5 35.8431 55.5 37.5Z" fill="#65B2FF"/>
<path d="M46.5 11.5L52 11.5C52.2761 11.5 52.5 11.7239 52.5 12V26C52.5 26.2761 52.2761 26.5 52 26.5H46.5V29.5H52C53.933 29.5 55.5 27.933 55.5 26V12C55.5 10.067 53.933 8.5 52 8.5H46.5V11.5Z" fill="#65B2FF"/>
<path d="M19 46.5C20.1046 46.5 21 45.6046 21 44.5C21 43.3954 20.1046 42.5 19 42.5C17.8954 42.5 17 43.3954 17 44.5C17 45.6046 17.8954 46.5 19 46.5Z" fill="#65B2FF"/>
</svg>
