<svg width="64" height="64" viewBox="0 0 64 64" fill="none" xmlns="http://www.w3.org/2000/svg">
<path d="M12 11.5L17.5 11.5V8.5H12C10.067 8.5 8.5 10.067 8.5 12V26C8.5 27.933 10.067 29.5 12 29.5H17.5V26.5H12C11.7239 26.5 11.5 26.2761 11.5 26L11.5 12C11.5 11.7239 11.7239 11.5 12 11.5Z" fill="#186d33"/>
<path d="M12 37.5H17.5V34.5H12C10.067 34.5 8.5 36.067 8.5 38V52C8.5 53.933 10.067 55.5 12 55.5H17.5V52.5H12C11.7239 52.5 11.5 52.2761 11.5 52L11.5 38C11.5 37.7239 11.7239 37.5 12 37.5Z" fill="#186d33"/>
<path d="M43.5 37.5H38C37.7239 37.5 37.5 37.7239 37.5 38L37.5 52.3929C37.5 52.452 37.548 52.5 37.6071 52.5V55.5C35.8911 55.5 34.5 54.1089 34.5 52.3929V38C34.5 36.067 36.067 34.5 38 34.5H43.5V37.5Z" fill="#186d33"/>
<path d="M38 11.5L43.5 11.5V8.5H38C36.067 8.5 34.5 10.067 34.5 12V26C34.5 27.933 36.067 29.5 38 29.5H43.5V26.5H38C37.7239 26.5 37.5 26.2761 37.5 26V12C37.5 11.7239 37.7239 11.5 38 11.5Z" fill="#186d33"/>
<path d="M20.5 37.5H26C26.2761 37.5 26.5 37.7239 26.5 38V52C26.5 52.2761 26.2761 52.5 26 52.5H20.5V55.5H26C27.933 55.5 29.5 53.933 29.5 52V38C29.5 36.067 27.933 34.5 26 34.5H20.5V37.5Z" fill="#186d33"/>
<path d="M26 11.5L20.5 11.5V8.5H26C27.933 8.5 29.5 10.067 29.5 12V26C29.5 27.933 27.933 29.5 26 29.5H20.5V26.5H26C26.2761 26.5 26.5 26.2761 26.5 26V12C26.5 11.7239 26.2761 11.5 26 11.5Z" fill="#186d33"/>
<path d="M46.5 37.5H55.5C55.5 35.8431 54.1569 34.5 52.5 34.5H46.5V37.5Z" fill="#186d33"/>
<path d="M52 11.5L46.5 11.5V8.5H52C53.933 8.5 55.5 10.067 55.5 12V26C55.5 27.933 53.933 29.5 52 29.5H46.5V26.5H52C52.2761 26.5 52.5 26.2761 52.5 26V12C52.5 11.7239 52.2761 11.5 52 11.5Z" fill="#186d33"/>
<path d="M21 44.5C21 45.6046 20.1046 46.5 19 46.5C17.8954 46.5 17 45.6046 17 44.5C17 43.3954 17.8954 42.5 19 42.5C20.1046 42.5 21 43.3954 21 44.5Z" fill="#186d33"/>
<path d="M46 43C45.7239 43 45.5 43.2239 45.5 43.5V48.5H42.5V43.5C42.5 41.567 44.067 40 46 40H58C59.933 40 61.5 41.567 61.5 43.5V48.5H58.5V43.5C58.5 43.2239 58.2761 43 58 43H46Z" fill="#186d33"/>
<path d="M45.5 51.5V52C45.5 54.0459 46.4633 55.9724 48.1 57.2L52 60.125L55.9 57.2C57.5367 55.9724 58.5 54.0459 58.5 52V51.5H61.5V52C61.5 54.9902 60.0922 57.8059 57.7 59.6L52.9 63.2C52.3667 63.6 51.6333 63.6 51.1 63.2L46.3 59.6C43.9078 57.8059 42.5 54.9902 42.5 52V51.5H45.5Z" fill="#186d33"/>
</svg>
