<svg width="64" height="64" viewBox="0 0 64 64" fill="none" xmlns="http://www.w3.org/2000/svg">
    <path d="M28 11.5L14 11.5C12.6193 11.5 11.5 12.6193 11.5 14L11.5 50C11.5 51.3807 12.6193 52.5 14 52.5H28V55.5H14C10.9624 55.5 8.5 53.0376 8.5 50L8.5 14C8.5 10.9624 10.9624 8.5 14 8.5L28 8.5V11.5Z" fill="#333333"/>
    <path d="M36 11.5L50 11.5C51.3807 11.5 52.5 12.6193 52.5 14V50C52.5 51.3807 51.3807 52.5 50 52.5H36V55.5H50C53.0376 55.5 55.5 53.0376 55.5 50V14C55.5 10.9624 53.0376 8.5 50 8.5L36 8.5V11.5Z" fill="#333333"/>
    <path fill-rule="evenodd" clip-rule="evenodd" d="M32 20.5C25.6487 20.5 20.5 25.6487 20.5 32C20.5 38.3513 25.6487 43.5 32 43.5C38.3513 43.5 43.5 38.3513 43.5 32C43.5 25.6487 38.3513 20.5 32 20.5ZM23.5 32C23.5 27.3056 27.3056 23.5 32 23.5C36.6944 23.5 40.5 27.3056 40.5 32C40.5 36.6944 36.6944 40.5 32 40.5C27.3056 40.5 23.5 36.6944 23.5 32Z" fill="#333333"/>
</svg>
