<svg width="64" height="64" viewBox="0 0 64 64" fill="none" xmlns="http://www.w3.org/2000/svg">
<g id="NV_namespace">
<g id="Union">
<path d="M28 11.5L14 11.5C12.6193 11.5 11.5 12.6193 11.5 14L11.5 50C11.5 51.3807 12.6193 52.5 14 52.5H28V55.5H14C10.9624 55.5 8.5 53.0376 8.5 50L8.5 14C8.5 10.9624 10.9624 8.5 14 8.5L28 8.5V11.5Z" fill="#65B2FF"/>
<path d="M17.5 17.5H20V14.5H17C15.6193 14.5 14.5 15.6193 14.5 17L14.5 27C14.5 28.3807 15.6193 29.5 17 29.5H20V26.5H17.5V17.5Z" fill="#65B2FF"/>
<path d="M17.5 37.5H20V34.5H17C15.6193 34.5 14.5 35.6193 14.5 37L14.5 47C14.5 48.3807 15.6193 49.5 17 49.5H20V46.5H17.5V37.5Z" fill="#65B2FF"/>
<path d="M40 17.5H37.5V26.5H40V29.5H37C35.6193 29.5 34.5 28.3807 34.5 27V17C34.5 15.6193 35.6193 14.5 37 14.5H40V17.5Z" fill="#65B2FF"/>
<path d="M37.5 37.5H40V34.5H37C35.6193 34.5 34.5 35.6193 34.5 37V47C34.5 48.3807 35.6193 49.5 37 49.5H40V46.5H37.5V37.5Z" fill="#65B2FF"/>
<path d="M24 17.5H26.5V26.5H24V29.5H27C28.3807 29.5 29.5 28.3807 29.5 27V17C29.5 15.6193 28.3807 14.5 27 14.5H24V17.5Z" fill="#65B2FF"/>
<path d="M26.5 37.5H24V34.5H27C28.3807 34.5 29.5 35.6193 29.5 37V47C29.5 48.3807 28.3807 49.5 27 49.5H24V46.5H26.5V37.5Z" fill="#65B2FF"/>
<path d="M44 17.5H46.5V26.5H44V29.5H47C48.3807 29.5 49.5 28.3807 49.5 27V17C49.5 15.6193 48.3807 14.5 47 14.5H44V17.5Z" fill="#65B2FF"/>
<path d="M46.5 37.5H44V34.5H47C48.3807 34.5 49.5 35.6193 49.5 37V47C49.5 48.3807 48.3807 49.5 47 49.5H44V46.5H46.5V37.5Z" fill="#65B2FF"/>
<path d="M22 44C23.1046 44 24 43.1046 24 42C24 40.8954 23.1046 40 22 40C20.8954 40 20 40.8954 20 42C20 43.1046 20.8954 44 22 44Z" fill="#65B2FF"/>
<path d="M50 11.5L36 11.5V8.5L50 8.5C53.0376 8.5 55.5 10.9624 55.5 14V50C55.5 53.0376 53.0376 55.5 50 55.5H36V52.5H50C51.3807 52.5 52.5 51.3807 52.5 50V14C52.5 12.6193 51.3807 11.5 50 11.5Z" fill="#65B2FF"/>
</g>
</g>
</svg>
