<?xml version="1.0" standalone="no"?>
<!DOCTYPE svg PUBLIC "-//W3C//DTD SVG 1.1//EN" "http://www.w3.org/Graphics/SVG/1.1/DTD/svg11.dtd">
<svg class="icon" viewBox="0 0 1024 1024"
     xmlns="http://www.w3.org/2000/svg"
     width="32" height="32">
    <defs>
    <style type="text/css"></style>
    </defs>
    <path d="M512 384c-70.592 0-128 57.408-128 128 0 70.592 57.408 128 128 128 70.592 0 128-57.408 128-128C640 441.408 582.592 384 512 384zM512 576c-35.296 0-64-28.704-64-64 0-35.296 28.704-64 64-64 35.296 0 64 28.704 64 64C576 547.296 547.296 576 512 576zM928 480l-0.928 0C911.424 275.776 748.224 112.576 544 96.928L544 96c0-17.664-14.336-32-32-32s-32 14.336-32 32l0 0.928C275.776 112.576 112.576 275.776 96.928 480L96 480c-17.664 0-32 14.336-32 32s14.336 32 32 32l0.928 0C112.576 748.224 275.776 911.424 480 927.072L480 928c0 17.696 14.336 32 32 32s32-14.304 32-32l0-0.928C748.224 911.424 911.424 748.224 927.072 544L928 544c17.696 0 32-14.336 32-32S945.696 480 928 480zM544 863.072 544 800c0-17.696-14.336-32-32-32s-32 14.304-32 32l0 63.072C311.04 847.776 176.224 712.928 160.928 544L224 544c17.664 0 32-14.336 32-32s-14.336-32-32-32L160.928 480C176.224 311.04 311.04 176.224 480 160.928L480 224c0 17.664 14.336 32 32 32s32-14.336 32-32L544 160.928C712.928 176.224 847.776 311.04 863.072 480L800 480c-17.696 0-32 14.336-32 32s14.304 32 32 32l63.072 0C847.776 712.928 712.928 847.776 544 863.072z" fill="#29B6F6">
    </path>
</svg>