<svg width="64" height="64" viewBox="0 0 64 64" fill="none" xmlns="http://www.w3.org/2000/svg">
<path d="M8.5 12C8.5 10.067 10.067 8.5 12 8.5H52C53.933 8.5 55.5 10.067 55.5 12V20.5H52.5V12C52.5 11.7239 52.2761 11.5 52 11.5H12C11.7239 11.5 11.5 11.7239 11.5 12V20.5H8.5V12Z" fill="#4E39C1"/>
<path d="M8.5 27C8.5 25.067 10.067 23.5 12 23.5H52C53.933 23.5 55.5 25.067 55.5 27V35.5H52.5V27C52.5 26.7239 52.2761 26.5 52 26.5H12C11.7239 26.5 11.5 26.7239 11.5 27V35.5H8.5V27Z" fill="#4E39C1"/>
<path d="M 12 38.5 C 10.067 38.5 8.5 40.067 8.5 42 V 50 H 11.5 V 42 C 11.5 41.7239 11.7239 41.5 12 41.5 H 35 C 35 42 36 40 35.161 38.48 H 12 Z" fill="#4E39C1"/>
<path d="M20 18C20 19.1046 19.1046 20 18 20C16.8954 20 16 19.1046 16 18C16 16.8954 16.8954 16 18 16C19.1046 16 20 16.8954 20 18Z" fill="#4E39C1"/>
<path d="M18 34C19.1046 34 20 33.1046 20 32C20 30.8954 19.1046 30 18 30C16.8954 30 16 30.8954 16 32C16 33.1046 16.8954 34 18 34Z" fill="#4E39C1"/>
<path d="M20 48C20 49.1046 19.1046 50 18 50C16.8954 50 16 49.1046 16 48C16 46.8954 16.8954 46 18 46C19.1046 46 20 46.8954 20 48Z" fill="#4E39C1"/>
<path d="M26 20C27.1046 20 28 19.1046 28 18C28 16.8954 27.1046 16 26 16C24.8954 16 24 16.8954 24 18C24 19.1046 24.8954 20 26 20Z" fill="#4E39C1"/>
<path d="M28 32C28 33.1046 27.1046 34 26 34C24.8954 34 24 33.1046 24 32C24 30.8954 24.8954 30 26 30C27.1046 30 28 30.8954 28 32Z" fill="#4E39C1"/>
<path d="M26 50C27.1046 50 28 49.1046 28 48C28 46.8954 27.1046 46 26 46C24.8954 46 24 46.8954 24 48C24 49.1046 24.8954 50 26 50Z" fill="#4E39C1"/>
<path d="M48 18C48 19.1046 47.1046 20 46 20C44.8954 20 44 19.1046 44 18C44 16.8954 44.8954 16 46 16C47.1046 16 48 16.8954 48 18Z" fill="#4E39C1"/>
<path d="M46 34C47.1046 34 48 33.1046 48 32C48 30.8954 47.1046 30 46 30C44.8954 30 44 30.8954 44 32C44 33.1046 44.8954 34 46 34Z" fill="#4E39C1"/>
<path d="M 32 56 C 35 56 35 56 35 53 L 8.5 53 C 8.5 54.6569 9.8431 56 11.5 56 L 32 56 Z" fill="#4E39C1"/>
<path d="M44.6765 50.5C48.3869 45.8436 55.6131 45.8436 59.3236 50.5H62.9046C58.2213 41.8436 45.7787 41.8436 41.0954 50.5H44.6765Z" fill="#4E39C1"/>
<path d="M44.6765 53.5C48.3869 58.1564 55.6131 58.1564 59.3236 53.5H62.9046C58.2213 62.1564 45.7787 62.1564 41.0954 53.5H44.6765Z" fill="#4E39C1"/>
<path d="M52 55C53.6569 55 55 53.6569 55 52C55 50.3431 53.6569 49 52 49C50.3431 49 49 50.3431 49 52C49 53.6569 50.3431 55 52 55Z" fill="#4E39C1"/>
</svg>
