<svg width="64" height="64" viewBox="0 0 64 64" fill="none" xmlns="http://www.w3.org/2000/svg">
<path fill-rule="evenodd" clip-rule="evenodd" d="M26.5001 18.1926L26.5001 42H15.1362L23.5001 29.4542V24.0459L11.8695 41.4918C10.7917 43.1084 11.237 45.2934 12.8613 46.3594L26.271 55.1595C27.2602 55.8086 28.5103 55.9141 29.5942 55.4399L50.5063 46.2908C52.4469 45.4418 53.1945 43.0771 52.0946 41.2669L32.9912 9.8259C31.1533 6.80095 26.5001 8.10378 26.5001 11.6433L26.5001 18.1874C26.5001 18.1891 26.5001 18.1909 26.5001 18.1926ZM30.4274 11.3837C30.3438 11.2461 30.2555 11.1922 30.1825 11.1661C30.0966 11.1355 29.9843 11.1285 29.8653 11.1618C29.7463 11.1951 29.6539 11.2595 29.5964 11.3302C29.5475 11.3904 29.5001 11.4824 29.5001 11.6433L29.5001 45H16.2578L27.917 52.6513C28.0583 52.7441 28.2369 52.7591 28.3917 52.6914L45.9721 45H32.5001V42H49.0297L30.4274 11.3837Z" fill="#65B2FF"/>
</svg>
