<svg width="64" height="64" viewBox="0 0 64 64" fill="none" xmlns="http://www.w3.org/2000/svg">
<path d="M34 10C34 8.89543 33.1046 8 32 8C30.8955 8 30 8.89543 30 10C30 11.1046 30.8955 12 32 12C33.1046 12 34 11.1046 34 10Z" fill="#65B2FF"/>
<path d="M34 32C34 30.8954 33.1046 30 32 30C30.8955 30 30 30.8954 30 32C30 33.1046 30.8955 34 32 34C33.1046 34 34 33.1046 34 32Z" fill="#65B2FF"/>
<path d="M32 52C33.1046 52 34 52.8954 34 54C34 55.1046 33.1046 56 32 56C30.8955 56 30 55.1046 30 54C30 52.8954 30.8955 52 32 52Z" fill="#65B2FF"/>
<path d="M30.5 48.5V37.5H33.5V48.5H30.5Z" fill="#65B2FF"/>
<path d="M30.5 15.5V26.5H33.5V15.5H30.5Z" fill="#65B2FF"/>
<path d="M49.5 27H52.5V37H49.5V27Z" fill="#65B2FF"/>
<path d="M11.5 27L11.5 37H14.5L14.5 27H11.5Z" fill="#65B2FF"/>
<path d="M45.0801 19.3445L36.4199 14.3445L37.9199 11.7465L46.5801 16.7465L45.0801 19.3445Z" fill="#65B2FF"/>
<path d="M17.4199 47.2535L26.0801 52.2535L27.5801 49.6555L18.9199 44.6555L17.4199 47.2535Z" fill="#65B2FF"/>
<path d="M27.5801 14.3446L18.9199 19.3446L17.4199 16.7465L26.0801 11.7465L27.5801 14.3446Z" fill="#65B2FF"/>
<path d="M37.5131 30.549L47.0394 25.049L45.5394 22.451L36.0131 27.951L37.5131 30.549Z" fill="#65B2FF"/>
<path d="M27.5539 36.299L18.4606 41.549L16.9606 38.951L26.0539 33.701L27.5539 36.299Z" fill="#65B2FF"/>
<path d="M27.9869 27.951L18.4606 22.451L16.9606 25.049L26.4869 30.549L27.9869 27.951Z" fill="#65B2FF"/>
<path d="M37.9346 33.6944L43.2385 36.6944L41.7615 39.3056L36.4577 36.3056L37.9346 33.6944Z" fill="#65B2FF"/>
<path d="M11.2154 20C11.7677 19.0434 12.9909 18.7157 13.9475 19.268C14.9041 19.8202 15.2318 21.0434 14.6795 22C14.1272 22.9566 12.9041 23.2843 11.9475 22.7321C10.9909 22.1798 10.6631 20.9566 11.2154 20Z" fill="#65B2FF"/>
<path d="M11.9475 41.268C10.9909 41.8202 10.6631 43.0434 11.2154 44C11.7677 44.9566 12.9909 45.2843 13.9475 44.7321C14.9041 44.1798 15.2318 42.9566 14.6795 42C14.1272 41.0434 12.9041 40.7157 11.9475 41.268Z" fill="#65B2FF"/>
<path d="M49.0526 21C49.0526 19.8954 49.948 19 51.0526 19C52.1571 19 53.0526 19.8954 53.0526 21C53.0526 22.1046 52.1571 23 51.0526 23C49.948 23 49.0526 22.1046 49.0526 21Z" fill="#65B2FF"/>
<path fill-rule="evenodd" clip-rule="evenodd" d="M40 48.75C40 43.9175 43.9175 40 48.75 40C53.5825 40 57.5 43.9175 57.5 48.75C57.5 53.5825 53.5825 57.5 48.75 57.5C43.9175 57.5 40 53.5825 40 48.75ZM48.75 43C45.5744 43 43 45.5744 43 48.75C43 51.9256 45.5744 54.5 48.75 54.5C51.9257 54.5 54.5 51.9256 54.5 48.75C54.5 45.5744 51.9257 43 48.75 43Z" fill="#65B2FF"/>
<path d="M63.0607 60.9393L57.5607 55.4393L55.4394 57.5606L60.9394 63.0606L63.0607 60.9393Z" fill="#65B2FF"/>
</svg>
