<svg width="64" height="64" viewBox="0 0 64 64" fill="none" xmlns="http://www.w3.org/2000/svg">
<path d="M31.9999 8C33.1045 8 33.9999 8.89543 33.9999 10C33.9999 11.1046 33.1045 12 31.9999 12C30.8953 12 29.9999 11.1046 29.9999 10C29.9999 8.89543 30.8953 8 31.9999 8Z" fill="#186d33"/>
<path d="M31.9999 30C33.1045 30 33.9999 30.8954 33.9999 32C33.9999 33.1046 33.1045 34 31.9999 34C30.8953 34 29.9999 33.1046 29.9999 32C29.9999 30.8954 30.8953 30 31.9999 30Z" fill="#186d33"/>
<path d="M33.9999 54C33.9999 52.8954 33.1045 52 31.9999 52C30.8953 52 29.9999 52.8954 29.9999 54C29.9999 55.1046 30.8953 56 31.9999 56C33.1045 56 33.9999 55.1046 33.9999 54Z" fill="#186d33"/>
<path d="M30.4999 37.5V48.5H33.4999V37.5H30.4999Z" fill="#186d33"/>
<path d="M30.4999 26.5V15.5H33.4999V26.5H30.4999Z" fill="#186d33"/>
<path d="M52.4999 27H49.4999V37H52.4999V27Z" fill="#186d33"/>
<path d="M11.4999 37L11.4999 27H14.4999L14.4999 37H11.4999Z" fill="#186d33"/>
<path d="M36.4198 14.3445L45.08 19.3445L46.58 16.7465L37.9198 11.7465L36.4198 14.3445Z" fill="#186d33"/>
<path d="M26.08 52.2535L17.4198 47.2535L18.9198 44.6554L27.58 49.6554L26.08 52.2535Z" fill="#186d33"/>
<path d="M18.9198 19.3446L27.58 14.3446L26.08 11.7465L17.4198 16.7465L18.9198 19.3446Z" fill="#186d33"/>
<path d="M47.0393 25.049L37.513 30.549L36.013 27.951L45.5393 22.451L47.0393 25.049Z" fill="#186d33"/>
<path d="M18.4605 41.549L27.5537 36.299L26.0537 33.701L16.9605 38.951L18.4605 41.549Z" fill="#186d33"/>
<path d="M18.4605 22.451L27.9868 27.951L26.4868 30.549L16.9605 25.049L18.4605 22.451Z" fill="#186d33"/>
<path d="M43.2384 36.6944L37.9345 33.6944L36.4575 36.3056L41.7614 39.3056L43.2384 36.6944Z" fill="#186d33"/>
<path d="M13.9474 19.268C12.9908 18.7157 11.7676 19.0434 11.2153 20C10.663 20.9566 10.9908 22.1798 11.9474 22.7321C12.9039 23.2843 14.1271 22.9566 14.6794 22C15.2317 21.0434 14.9039 19.8202 13.9474 19.268Z" fill="#186d33"/>
<path d="M11.2153 44C10.663 43.0434 10.9908 41.8202 11.9474 41.268C12.9039 40.7157 14.1271 41.0434 14.6794 42C15.2317 42.9566 14.9039 44.1798 13.9474 44.7321C12.9908 45.2843 11.7676 44.9566 11.2153 44Z" fill="#186d33"/>
<path d="M51.0525 19C49.9479 19 49.0525 19.8954 49.0525 21C49.0525 22.1046 49.9479 23 51.0525 23C52.157 23 53.0525 22.1046 53.0525 21C53.0525 19.8954 52.157 19 51.0525 19Z" fill="#186d33"/>
<path d="M45.9999 43C45.7238 43 45.4999 43.2239 45.4999 43.5V48.5H42.4999V43.5C42.4999 41.567 44.0669 40 45.9999 40H57.9999C59.9329 40 61.4999 41.567 61.4999 43.5V48.5H58.4999V43.5C58.4999 43.2239 58.276 43 57.9999 43H45.9999Z" fill="#186d33"/>
<path d="M45.4999 51.5V52C45.4999 54.0459 46.4632 55.9724 48.0999 57.2L51.9999 60.125L55.8999 57.2C57.5366 55.9724 58.4999 54.0459 58.4999 52V51.5H61.4999V52C61.4999 54.9902 60.0921 57.8059 57.6999 59.6L52.8999 63.2C52.3666 63.6 51.6332 63.6 51.0999 63.2L46.2999 59.6C43.9077 57.8059 42.4999 54.9902 42.4999 52V51.5H45.4999Z" fill="#186d33"/>
</svg>
