<svg width="64" height="64" viewBox="0 0 64 64" fill="none" xmlns="http://www.w3.org/2000/svg">
<path d="M14.9393 14.9395L6.3535 23.5252C4.98666 24.8921 4.98666 27.1081 6.35349 28.475L14.9393 37.0608L17.0606 34.9395L8.47481 26.3537C8.27955 26.1584 8.27955 25.8418 8.47482 25.6466L17.0606 17.0608L14.9393 14.9395Z" fill="#e3f2fd"/>
<path d="M49.0606 49.0608L57.6464 40.475C59.0132 39.1082 59.0132 36.8921 57.6464 35.5253L49.0606 26.9395L46.9393 29.0608L55.525 37.6466C55.7203 37.8418 55.7203 38.1584 55.525 38.3537L46.9393 46.9395L49.0606 49.0608Z" fill="#e3f2fd"/>
<path d="M31.9999 36.5001L49.9999 36.5001L49.9999 39.5001L31.9999 39.5001V36.5001Z" fill="#e3f2fd"/>
<path d="M31.9999 24.5001H13.9999V27.5001H31.9999V24.5001Z" fill="#e3f2fd"/>
</svg>
