<svg width="64" height="64" viewBox="0 0 64 64" fill="none" xmlns="http://www.w3.org/2000/svg">
<path d="M31.9999 8C33.1045 8 33.9999 8.89543 33.9999 10C33.9999 11.1046 33.1045 12 31.9999 12C30.8954 12 29.9999 11.1046 29.9999 10C29.9999 8.89543 30.8954 8 31.9999 8Z" fill="#e3f2fd"/>
<path d="M36.4198 14.3445L45.08 19.3445L46.58 16.7465L37.9198 11.7465L36.4198 14.3445Z" fill="#e3f2fd"/>
<path d="M30.4999 26.5V15.5H33.4999V26.5H30.4999Z" fill="#e3f2fd"/>
<path d="M31.9999 30C33.1045 30 33.9999 30.8954 33.9999 32C33.9999 33.1046 33.1045 34 31.9999 34C30.8954 34 29.9999 33.1046 29.9999 32C29.9999 30.8954 30.8954 30 31.9999 30Z" fill="#e3f2fd"/>
<path d="M33.9999 54C33.9999 52.8954 33.1045 52 31.9999 52C30.8954 52 29.9999 52.8954 29.9999 54C29.9999 55.1046 30.8954 56 31.9999 56C33.1045 56 33.9999 55.1046 33.9999 54Z" fill="#e3f2fd"/>
<path d="M30.4999 48.5V37.5H33.4999V48.5H30.4999Z" fill="#e3f2fd"/>
<path d="M52.4999 27H49.4999V37H52.4999V27Z" fill="#e3f2fd"/>
<path d="M11.4999 27L11.4999 37H14.4999L14.4999 27H11.4999Z" fill="#e3f2fd"/>
<path d="M26.08 52.2535L17.4198 47.2535L18.9198 44.6554L27.58 49.6554L26.08 52.2535Z" fill="#e3f2fd"/>
<path d="M27.5801 14.3446L18.9198 19.3446L17.4198 16.7465L26.0801 11.7465L27.5801 14.3446Z" fill="#e3f2fd"/>
<path d="M46.58 47.2535L37.9198 52.2535L36.4198 49.6554L45.08 44.6554L46.58 47.2535Z" fill="#e3f2fd"/>
<path d="M47.0394 25.049L37.5131 30.549L36.0131 27.951L45.5394 22.451L47.0394 25.049Z" fill="#e3f2fd"/>
<path d="M27.5538 36.299L18.4605 41.549L16.9605 38.951L26.0538 33.701L27.5538 36.299Z" fill="#e3f2fd"/>
<path d="M18.4605 22.451L27.9868 27.951L26.4868 30.549L16.9605 25.049L18.4605 22.451Z" fill="#e3f2fd"/>
<path d="M37.9461 33.701L47.0394 38.951L45.5394 41.549L36.4461 36.299L37.9461 33.701Z" fill="#e3f2fd"/>
<path d="M13.9474 19.2679C12.9908 18.7157 11.7676 19.0434 11.2153 20C10.6631 20.9566 10.9908 22.1798 11.9474 22.732C12.904 23.2843 14.1272 22.9566 14.6794 22C15.2317 21.0434 14.904 19.8202 13.9474 19.2679Z" fill="#e3f2fd"/>
<path d="M52.0525 41.2679C51.0959 40.7157 49.8727 41.0434 49.3204 42C48.7682 42.9566 49.0959 44.1798 50.0525 44.732C51.0091 45.2843 52.2323 44.9566 52.7845 44C53.3368 43.0434 53.0091 41.8202 52.0525 41.2679Z" fill="#e3f2fd"/>
<path d="M11.9474 41.2679C10.9908 41.8202 10.663 43.0434 11.2153 44C11.7676 44.9566 12.9908 45.2843 13.9474 44.732C14.9039 44.1798 15.2317 42.9566 14.6794 42C14.1271 41.0434 12.9039 40.7157 11.9474 41.2679Z" fill="#e3f2fd"/>
<path d="M51.0525 19C49.9479 19 49.0525 19.8954 49.0525 21C49.0525 22.1046 49.9479 23 51.0525 23C52.1571 23 53.0525 22.1046 53.0525 21C53.0525 19.8954 52.1571 19 51.0525 19Z" fill="#e3f2fd"/>
</svg>
