<svg id="Layer_1" data-name="Layer 1" fill="#ffffff" xmlns="http://www.w3.org/2000/svg" viewBox="0 0 24 24"><title>patterns</title><circle cx="4.02" cy="4.01" r="3"/><path d="M15,12a3,3,0,0,0-2-2.81V6.83A3,3,0,0,0,14.84,5H17.2A3,3,0,0,0,19,6.83V9.21a3,3,0,1,0,2,0V6.83A3,3,0,1,0,17.2,3H14.84A3,3,0,1,0,11,6.83V9.21a3,3,0,0,0,0,5.63v2.38A3,3,0,0,0,9.2,19H6.84A3,3,0,0,0,5,17.22V14.84a3,3,0,1,0-2,0v2.38A3,3,0,1,0,6.84,21H9.21A3,3,0,1,0,13,17.22V14.84A3,3,0,0,0,15,12Z"/><circle cx="20.02" cy="20.03" r="3"/></svg>