<?xml version="1.0" encoding="UTF-8"?>
<svg width="94px" height="35px" viewBox="0 0 94 35" version="1.1"
     xmlns="http://www.w3.org/2000/svg">
    <title>GDPR compliant - GDPR Copy 8</title>
    <defs>
        <filter x="-11.3%" y="-30.0%" width="122.6%" height="160.0%" filterUnits="objectBoundingBox" id="filter-1">
            <feOffset dx="0" dy="2" in="SourceAlpha" result="shadowOffsetOuter1"></feOffset>
            <feGaussianBlur stdDeviation="2" in="shadowOffsetOuter1" result="shadowBlurOuter1"></feGaussianBlur>
            <feColorMatrix values="0 0 0 0 0.847058824   0 0 0 0 0.866666667   0 0 0 0 0.890196078  0 0 0 1 0" type="matrix" in="shadowBlurOuter1" result="shadowMatrixOuter1"></feColorMatrix>
            <feMerge>
                <feMergeNode in="shadowMatrixOuter1"></feMergeNode>
                <feMergeNode in="SourceGraphic"></feMergeNode>
            </feMerge>
        </filter>
    </defs>
    <g id="Page-1" stroke="none" stroke-width="1" fill="none" fill-rule="evenodd">
        <g id="GDPR-Badges" transform="translate(-600.000000, -300.000000)">
            <g id="GDPR-compliant---GDPR-Copy-8" filter="url(#filter-1)" transform="translate(598.000000, 295.000000)">
                <g id="Group" transform="translate(6.000000, 6.000000)" fill="#EA6C00" fill-rule="nonzero">
                    <polygon id="Shape" points="14.0000393 0 14.4535908 1.46796068 15.9215686 1.46796068 14.7340281 2.37517657 15.1875797 3.84313725 14.0000393 2.93534337 12.8127343 3.84313725 13.2663644 2.37517657 12.0784314 1.46796068 13.5464092 1.46796068"></polygon>
                    <polygon id="Shape" points="14.0000393 24.1568627 14.4535908 25.6252632 15.9215686 25.6252632 14.7340281 26.5323426 15.1875797 28 14.0000393 27.0930031 12.8127343 28 13.2663644 26.5323426 12.0784314 25.6252632 13.5464092 25.6252632"></polygon>
                    <polygon id="Shape" points="20.0392157 2.19607843 20.4925966 3.66402247 21.9607843 3.66402247 20.7729955 4.57160186 21.2266904 6.03921569 20.0392157 5.1316363 18.8515054 6.03921569 19.3051218 4.57160186 18.1176471 3.66402247 19.5858348 3.66402247"></polygon>
                    <polygon id="Shape" points="24.9805492 6.35947712 25.433893 7.82731166 26.9019608 7.82731166 25.714269 8.73477984 26.1679269 10.2026144 24.9805492 9.29547645 23.7928574 10.2026144 24.2465153 8.73477984 23.0588235 7.82731166 24.5265772 7.82731166"></polygon>
                    <polygon id="Shape" points="24.9805884 18.1176471 25.4339416 19.5860911 26.9019608 19.5860911 25.7143233 20.4932485 26.168226 21.9607843 24.9805884 21.0539572 23.7928724 21.9607843 24.2465396 20.4932485 23.0588235 19.5860911 24.5269213 19.5860911"></polygon>
                    <polygon id="Shape" points="3.0197649 6.35947712 3.47318285 7.82731166 4.94117647 7.82731166 3.75360465 8.73477984 4.2070226 10.2026144 3.0197649 9.29547645 1.8319575 10.2026144 2.28561103 8.73477984 1.09803922 7.82731166 2.56634695 7.82731166"></polygon>
                    <polygon id="Shape" points="26.0785491 12.0784314 26.5319023 13.5462659 28 13.5462659 26.8123625 14.4534038 27.2659511 15.9215686 26.0785491 15.014761 24.8909116 15.9215686 25.3448143 14.4534038 24.1568627 13.5462659 25.6246464 13.5462659"></polygon>
                    <polygon id="Shape" points="1.92184346 12.0784314 2.37523362 13.5462659 3.84313725 13.5462659 2.65540266 14.4534038 3.10934248 15.9215686 1.92184346 15.014761 0.734030343 15.9215686 1.18773459 14.4534038 0 13.5462659 1.46813921 13.5462659"></polygon>
                    <polygon id="Shape" points="3.01988267 18.1176471 3.47327283 19.5860911 4.94117647 19.5860911 3.75375597 20.4932485 4.20706761 21.9607843 3.01988267 21.0539572 1.83214808 21.9607843 2.28577381 20.4932485 1.09803922 19.5860911 2.56625695 19.5860911"></polygon>
                    <polygon id="Shape" points="21.1373727 23.0588235 21.5907258 24.5265635 23.0588235 24.5265635 21.8708719 25.4342208 22.3247747 26.9019608 21.1373727 25.9948813 19.9494211 26.9019608 20.4034023 25.4342208 19.2156863 24.5265635 20.683784 24.5265635"></polygon>
                    <polygon id="Shape" points="7.96082358 2.19607843 8.41413521 3.66402247 9.88235294 3.66402247 8.69461835 4.57160186 9.14855817 6.03921569 7.96082358 5.1316363 6.77332455 6.03921569 7.22695028 4.57160186 6.03921569 3.66402247 7.50711933 3.66402247"></polygon>
                    <polygon id="Shape" points="6.86262732 23.0588235 7.31621598 24.5273186 8.78431373 24.5273186 7.5966762 25.4341262 8.05026485 26.9019608 6.86262732 25.9954008 5.67522534 26.9019608 6.128814 25.4341262 4.94117647 24.5273186 6.40896015 24.5273186"></polygon>
                </g>
                <path d="M23.1428571,19.1363636 L22.7142857,19.1363636 L22.7142857,17.8068182 C22.7142857,16.259375 21.4964286,15 20,15 C18.5035714,15 17.2857143,16.259375 17.2857143,17.8068182 L17.2857143,19.1363636 L16.8571429,19.1363636 C16.3839286,19.1363636 16,19.5333807 16,20.0227273 L16,23.5681818 C16,24.0575284 16.3839286,24.4545455 16.8571429,24.4545455 L23.1428571,24.4545455 C23.6160714,24.4545455 24,24.0575284 24,23.5681818 L24,20.0227273 C24,19.5333807 23.6160714,19.1363636 23.1428571,19.1363636 Z M21.2857143,19.1363636 L18.7142857,19.1363636 L18.7142857,17.8068182 C18.7142857,17.0737216 19.2910714,16.4772727 20,16.4772727 C20.7089286,16.4772727 21.2857143,17.0737216 21.2857143,17.8068182 L21.2857143,19.1363636 Z" id="Shape" fill="#2B3945" fill-rule="nonzero"></path>
                <path d="M43,15.5957447 C43,18.4197965 45.1632047,20.1914894 47.8204748,20.1914894 C49.5029674,20.1914894 50.7982196,19.5121184 51.7596439,18.4597595 L51.7596439,14.9829787 L47.4599407,14.9829787 L47.4599407,16.8878816 L49.5029674,16.8878816 L49.5029674,17.6338575 C49.1424332,17.9269195 48.5148368,18.1666975 47.8204748,18.1666975 C46.3649852,18.1666975 45.3367953,17.0477336 45.3367953,15.5957447 C45.3367953,14.1437558 46.3649852,13.0247919 47.8204748,13.0247919 C48.6617211,13.0247919 49.34273,13.4910268 49.7032641,14.0771508 L51.6261128,13.0647549 C50.9718101,11.9591119 49.7700297,11 47.8204748,11 C45.1632047,11 43,12.7716929 43,15.5957447 Z M53.1083086,20.0316374 L53.1083086,11.146531 L56.847181,11.146531 C59.6513353,11.146531 61.6676558,12.8249769 61.6676558,15.5824237 C61.6676558,18.3398705 59.6513353,20.0316374 56.8605341,20.0316374 L53.1083086,20.0316374 Z M55.4050445,18.0334875 L56.847181,18.0334875 C58.4094955,18.0334875 59.3175074,16.9012026 59.3175074,15.5824237 C59.3175074,14.2103608 58.4896142,13.1446809 56.8605341,13.1446809 L55.4050445,13.1446809 L55.4050445,18.0334875 Z M62.8160237,20.0316374 L62.8160237,11.146531 L67.2759644,11.146531 C69.2789318,11.146531 70.3738872,12.4919519 70.3738872,14.1037928 C70.3738872,15.7023127 69.2789318,17.0210916 67.2759644,17.0210916 L65.1127596,17.0210916 L65.1127596,20.0316374 L62.8160237,20.0316374 Z M68.037092,14.0904718 C68.037092,13.4777058 67.5830861,13.0780759 66.9688427,13.0780759 L65.1127596,13.0780759 L65.1127596,15.0762257 L66.9688427,15.0762257 C67.5830861,15.0762257 68.037092,14.6899167 68.037092,14.0904718 Z M76.3694362,20.0316374 L74.8738872,17.0210916 L73.6988131,17.0210916 L73.6988131,20.0316374 L71.4020772,20.0316374 L71.4020772,11.146531 L75.8620178,11.146531 C77.8382789,11.146531 78.9599407,12.4519889 78.9599407,14.1037928 C78.9599407,15.6490287 78.0118694,16.4749306 77.1839763,16.7679926 L79,20.0316374 L76.3694362,20.0316374 Z M76.6231454,14.0771508 C76.6231454,13.4643848 76.115727,13.0780759 75.5148368,13.0780759 L73.6988131,13.0780759 L73.6988131,15.0762257 L75.5148368,15.0762257 C76.115727,15.0762257 76.6231454,14.6899167 76.6231454,14.0771508 Z" id="GDPR" fill="#2B3945"></path>
                <text id="Compliant" font-family="HelveticaNeue-Medium, Helvetica Neue" font-size="8" font-weight="400" letter-spacing="0.200000003" fill="#2B3945">
                    <tspan x="43" y="31">COMPLIANT</tspan>
                </text>
            </g>
        </g>
    </g>
</svg>
